<svg width="18" height="19" viewBox="0 0 18 19" fill="none" xmlns="http://www.w3.org/2000/svg">
<path d="M1 10.5H7C7.26522 10.5 7.51957 10.3946 7.70711 10.2071C7.89464 10.0196 8 9.76522 8 9.5V1.5C8 1.23478 7.89464 0.98043 7.70711 0.792893C7.51957 0.605357 7.26522 0.5 7 0.5H1C0.734784 0.5 0.48043 0.605357 0.292893 0.792893C0.105357 0.98043 0 1.23478 0 1.5V9.5C0 9.76522 0.105357 10.0196 0.292893 10.2071C0.48043 10.3946 0.734784 10.5 1 10.5ZM0 17.5C0 17.7652 0.105357 18.0196 0.292893 18.2071C0.48043 18.3946 0.734784 18.5 1 18.5H7C7.26522 18.5 7.51957 18.3946 7.70711 18.2071C7.89464 18.0196 8 17.7652 8 17.5V13.5C8 13.2348 7.89464 12.9804 7.70711 12.7929C7.51957 12.6054 7.26522 12.5 7 12.5H1C0.734784 12.5 0.48043 12.6054 0.292893 12.7929C0.105357 12.9804 0 13.2348 0 13.5V17.5ZM10 17.5C10 17.7652 10.1054 18.0196 10.2929 18.2071C10.4804 18.3946 10.7348 18.5 11 18.5H17C17.2652 18.5 17.5196 18.3946 17.7071 18.2071C17.8946 18.0196 18 17.7652 18 17.5V10.5C18 10.2348 17.8946 9.98043 17.7071 9.79289C17.5196 9.60536 17.2652 9.5 17 9.5H11C10.7348 9.5 10.4804 9.60536 10.2929 9.79289C10.1054 9.98043 10 10.2348 10 10.5V17.5ZM11 7.5H17C17.2652 7.5 17.5196 7.39464 17.7071 7.20711C17.8946 7.01957 18 6.76522 18 6.5V1.5C18 1.23478 17.8946 0.98043 17.7071 0.792893C17.5196 0.605357 17.2652 0.5 17 0.5H11C10.7348 0.5 10.4804 0.605357 10.2929 0.792893C10.1054 0.98043 10 1.23478 10 1.5V6.5C10 6.76522 10.1054 7.01957 10.2929 7.20711C10.4804 7.39464 10.7348 7.5 11 7.5Z" fill="#7B7B7B"/>
</svg>
