<svg width="24" height="25" viewBox="0 0 24 25" fill="none" xmlns="http://www.w3.org/2000/svg">
<path d="M8.4 0.5C10.6278 0.5 12.7644 1.385 14.3397 2.9603C15.915 4.53561 16.8 6.67218 16.8 8.9C16.8 10.784 16.2 12.5 15.132 13.928L16.092 14.9H16.8L24 22.1L21.6 24.5L14.4 17.3V16.592L13.428 15.632C11.9792 16.7223 10.2132 17.3082 8.4 17.3C6.17218 17.3 4.03561 16.415 2.4603 14.8397C0.884997 13.2644 0 11.1278 0 8.9C0 6.67218 0.884997 4.53561 2.4603 2.9603C4.03561 1.385 6.17218 0.5 8.4 0.5ZM7.2 4.1V7.7H3.6V10.1H7.2V13.7H9.6V10.1H13.2V7.7H9.6V4.1H7.2Z" fill="#7B7B7B"/>
</svg>
