<svg width="148" height="81" viewBox="0 0 148 81" fill="none" xmlns="http://www.w3.org/2000/svg">
<path d="M104.609 52.048C102.561 52.5174 97.1689 52.7877 97.1689 52.7877L96.486 54.9216C96.486 54.9216 99.1748 54.694 101.138 54.8932C101.138 54.8932 101.778 54.8221 101.849 55.6187C101.878 56.3585 101.792 57.1551 101.792 57.1551C101.792 57.1551 101.75 57.6388 101.067 57.7526C100.327 57.8807 95.2626 58.0656 95.2626 58.0656L94.4375 60.8397C94.4375 60.8397 94.1387 61.4798 94.8216 61.2949C95.4618 61.1242 100.768 60.1284 101.465 60.2706C102.205 60.4556 103.03 61.4372 102.788 62.3476C102.504 63.4573 97.2116 66.8431 93.9822 66.6012C93.9822 66.6012 92.2893 66.715 90.8525 64.4246C89.5153 62.2481 91.3646 58.1083 91.3646 58.1083C91.3646 58.1083 90.5253 56.1735 91.137 55.5334C91.137 55.5334 91.5069 55.2062 92.5596 55.1208L93.8542 52.4321C93.8542 52.4321 92.3747 52.5317 91.4927 51.4505C90.6676 50.412 90.6107 49.9425 91.2366 49.658C91.9052 49.3308 98.0651 48.2069 102.304 48.3492C102.304 48.3492 103.784 48.2069 105.05 50.7676C105.036 50.7676 105.662 51.8061 104.609 52.048ZM88.6617 62.3761C88.1211 63.6564 86.6843 65.0221 84.906 64.1686C83.142 63.315 80.3395 57.5819 80.3395 57.5819C80.3395 57.5819 79.2725 55.448 79.0733 55.4907C79.0733 55.4907 78.8457 55.0781 78.7035 57.4112C78.5612 59.7443 78.7319 64.2824 77.8072 64.9937C76.9252 65.705 75.8583 65.4205 75.3034 64.5811C74.8055 63.756 74.5921 61.7928 74.8624 58.3501C75.1896 54.9074 75.9863 51.2371 77.0106 50.0848C78.0348 48.9467 78.86 49.7718 79.1729 50.0706C79.1729 50.0706 80.5386 51.3082 82.8006 54.9501L83.1989 55.6187C83.1989 55.6187 85.2474 59.0614 85.4608 59.0472C85.4608 59.0472 85.6316 59.2037 85.7738 59.0899C85.9872 59.033 85.9019 57.9233 85.9019 57.9233C85.9019 57.9233 85.4751 54.1819 83.6115 47.8371C83.6115 47.8371 83.3269 47.0404 83.5261 46.3007C83.711 45.5467 84.465 45.9023 84.465 45.9023C84.465 45.9023 87.3671 47.3534 88.7613 52.0764C90.1412 56.8422 89.2023 61.0957 88.6617 62.3761ZM74.4072 50.2413C74.1654 50.725 74.0231 51.422 72.7997 51.607C72.7997 51.607 61.0916 52.4036 60.5368 53.2287C60.5368 53.2287 60.1243 53.7124 60.7644 53.8547C61.4046 53.9827 64.0506 54.3384 65.331 54.4095C66.6967 54.4237 71.3059 54.4664 72.9561 56.5292C72.9561 56.5292 73.9377 57.5108 73.8951 59.73C73.8524 62.0062 73.4541 62.8029 72.572 63.628C71.6473 64.3962 63.7092 67.9527 58.5878 62.4899C58.5878 62.4899 56.2263 59.8581 59.3987 57.8664C59.3987 57.8664 61.6891 56.4865 67.5076 58.1083C67.5076 58.1083 69.2716 58.7484 69.1862 59.3886C69.0867 60.0715 67.7352 60.797 65.772 60.7543C63.8657 60.6974 62.4716 59.7869 62.7418 59.9292C62.9979 60.0288 60.6933 58.8196 59.982 59.6447C59.2707 60.3987 59.4414 60.8681 60.1385 61.3376C61.9167 62.3476 68.7879 61.992 70.8365 59.7158C70.8365 59.7158 71.6474 58.7911 70.4097 58.0371C69.172 57.3258 65.6297 56.8991 64.2498 56.8279C62.9268 56.7568 58.0046 56.8422 57.2933 55.5334C57.2933 55.5334 56.582 54.6513 57.3644 52.1476C58.1895 49.53 63.9226 48.5199 66.3979 48.2923C66.3979 48.2923 73.2122 48.0505 74.4641 49.4446C74.4499 49.4446 74.6206 49.7718 74.4072 50.2413ZM55.0598 65.5912C54.2347 66.2029 52.4849 65.9326 51.987 65.2497C51.489 64.638 51.3183 62.2054 51.4179 58.3928C51.5175 54.5375 51.6029 49.7576 52.428 49.0036C53.31 48.2354 53.8506 48.904 54.192 49.4304C54.5619 49.9425 55.0029 50.5116 55.1025 51.7208C55.1878 52.93 55.4723 59.2748 55.4723 59.2748C55.4723 59.2748 55.8422 64.9937 55.0598 65.5912ZM56.838 45.1341C54.4338 45.9308 52.7836 45.6605 51.3895 45.063C50.7777 46.1299 50.4221 46.4571 49.9526 46.5283C49.2698 46.5994 48.6581 45.504 48.5443 45.1483C48.4304 44.878 48.1032 44.4228 48.5016 43.3416C47.1359 42.1182 47.0363 40.468 47.2639 39.3583C47.6053 38.078 49.91 33.2127 56.9234 32.6436C56.9234 32.6436 60.3519 32.3876 60.9351 34.2227H61.0347C61.0347 34.2227 64.3636 34.237 64.2925 37.196C64.2498 40.1692 60.5937 43.868 56.838 45.1341ZM50.2941 38.5475C49.5828 39.6855 49.5543 40.3684 49.8815 40.8379C50.6924 39.6002 52.1719 37.6512 54.3485 36.1717C52.6698 36.314 51.2614 37.0395 50.2941 38.5475ZM59.982 36.6412C57.777 36.9684 54.3627 39.9274 52.7409 42.3458C55.2305 42.801 59.6263 42.6303 61.5753 38.6613C61.5611 38.6613 62.5 36.2002 59.982 36.6412ZM119.845 59.5593C118.522 61.8639 114.809 66.6723 109.859 65.5485C108.223 69.5176 106.857 73.5151 106.074 79.5185C106.074 79.5185 105.904 80.685 104.936 80.2725C103.983 79.931 102.39 78.3377 102.077 76.1327C101.735 73.2306 103.03 68.3226 105.662 62.7033C104.894 61.4514 104.367 59.6589 104.822 57.1124C104.822 57.1124 105.491 52.3894 110.228 48.1216C110.228 48.1216 110.797 47.6237 111.125 47.7802C111.495 47.9366 111.324 49.4731 111.025 50.2128C110.726 50.9526 108.607 54.6229 108.607 54.6229C108.607 54.6229 107.284 57.0982 107.653 59.0472C110.143 55.2204 115.805 47.4956 119.319 49.9283C120.5 50.7676 121.04 52.6028 121.04 54.5802C121.026 56.33 120.613 58.1794 119.845 59.5593ZM118.821 53.499C118.821 53.499 118.622 51.9768 117.142 53.6555C115.862 55.0639 113.557 57.7242 111.694 61.3234C113.643 61.11 115.52 60.043 116.09 59.5024C117.014 58.6773 119.162 56.4581 118.821 53.499ZM49.7535 55.4338C49.4832 58.8765 48.1601 64.6665 38.7852 67.5259C32.5969 69.3895 26.7499 68.4933 23.5633 67.6824C23.4922 68.9485 23.3499 69.4891 23.1508 69.7025C22.8805 69.9728 20.8604 71.1393 19.7507 69.4891C19.2528 68.7067 18.9968 67.2841 18.8545 66.018C11.6846 62.7175 8.38413 57.966 8.25609 57.7526C8.09961 57.5961 6.46361 55.889 8.09961 53.7978C9.63602 51.9057 14.6578 50.0136 19.1817 49.2454C19.3382 45.376 19.7934 42.4596 20.334 41.1224C20.9884 39.5717 21.8135 40.9659 22.5248 42.0186C23.1223 42.801 23.478 46.1726 23.5064 48.8613C26.4654 48.7191 28.2152 48.9325 31.5157 49.53C35.8119 50.3124 38.6856 52.5032 38.4295 54.9928C38.2446 57.4396 35.9969 58.4497 35.1433 58.5208C34.2471 58.592 32.8529 57.9518 32.8529 57.9518C31.8998 57.4966 32.7818 57.0982 33.9341 56.6003C35.186 55.9886 34.9015 55.3626 34.9015 55.3626C34.432 53.9969 28.8554 53.0438 23.3072 53.0438C23.2788 56.1024 23.4353 61.1811 23.5064 64.1401C27.3901 64.8799 30.2922 64.7376 30.2922 64.7376C30.2922 64.7376 44.4614 64.3393 44.8882 55.2915C45.3292 46.2295 30.7617 37.5374 19.9926 34.7776C9.23769 31.9608 3.14894 33.924 2.62258 34.1943C2.05354 34.4788 2.5799 34.5642 2.5799 34.5642C2.5799 34.5642 3.16317 34.6495 4.17322 34.9909C5.24017 35.3324 4.41506 35.8872 4.41506 35.8872C2.5799 36.4705 0.517121 36.1006 0.118792 35.2612C-0.279537 34.4219 0.38909 33.6679 1.1573 32.5867C1.9255 31.4487 2.76484 31.4913 2.76484 31.4913C16.0662 26.8821 32.2697 35.2186 32.2697 35.2186C47.4488 42.9149 50.038 51.9342 49.7535 55.4338ZM9.60757 54.9643C8.09961 55.7041 9.13811 56.771 9.13811 56.771C11.9691 59.8154 15.4545 61.7217 18.7691 62.9024C19.1532 57.653 19.0963 55.8037 19.139 53.1576C13.9607 53.5133 10.9733 54.3384 9.60757 54.9643Z" fill="white"/>
<path d="M148 53.8651V55.743C148 56.1555 147.673 56.4827 147.26 56.4827H138.312C138.312 56.9522 138.326 57.3648 138.326 57.7489C138.326 60.5229 138.212 62.7849 137.942 65.3314C137.899 65.7155 137.587 66 137.217 66H135.282C135.083 66 134.898 65.9146 134.77 65.7724C134.642 65.6301 134.571 65.4309 134.599 65.2318C134.869 62.6995 134.997 60.466 134.997 57.7489C134.997 57.3505 134.997 56.938 134.983 56.4827H126.135C125.722 56.4827 125.395 56.1555 125.395 55.743V53.8651C125.395 53.4526 125.722 53.1254 126.135 53.1254H134.855C134.67 50.0668 134.3 47.122 133.703 44.1345C133.674 43.9496 133.717 43.7646 133.831 43.6224C133.945 43.4801 134.115 43.3948 134.3 43.3948H136.392C136.719 43.3948 136.989 43.6224 137.06 43.9496C137.643 47.0366 138.013 50.0383 138.198 53.1254H147.26C147.659 53.1254 148 53.4668 148 53.8651Z" fill="white"/>
<path d="M135.828 38.9789C131.204 27.6123 123.394 17.9243 113.237 10.9536C102.837 3.8263 90.6457 0.0563965 77.9845 0.0563965C57.0438 0.0563965 37.611 10.4556 26.0168 27.8826C25.8887 28.0675 25.8603 28.3093 25.9314 28.5227C26.0025 28.7503 26.1733 28.9068 26.3866 28.978L28.0084 29.5328C28.108 29.5612 28.2076 29.5755 28.2929 29.5755C28.5917 29.5755 28.8762 29.419 29.0469 29.1771C34.3675 21.3528 41.5658 14.8515 49.8739 10.3561C58.4522 5.71837 68.1685 3.25726 77.9703 3.25726C89.8206 3.25726 101.244 6.75687 111.032 13.3578C120.577 19.8022 127.989 28.8072 132.47 39.3772C132.598 39.6902 132.911 39.9036 133.253 39.9036H135.187C135.415 39.9036 135.628 39.7898 135.742 39.6048C135.885 39.4199 135.913 39.1923 135.828 38.9789ZM28.2929 29.0918C28.2503 29.0918 28.2076 29.0775 28.1649 29.0633C28.2076 29.0775 28.2503 29.0918 28.2929 29.0918H28.3214H28.2929ZM132.854 39.6475C132.897 39.6759 132.94 39.7044 132.982 39.7186C132.94 39.6902 132.897 39.6759 132.854 39.6475Z" fill="#00FFFF"/>
<defs>
<radialGradient id="paint0_radial" cx="0" cy="0" r="1" gradientUnits="userSpaceOnUse" gradientTransform="translate(134.01 39.8319) scale(108.136)">
<stop stop-color="white"/>
<stop offset="0.01" stop-color="white"/>
<stop offset="0.03" stop-color="#CBFFFF"/>
<stop offset="0.06" stop-color="#96FFFF"/>
<stop offset="0.08" stop-color="#68FFFF"/>
<stop offset="0.11" stop-color="#43FFFF"/>
<stop offset="0.14" stop-color="#25FFFF"/>
<stop offset="0.16" stop-color="#11FFFF"/>
<stop offset="0.19" stop-color="#04FFFF"/>
<stop offset="0.22" stop-color="#00FFFF"/>
<stop offset="1" stop-color="#0000FF" stop-opacity="0"/>
</radialGradient>
</defs>
</svg>
