<svg width="261" height="153" viewBox="0 0 261 153" fill="none" xmlns="http://www.w3.org/2000/svg">
<rect x="28.5" y="18.5" width="30" height="58" rx="3.5" stroke="#030B17"/>
<rect x="44.5" y="0.5" width="30" height="58" rx="3.5" fill="#030B17" stroke="#030B17"/>
<rect x="46" y="7" width="27" height="19" fill="url(#paint0_linear)"/>
<rect x="46.25" y="31.25" width="10.5" height="15.5" rx="0.75" stroke="white" stroke-width="0.5"/>
<rect x="58.25" y="31.25" width="10.5" height="15.5" rx="0.75" stroke="white" stroke-width="0.5"/>
<rect x="70.25" y="31.25" width="10.5" height="15.5" rx="0.75" stroke="white" stroke-width="0.5"/>
<path d="M63 16.275L56 12V21L63 16.275Z" fill="black"/>
<rect x="91" y="22" width="170" height="111" fill="#030B17"/>
<path d="M121 145.988L176 133.488" stroke="black" stroke-width="2"/>
<path d="M231 145.5L176 133" stroke="black" stroke-width="2"/>
<rect x="91" y="22" width="14" height="111" fill="#121E3A"/>
<rect x="109" y="74" width="33" height="21" rx="2" fill="#414B61"/>
<rect x="118" y="106" width="33" height="21" rx="2" fill="#4388E2"/>
<rect x="155" y="106" width="33" height="21" rx="2" fill="#53C2ED"/>
<rect x="192.5" y="106.5" width="32" height="20" rx="1.5" stroke="#66FDF8"/>
<path d="M229 108C229 106.895 229.895 106 231 106H254V127H231C229.895 127 229 126.105 229 125V108Z" fill="#66FDF8"/>
<rect x="146" y="74" width="34" height="21" rx="2" fill="#414B61"/>
<rect x="184" y="74" width="34" height="21" rx="2" fill="#414B61"/>
<rect x="221" y="74" width="33" height="21" rx="2" fill="#414B61"/>
<rect x="109" y="28" width="145" height="39" fill="#27479F"/>
<rect x="113" y="54" width="69" height="6" fill="white"/>
<path d="M114 47H168" stroke="white"/>
<path d="M113 103H146" stroke="white"/>
<path d="M228.755 51.2674C228.035 51.4323 226.14 51.5273 226.14 51.5273L225.9 52.277C225.9 52.277 226.845 52.1971 227.535 52.267C227.535 52.267 227.76 52.242 227.785 52.522C227.795 52.7819 227.765 53.0618 227.765 53.0618C227.765 53.0618 227.75 53.2317 227.51 53.2717C227.25 53.3167 225.471 53.3817 225.471 53.3817L225.181 54.3563C225.181 54.3563 225.076 54.5813 225.316 54.5163C225.541 54.4563 227.405 54.1064 227.65 54.1564C227.91 54.2214 228.2 54.5663 228.115 54.8862C228.015 55.276 226.155 56.4656 225.021 56.3807C225.021 56.3807 224.426 56.4207 223.921 55.6159C223.451 54.8512 224.101 53.3967 224.101 53.3967C224.101 53.3967 223.806 52.7169 224.021 52.492C224.021 52.492 224.151 52.377 224.521 52.347L224.976 51.4023C224.976 51.4023 224.456 51.4373 224.146 51.0574C223.856 50.6926 223.836 50.5276 224.056 50.4277C224.291 50.3127 226.455 49.9178 227.945 49.9678C227.945 49.9678 228.465 49.9178 228.91 50.8175C228.904 50.8175 229.124 51.1824 228.755 51.2674ZM223.151 54.8962C222.961 55.346 222.457 55.8259 221.832 55.526C221.212 55.2261 220.227 53.2117 220.227 53.2117C220.227 53.2117 219.853 52.462 219.783 52.477C219.783 52.477 219.703 52.332 219.653 53.1517C219.603 53.9715 219.663 55.5659 219.338 55.8159C219.028 56.0658 218.653 55.9658 218.458 55.6709C218.283 55.381 218.208 54.6912 218.303 53.4816C218.418 52.272 218.698 50.9825 219.058 50.5776C219.418 50.1777 219.708 50.4676 219.818 50.5726C219.818 50.5726 220.297 51.0075 221.092 52.287L221.232 52.522C221.232 52.522 221.952 53.7316 222.027 53.7266C222.027 53.7266 222.087 53.7815 222.137 53.7416C222.212 53.7216 222.182 53.3317 222.182 53.3317C222.182 53.3317 222.032 52.0171 221.377 49.7879C221.377 49.7879 221.277 49.508 221.347 49.248C221.412 48.9831 221.677 49.1081 221.677 49.1081C221.677 49.1081 222.697 49.6179 223.186 51.2774C223.671 52.9518 223.341 54.4463 223.151 54.8962ZM218.143 50.6326C218.058 50.8025 218.008 51.0474 217.578 51.1124C217.578 51.1124 213.465 51.3923 213.27 51.6822C213.27 51.6822 213.125 51.8522 213.35 51.9022C213.575 51.9471 214.504 52.0721 214.954 52.0971C215.434 52.1021 217.053 52.1171 217.633 52.8418C217.633 52.8418 217.978 53.1867 217.963 53.9665C217.948 54.7662 217.808 55.0461 217.498 55.336C217.173 55.6059 214.384 56.8555 212.585 54.9362C212.585 54.9362 211.755 54.0115 212.87 53.3117C212.87 53.3117 213.675 52.8269 215.719 53.3967C215.719 53.3967 216.339 53.6216 216.309 53.8465C216.274 54.0864 215.799 54.3414 215.109 54.3264C214.439 54.3064 213.949 53.9865 214.044 54.0365C214.134 54.0714 213.325 53.6466 213.075 53.9365C212.825 54.2014 212.885 54.3663 213.13 54.5313C213.755 54.8862 216.169 54.7612 216.888 53.9615C216.888 53.9615 217.173 53.6366 216.739 53.3717C216.304 53.1218 215.059 52.9718 214.574 52.9468C214.109 52.9218 212.38 52.9518 212.13 52.492C212.13 52.492 211.88 52.1821 212.155 51.3024C212.445 50.3827 214.459 50.0278 215.329 49.9478C215.329 49.9478 217.723 49.8628 218.163 50.3527C218.158 50.3527 218.218 50.4676 218.143 50.6326ZM211.345 56.0258C211.055 56.2407 210.441 56.1458 210.266 55.9058C210.091 55.6909 210.031 54.8362 210.066 53.4966C210.101 52.1421 210.131 50.4626 210.421 50.1977C210.731 49.9278 210.92 50.1627 211.04 50.3477C211.17 50.5276 211.325 50.7276 211.36 51.1524C211.39 51.5773 211.49 53.8065 211.49 53.8065C211.49 53.8065 211.62 55.8159 211.345 56.0258ZM211.97 48.8382C211.125 49.1181 210.546 49.0231 210.056 48.8132C209.841 49.1881 209.716 49.303 209.551 49.328C209.311 49.353 209.096 48.9681 209.056 48.8432C209.016 48.7482 208.901 48.5883 209.041 48.2084C208.561 47.7785 208.526 47.1987 208.606 46.8089C208.726 46.359 209.536 44.6496 212 44.4496C212 44.4496 213.205 44.3597 213.41 45.0044H213.445C213.445 45.0044 214.614 45.0094 214.589 46.0491C214.574 47.0938 213.29 48.3933 211.97 48.8382ZM209.671 46.5239C209.421 46.9238 209.411 47.1637 209.526 47.3287C209.811 46.8938 210.331 46.209 211.095 45.6892C210.506 45.7392 210.011 45.9941 209.671 46.5239ZM213.075 45.8542C212.3 45.9691 211.1 47.0088 210.531 47.8585C211.405 48.0184 212.95 47.9585 213.635 46.5639C213.63 46.5639 213.959 45.6992 213.075 45.8542ZM234.108 53.9065C233.643 54.7162 232.338 56.4057 230.599 56.0108C230.024 57.4053 229.544 58.8099 229.269 60.9192C229.269 60.9192 229.209 61.329 228.87 61.1841C228.535 61.0641 227.975 60.5043 227.865 59.7296C227.745 58.7099 228.2 56.9855 229.124 55.0111C228.855 54.5713 228.67 53.9415 228.83 53.0468C228.83 53.0468 229.064 51.3873 230.729 49.8878C230.729 49.8878 230.929 49.7129 231.044 49.7679C231.174 49.8229 231.114 50.3627 231.009 50.6226C230.904 50.8825 230.159 52.1721 230.159 52.1721C230.159 52.1721 229.694 53.0418 229.824 53.7266C230.699 52.382 232.688 49.6679 233.923 50.5226C234.338 50.8175 234.528 51.4623 234.528 52.1571C234.523 52.7719 234.378 53.4217 234.108 53.9065ZM233.748 51.7772C233.748 51.7772 233.678 51.2424 233.158 51.8322C232.708 52.327 231.899 53.2617 231.244 54.5263C231.928 54.4513 232.588 54.0764 232.788 53.8865C233.113 53.5966 233.868 52.8169 233.748 51.7772ZM209.481 52.457C209.386 53.6666 208.921 55.7009 205.627 56.7056C203.453 57.3603 201.399 57.0455 200.279 56.7605C200.254 57.2054 200.204 57.3953 200.134 57.4703C200.039 57.5653 199.329 57.9751 198.939 57.3953C198.765 57.1204 198.675 56.6206 198.625 56.1757C196.105 55.0161 194.946 53.3467 194.901 53.2717C194.846 53.2167 194.271 52.6169 194.846 51.8822C195.386 51.2174 197.15 50.5526 198.74 50.2827C198.794 48.9231 198.954 47.8985 199.144 47.4286C199.374 46.8838 199.664 47.3737 199.914 47.7435C200.124 48.0184 200.249 49.2031 200.259 50.1477C201.299 50.0978 201.913 50.1727 203.073 50.3827C204.583 50.6576 205.592 51.4273 205.502 52.302C205.437 53.1617 204.648 53.5166 204.348 53.5416C204.033 53.5666 203.543 53.3417 203.543 53.3417C203.208 53.1817 203.518 53.0418 203.923 52.8668C204.363 52.6519 204.263 52.432 204.263 52.432C204.098 51.9521 202.138 51.6173 200.189 51.6173C200.179 52.6919 200.234 54.4763 200.259 55.516C201.624 55.7759 202.643 55.7259 202.643 55.7259C202.643 55.7259 207.622 55.5859 207.772 52.407C207.926 49.223 202.808 46.1691 199.024 45.1994C195.246 44.2097 193.106 44.8995 192.921 44.9945C192.722 45.0944 192.906 45.1244 192.906 45.1244C192.906 45.1244 193.111 45.1544 193.466 45.2744C193.841 45.3943 193.551 45.5893 193.551 45.5893C192.906 45.7942 192.182 45.6642 192.042 45.3693C191.902 45.0744 192.137 44.8095 192.407 44.4296C192.677 44.0298 192.971 44.0448 192.971 44.0448C197.645 42.4253 203.338 45.3543 203.338 45.3543C208.671 48.0584 209.581 51.2274 209.481 52.457ZM195.376 52.292C194.846 52.5519 195.211 52.9268 195.211 52.9268C196.205 53.9965 197.43 54.6662 198.595 55.0811C198.73 53.2367 198.71 52.5869 198.725 51.6572C196.905 51.7822 195.855 52.0721 195.376 52.292Z" fill="white"/>
<path d="M244 51.9058V52.5656C244 52.7106 243.885 52.8255 243.74 52.8255H240.596C240.596 52.9905 240.601 53.1354 240.601 53.2704C240.601 54.2451 240.561 55.0398 240.466 55.9345C240.451 56.0695 240.341 56.1694 240.211 56.1694H239.531C239.461 56.1694 239.397 56.1394 239.352 56.0894C239.307 56.0395 239.282 55.9695 239.292 55.8995C239.387 55.0098 239.431 54.2251 239.431 53.2704C239.431 53.1304 239.432 52.9855 239.427 52.8255H236.318C236.173 52.8255 236.058 52.7106 236.058 52.5656V51.9058C236.058 51.7609 236.173 51.6459 236.318 51.6459H239.382C239.317 50.5713 239.187 49.5366 238.977 48.487C238.967 48.422 238.982 48.357 239.022 48.307C239.062 48.257 239.122 48.2271 239.187 48.2271H239.921C240.036 48.2271 240.131 48.307 240.156 48.422C240.361 49.5066 240.491 50.5613 240.556 51.6459H243.74C243.88 51.6459 244 51.7659 244 51.9058Z" fill="white"/>
<path d="M239.723 46.6755C238.099 42.6818 235.355 39.2779 231.786 36.8287C228.132 34.3246 223.848 33 219.4 33C212.042 33 205.215 36.6538 201.141 42.7768C201.096 42.8417 201.086 42.9267 201.111 43.0017C201.136 43.0817 201.196 43.1366 201.271 43.1616L201.841 43.3566C201.876 43.3666 201.911 43.3716 201.941 43.3716C202.046 43.3716 202.146 43.3166 202.206 43.2316C204.075 40.4825 206.604 38.1983 209.523 36.6188C212.537 34.9893 215.951 34.1246 219.395 34.1246C223.559 34.1246 227.572 35.3542 231.011 37.6734C234.365 39.9377 236.969 43.1017 238.544 46.8154C238.589 46.9254 238.699 47.0004 238.819 47.0004H239.498C239.578 47.0004 239.653 46.9604 239.693 46.8954C239.743 46.8304 239.753 46.7504 239.723 46.6755ZM201.941 43.2016C201.926 43.2016 201.911 43.1966 201.896 43.1916C201.911 43.1966 201.926 43.2016 201.941 43.2016H201.951H201.941ZM238.679 46.9104C238.694 46.9204 238.709 46.9304 238.724 46.9354C238.709 46.9254 238.694 46.9204 238.679 46.9104Z" fill="#66FDF8"/>
<path d="M5.05146 152.9L0.194319 146.1H114.806L109.949 152.9H5.05146Z" fill="black" stroke="white" stroke-width="0.2"/>
<rect x="8.1" y="91.1" width="99.8" height="54.8" fill="black" stroke="white" stroke-width="0.2"/>
<rect x="13" y="96" width="90" height="50" fill="#27479F"/>
<rect x="13" y="101" width="90" height="45" fill="#030B17"/>
<rect x="19" y="111" width="32" height="4" fill="white"/>
<path d="M18.5 120.5H59" stroke="white"/>
<path d="M18.5 123H59" stroke="white"/>
<path d="M18.5 125.5H59" stroke="white"/>
<rect x="19" y="131" width="17" height="4" rx="2" fill="#61EDF5"/>
<path d="M83 111.625C78.5042 111.625 74.875 114.279 74.875 120.563C74.875 126.846 78.5042 134.375 83 134.375C87.4958 134.375 91.125 126.846 91.125 120.563C91.125 114.279 87.4958 111.625 83 111.625Z" fill="#FF3D00"/>
<path d="M89.4999 116.5C89.4999 116.5 89.1749 120.4 83.4333 123.542C83.7583 126.846 87.4958 128.2 87.4958 128.2L88.0916 127.604C93.9416 121.808 89.4999 116.5 89.4999 116.5ZM77.8541 127.55L78.4499 128.146C78.4499 128.146 82.1874 126.846 82.5124 123.487C76.8249 120.4 76.4999 116.5 76.4999 116.5C76.4999 116.5 72.0583 121.808 77.8541 127.55Z" fill="black"/>
<path d="M83.5958 123.867L88.4166 113.467C88.1458 113.25 87.8208 112.979 87.5499 112.817L82.9999 122.567L78.4499 112.817C78.1249 113.033 77.8541 113.25 77.5833 113.467L82.4041 123.867L78.6666 131.937C78.9374 132.262 79.2083 132.533 79.4791 132.804L82.9999 125.167L86.5208 132.75C86.7916 132.479 87.0624 132.208 87.3333 131.883L83.5958 123.867Z" fill="black"/>
<path d="M77.2583 119.696L76.7708 118.721C76.7708 118.721 78.8291 117.692 78.6124 116.013L78.5041 115.2L79.2624 115.417C81.4291 115.958 82.4583 114.604 82.4583 114.55L83.3249 115.2C83.2708 115.254 82.0791 116.933 79.6416 116.608C79.5333 118.613 77.3666 119.642 77.2583 119.696Z" fill="black"/>
<path d="M88.7417 119.696C88.6333 119.642 86.4667 118.613 86.25 116.608C83.8125 116.879 82.6208 115.254 82.5667 115.2L83.4333 114.55C83.4875 114.604 84.5167 115.958 86.6292 115.417L87.3875 115.2L87.3333 116.013C87.1167 117.692 89.175 118.721 89.175 118.721L88.7417 119.696Z" fill="black"/>
<path d="M83.5416 134.321C83.3791 134.321 83.1624 134.375 82.9999 134.375C82.8374 134.375 82.6208 134.375 82.4583 134.321V111.625C82.6208 111.625 82.8374 111.625 82.9999 111.625C83.1624 111.625 83.3791 111.625 83.5416 111.625V134.321Z" fill="black"/>
<path d="M82.4583 132.371C82.4583 132.371 81.7542 130.258 80.4 130.583L80.1833 129.5C82.0792 129.121 83.1625 130.963 83.5417 132.046L82.4583 132.371Z" fill="black"/>
<path d="M83.5416 132.371L82.4583 132.046C82.7833 131.017 83.9208 129.121 85.8166 129.5L85.5999 130.583C84.1916 130.258 83.5416 132.371 83.5416 132.371Z" fill="black"/>
<path d="M84.625 124.083C84.625 124.083 89.3375 121.375 89.6625 118.667C90.2041 120.346 90.5833 123.433 87.3333 126.792C84.8416 125.275 84.625 124.083 84.625 124.083ZM78.6666 126.792C75.4166 123.433 75.7958 120.346 76.3375 118.667C76.7166 121.375 81.375 124.083 81.375 124.083C81.375 124.083 81.1583 125.275 78.6666 126.792Z" fill="white"/>
<defs>
<linearGradient id="paint0_linear" x1="44" y1="17.5" x2="75.5" y2="17.5" gradientUnits="userSpaceOnUse">
<stop stop-color="#4388E2"/>
<stop offset="1" stop-color="#66FDF8"/>
</linearGradient>
</defs>
</svg>
