<svg width="20" height="20" viewBox="0 0 20 20" fill="none" xmlns="http://www.w3.org/2000/svg">
<path d="M14.608 12.1719C14.608 13.0119 14.847 13.3469 15.472 13.3469C16.865 13.3469 17.752 11.5719 17.752 8.61989C17.752 4.10789 14.464 1.94789 10.359 1.94789C6.13601 1.94789 2.29501 4.77989 2.29501 10.1319C2.29501 15.2439 5.65501 18.0279 10.815 18.0279C12.567 18.0279 13.743 17.8359 15.542 17.2359L15.928 18.8429C14.152 19.4199 12.254 19.5869 10.791 19.5869C4.02301 19.5869 0.39801 15.8669 0.39801 10.1309C0.39801 4.34689 4.59901 0.410889 10.383 0.410889C16.407 0.410889 19.598 4.01089 19.598 8.42689C19.598 12.1709 18.423 15.0269 14.727 15.0269C13.046 15.0269 11.943 14.3549 11.799 12.8659C11.367 14.5219 10.215 15.0269 8.65401 15.0269C6.56601 15.0269 4.81401 13.4179 4.81401 10.1789C4.81401 6.91489 6.35101 4.89889 9.11101 4.89889C10.575 4.89889 11.487 5.47489 11.893 6.38689L12.59 5.11489H14.606V12.1719H14.608ZM11.657 9.00389C11.657 7.68489 10.672 7.13189 9.85601 7.13189C8.96801 7.13189 7.98501 7.85089 7.98501 9.96389C7.98501 11.6439 8.72901 12.5799 9.85601 12.5799C10.648 12.5799 11.657 12.0759 11.657 10.6839V9.00389Z" fill="#ADB1B0"/>
</svg>
