<svg width="162" height="182" viewBox="0 0 162 182" fill="none" xmlns="http://www.w3.org/2000/svg">
<path d="M114.798 50.9265L109.94 48.1196V53.7333L114.798 50.9265Z" fill="white"/>
<path d="M124.935 50.9697L120.077 48.1628V53.7717L124.935 50.9697Z" fill="white"/>
<path d="M125.738 48H125.346V53.8528H125.738V48Z" fill="white"/>
<path d="M99.7977 50.9697L104.661 48.1628V53.7717L99.7977 50.9697Z" fill="white"/>
<path d="M99.3921 48H99V53.8528H99.3921V48Z" fill="white"/>
<path d="M54.275 0.498214C53.6247 0.426488 52.9744 0.359525 52.324 0.268673C49.9906 -0.0756079 42.7607 -0.376846 34.015 6.7622C23.6292 15.2593 22.5963 41.9602 18.5319 46.0246C14.4675 50.089 4.66503 48.358 3.80911 69.3879C2.95319 90.4177 7.70618 92.1774 2.02554 101.564C-3.6551 110.95 4.41638 120.351 4.41638 120.351C4.41638 120.351 1.10268 115.168 2.50371 111.428C2.50371 111.428 3.88084 119.682 9.12634 121.618C14.3718 123.555 15.1465 124.965 15.9881 127.81C15.9881 127.81 60.7302 104.882 60.7781 88.6007C60.8259 72.3191 69.5859 56.2287 65.2824 49.1853C65.2824 49.1853 67.1951 52.1977 67.4342 55.5497C67.4342 55.5497 70.0163 50.6102 65.5215 45.9863C61.0267 41.3624 70.7813 31.8612 69.3468 20.8299C68.4287 13.5665 64.4839 1.64104 54.275 0.498214Z" fill="black"/>
<path d="M58.8654 53.5317L69.2751 54.7415C71.9853 55.0566 74.5655 56.077 76.7584 57.7014L93.0161 69.7703L81.1719 84.9904L72.3784 79.2524L58.8654 53.5317Z" fill="#6C63FF"/>
<path opacity="0.2" d="M85.3797 79.6111L69.691 69.4309L72.3975 79.5776L81.191 84.9905L85.3797 79.6111Z" fill="black"/>
<path d="M134.981 93.7891L134.641 87.7733L115.701 86.004L92.2707 70.7844L81.9949 83.9914L107.572 100.541C108.493 101.16 109.565 101.515 110.673 101.569C111.781 101.623 112.883 101.373 113.86 100.847L134.981 93.7891Z" fill="#FC9D9D"/>
<path d="M35.1859 52.8527L22.1176 53.8091C19.4164 54.0099 16.9046 55.2694 15.1268 57.3126C13.3494 59.3558 12.4505 62.0183 12.626 64.7209C13.2046 73.7343 15.1364 88.7775 20.9748 110.027C21.2043 110.874 21.453 111.715 21.7303 112.552C22.2085 114.125 23.2078 118.29 21.8355 123.784C21.5056 125.123 21.1613 126.452 20.8792 127.796C19.4973 133.912 16.6187 150.748 16.0975 157.873L63.1158 156.859L76.4806 90.7236C76.4806 90.7236 78.1733 85.985 75.7777 79.9505C74.2953 76.2112 70.7234 72.2616 70.0635 68.2976L70.5417 55.0332L53.2894 52.6423L35.1859 52.8527Z" fill="#6C63FF"/>
<path opacity="0.2" d="M40.3598 64.8214L73.0761 88.376L77.0066 87.5296L76.8966 88.7107L73.0713 89.7292L46.6812 73.4715L33.4885 61.9668H33.5363C36.0104 62.346 38.3529 63.3262 40.3598 64.8214Z" fill="black"/>
<path d="M38.572 29.5613L35.2631 52.8337L36.9988 53.9C43.5784 57.7636 53.1322 58.8634 55.1262 53.0298L53.7825 37.1163L38.572 29.5613Z" fill="#FC9D9D"/>
<path opacity="0.15" d="M54.3123 42.6822C52.3996 43.5381 52.6243 43.9111 50.5491 43.7485L49.1146 43.6051C48.9381 43.597 48.7641 43.5616 48.5982 43.4999H48.4978C48.2396 43.4234 47.9813 43.3947 47.6753 43.3038C47.5749 43.3038 47.4697 43.2321 47.3693 43.2226C45.963 42.8434 44.6389 42.2079 43.4626 41.3481C43.4311 41.3175 43.3914 41.296 43.3479 41.286C43.3039 41.2764 43.2585 41.2764 43.214 41.286C43.1695 41.2946 43.126 41.3089 43.0849 41.329C43.0476 41.3529 43.0151 41.384 42.9893 41.4199C42.9333 41.494 42.9065 41.5858 42.9127 41.6781C42.9257 41.7694 42.9716 41.8531 43.0419 41.9124C44.5624 43.037 46.3077 43.8198 48.1583 44.2076C49.7668 45.7181 51.8225 46.6649 54.0158 46.9045C54.8861 47.0001 53.4516 46.9714 54.3218 46.8423L54.3123 42.6822Z" fill="black"/>
<path d="M62.7625 32.1626C63.2038 32.2606 63.6136 32.4667 63.956 32.7622C64.2979 33.0577 64.5618 33.4331 64.7229 33.8553C64.8908 34.2837 64.9534 34.7461 64.9047 35.2037C64.8492 35.6628 64.6852 36.1022 64.4265 36.4852C64.1778 36.8658 63.8398 37.1795 63.4415 37.3985C62.8461 37.7266 62.1485 37.8165 61.4891 37.6505C60.8297 37.4846 60.2583 37.0753 59.8887 36.5044" stroke="white" stroke-width="1.53" stroke-miterlimit="10" stroke-linecap="round"/>
<path d="M59.138 40.5829C58.0167 41.6206 56.7003 42.4249 55.2653 42.9494C53.8308 43.474 52.3059 43.7083 50.7796 43.6384L49.895 43.605C48.3758 43.5203 46.8892 43.1302 45.5245 42.4574C44.1517 41.7798 42.929 40.8335 41.9287 39.6744C40.9174 38.5039 40.1427 37.1478 39.6478 35.6817C39.1548 34.2027 38.9487 32.643 39.0405 31.0865L39.9969 14.4271C40.0294 13.9074 40.1595 13.3981 40.3794 12.9257C40.6046 12.459 40.9164 12.0387 41.2975 11.6872C41.6762 11.342 42.12 11.0757 42.6029 10.903C43.0806 10.7319 43.5879 10.6587 44.0948 10.6879L59.2766 11.5055C59.9365 11.5467 60.5815 11.7193 61.1735 12.0129C61.7655 12.307 62.2929 12.7167 62.7242 13.2174C63.6083 14.2464 64.0559 15.5791 63.9722 16.9328L63.0494 32.4015C62.8481 35.5306 61.4466 38.4613 59.138 40.5829Z" fill="#FC9D9D"/>
<path d="M131.374 158.624L133.324 163.697C133.549 164.237 134.391 166.15 134.577 166.705C134.73 167.183 135.419 167.546 135.883 167.728L154.053 175.182C155.664 175.761 157.049 176.837 158.008 178.257C158.84 179.51 159.146 180.854 157.051 181.227L124.617 180.925C124.014 180.921 123.419 180.791 122.868 180.543C122.318 180.299 121.825 179.94 121.42 179.491C121.016 179.046 120.709 178.52 120.518 177.946C120.328 177.373 120.258 176.77 120.314 176.168C120.491 174.618 120.825 173.093 121.308 171.611C121.639 170.559 121.724 169.444 121.557 168.354L121.193 164.883L131.374 158.624Z" fill="#FC9D9D"/>
<path opacity="0.15" d="M121.046 163.013L121.605 168.355C121.772 169.445 121.687 170.559 121.357 171.611C120.858 173.132 120.522 174.7 120.353 176.292C120.307 176.885 120.385 177.478 120.58 178.042C120.776 178.602 121.086 179.113 121.49 179.549C121.894 179.984 122.384 180.333 122.929 180.572C123.474 180.806 124.062 180.926 124.656 180.926L157.071 181.227C157.356 181.232 157.633 181.136 157.858 180.964C158.084 180.792 158.244 180.548 158.314 180.271L126.894 178.889C123.432 178.86 123.451 175.408 123.915 172.931C124.311 170.712 124.408 168.45 124.202 166.208L123.762 161.192" fill="black"/>
<path d="M149.531 173.15L154.045 175.168C155.665 175.752 157.06 176.832 158.028 178.257C158.86 179.51 159.166 180.854 157.072 181.227L124.638 180.925C124.037 180.93 123.443 180.806 122.893 180.562C122.344 180.323 121.85 179.969 121.445 179.529C121.04 179.084 120.731 178.563 120.54 177.994C120.349 177.425 120.279 176.823 120.334 176.225C120.506 174.657 120.841 173.112 121.333 171.611C121.521 171.003 121.628 170.377 121.649 169.741C148.183 178.453 149.531 173.15 149.531 173.15Z" fill="#6C63FF"/>
<path opacity="0.3" d="M158.582 180.313C158.415 180.739 157.965 181.069 157.085 181.226L124.651 180.925C123.96 180.925 123.278 180.762 122.664 180.447C122.05 180.127 121.521 179.668 121.122 179.103L158.582 180.313Z" fill="black"/>
<path opacity="0.15" d="M127.201 163.477C127.465 164.625 127.997 165.691 128.752 166.595C129.508 167.498 130.465 168.206 131.547 168.67L145.677 174.7C145.677 174.7 152.233 178.697 150.206 181.064H131.959L123.672 165.055L127.201 163.477Z" fill="black"/>
<path d="M52.6392 26.9697C52.6579 26.723 52.6029 26.4763 52.4819 26.2601C52.3609 26.0445 52.1788 25.869 51.9588 25.7561C51.7384 25.6433 51.4897 25.5979 51.2439 25.6256C50.9977 25.6533 50.7658 25.7533 50.5759 25.9125C50.3866 26.0717 50.2484 26.2831 50.1786 26.5207C50.1088 26.7584 50.1107 27.0109 50.1838 27.2476C50.257 27.4838 50.3985 27.6932 50.5903 27.8501C50.782 28.0064 51.0159 28.1025 51.2621 28.1269C51.5978 28.1546 51.9311 28.0485 52.1888 27.8319C52.447 27.6153 52.6086 27.3054 52.6392 26.9697Z" fill="black"/>
<path d="M52.2289 27.0745C52.2332 27.0238 52.2227 26.9727 52.1983 26.9282C52.1734 26.8833 52.1366 26.8469 52.0912 26.823C52.0462 26.7996 51.9951 26.7896 51.9444 26.7948C51.8937 26.8006 51.8459 26.8206 51.8067 26.8531C51.7675 26.8857 51.7388 26.9292 51.724 26.978C51.7096 27.0267 51.7096 27.0788 51.7244 27.1276C51.7397 27.1764 51.7689 27.2194 51.8081 27.252C51.8478 27.284 51.8956 27.3041 51.9468 27.3088C52.0147 27.3141 52.0826 27.2926 52.1352 27.2491C52.1878 27.2051 52.2212 27.1424 52.2289 27.0745Z" fill="white"/>
<path d="M62.3465 27.9451C62.3647 27.6983 62.3102 27.4516 62.1892 27.2355C62.0682 27.0198 61.886 26.8443 61.6656 26.7315C61.4456 26.6186 61.197 26.5732 60.9507 26.6009C60.705 26.6287 60.4726 26.7286 60.2832 26.8878C60.0939 27.0471 59.9557 27.2584 59.8859 27.4961C59.816 27.7337 59.818 27.9862 59.8911 28.2229C59.9643 28.4591 60.1058 28.6685 60.2976 28.8254C60.4893 28.9817 60.7226 29.0778 60.9694 29.1022C61.3051 29.13 61.6383 29.0238 61.8961 28.8072C62.1543 28.5906 62.3159 28.2807 62.3465 27.9451Z" fill="black"/>
<path d="M61.9386 27.9925C61.9458 27.9572 61.9449 27.9213 61.9372 27.8859C61.9291 27.851 61.9142 27.818 61.8927 27.7893C61.8712 27.7606 61.8444 27.7367 61.8129 27.7185C61.7818 27.7008 61.7474 27.6898 61.7115 27.6865C61.6761 27.6827 61.6398 27.6865 61.6058 27.6975C61.5719 27.7085 61.5403 27.7267 61.5135 27.7506C61.4868 27.774 61.4653 27.8032 61.4504 27.8362C61.4356 27.8687 61.4275 27.9041 61.427 27.9399C61.4203 27.9753 61.4208 28.0112 61.4289 28.0466C61.4366 28.0815 61.4519 28.1144 61.4734 28.1431C61.4944 28.1718 61.5217 28.1957 61.5528 28.2134C61.5838 28.2316 61.6183 28.2426 61.6541 28.2459C61.69 28.2498 61.7259 28.2459 61.7598 28.2349C61.7942 28.2239 61.8258 28.2058 61.8526 28.1819C61.8793 28.158 61.9009 28.1288 61.9157 28.0963C61.9305 28.0638 61.9382 28.0284 61.9386 27.9925Z" fill="white"/>
<path opacity="0.15" d="M38.5099 29.6523L40.2696 29.8293L37.9457 33.2482L38.5099 29.6523Z" fill="black"/>
<g opacity="0.15">
<path opacity="0.15" d="M57.125 32.3488C57.0629 32.54 56.9581 32.715 56.819 32.8604C56.6885 33.0086 56.5244 33.1234 56.3408 33.1951C56.1591 33.2697 55.9631 33.3022 55.767 33.2907H54.0887C54.037 33.3051 53.9825 33.3051 53.9309 33.2907C53.8802 33.2793 53.8328 33.2563 53.7922 33.2238C53.7525 33.1889 53.72 33.1468 53.6966 33.0995C53.6717 33.0507 53.6583 32.9967 53.6583 32.9417C53.6554 32.8891 53.6655 32.8365 53.687 32.7887C53.7052 32.738 53.7348 32.6926 53.7731 32.6548C53.8113 32.6161 53.8591 32.5883 53.9117 32.5735C53.962 32.561 54.0146 32.561 54.0648 32.5735H55.7431C55.8416 32.574 55.9392 32.5544 56.03 32.5161C56.1228 32.4745 56.2069 32.4162 56.2787 32.344C56.3494 32.2713 56.4049 32.1852 56.4413 32.0905C56.4795 31.9949 56.4991 31.8926 56.4986 31.7893C56.49 31.5837 56.4068 31.3881 56.2643 31.2394C56.1304 31.0883 55.944 30.9941 55.7431 30.9764C55.6614 30.9582 55.5882 30.9147 55.5327 30.8521C55.4773 30.7861 55.4452 30.7039 55.4419 30.6178C55.4352 30.5322 55.4581 30.4471 55.5069 30.3763C55.5557 30.306 55.6274 30.2544 55.7096 30.2305C55.9067 30.2362 56.1003 30.2811 56.2796 30.3634C56.4585 30.4456 56.6191 30.5633 56.7521 30.7086C57.0313 31.0003 57.1858 31.39 57.1824 31.7941C57.2011 31.981 57.1815 32.1694 57.125 32.3488Z" fill="black"/>
</g>
<path opacity="0.2" d="M13.228 71.53C14.2226 80.5244 16.3552 93.1241 20.7974 109.41C21.0987 110.505 21.4286 111.591 21.7538 112.672C22.2606 114.317 23.1883 118.41 21.8255 123.803C21.4955 125.142 21.1513 126.472 20.8691 127.815C19.4872 133.931 16.6087 150.767 16.0875 157.892L38.1788 156.343L36.5961 126.362C29.2323 130.445 29.0411 128.384 28.6681 126.515C28.4529 125.463 28.9406 124.482 29.3471 123.493C31.1259 119.151 29.7392 115.842 28.8689 112.657C27.2336 106.565 18.3492 84.0819 17.2399 77.8801L13.228 71.53Z" fill="black"/>
<path d="M48.5233 21.2315C46.6393 23.082 44.478 24.5787 42.1397 24.9899C34.489 26.3814 31.3857 24.1387 31.3857 24.1387C31.3857 24.1387 37.4728 18.9602 39.2373 11.0656C39.2373 11.0656 46.099 3.57752 55.495 9.63113C56.7382 8.71305 59.8941 8.12491 62.4141 11.6729C66.1964 16.9854 63.8486 25.2768 63.8486 25.2768C62.1367 25.3533 59.1721 22.5178 58.4835 19.6201C57.9767 17.4874 55.9827 15.2066 54.9594 14.1498L48.5233 21.2315Z" fill="black"/>
<path d="M43.6444 180.729C43.6444 180.729 62.5847 182.757 71.426 177.32C73.2478 176.196 74.8544 174.762 75.696 172.796L87.4876 133.319L113.309 151.704L121.117 166.188L133.626 160.79L103.908 94.0374L68.6765 100.215L43.6444 180.729Z" fill="#21252B"/>
<path opacity="0.3" d="M43.6444 180.729C43.6444 180.729 61.9104 182.757 71.426 177.32C73.3047 176.32 74.8042 174.728 75.696 172.796L87.4876 133.319L113.309 151.704L121.117 166.188L133.626 160.79L103.908 94.0374L68.6765 100.215L43.6444 180.729Z" fill="black"/>
<path d="M121.222 158.624L123.178 163.697C123.402 164.237 124.244 166.15 124.426 166.705C124.579 167.183 125.267 167.546 125.736 167.728L143.906 175.182C145.519 175.761 146.905 176.837 147.865 178.257C148.693 179.51 149.003 180.854 146.909 181.227L114.475 180.925C113.872 180.921 113.276 180.791 112.725 180.548C112.175 180.299 111.681 179.94 111.277 179.491C110.872 179.046 110.565 178.52 110.375 177.946C110.184 177.373 110.115 176.77 110.171 176.168C110.347 174.618 110.681 173.093 111.166 171.611C111.494 170.559 111.579 169.444 111.415 168.354L111.051 164.883L121.222 158.624Z" fill="#FC9D9D"/>
<path opacity="0.15" d="M110.918 163.013L111.478 168.355C111.642 169.445 111.557 170.559 111.229 171.611C110.729 173.132 110.392 174.7 110.225 176.292C110.18 176.885 110.257 177.478 110.453 178.042C110.649 178.602 110.959 179.113 111.363 179.549C111.767 179.984 112.257 180.333 112.802 180.572C113.347 180.806 113.935 180.926 114.529 180.926L146.944 181.227C147.228 181.232 147.505 181.136 147.731 180.964C147.956 180.792 148.117 180.548 148.187 180.271L116.766 178.889C113.3 178.86 113.324 175.408 113.783 172.931C114.184 170.712 114.28 168.45 114.07 166.208L113.634 161.192" fill="black"/>
<path d="M139.378 173.15L143.897 175.168C145.517 175.752 146.91 176.832 147.88 178.257C148.707 179.51 149.018 180.854 146.923 181.227L114.489 180.925C113.889 180.93 113.295 180.806 112.745 180.562C112.196 180.323 111.702 179.969 111.297 179.529C110.892 179.084 110.584 178.563 110.392 177.994C110.201 177.425 110.13 176.823 110.186 176.225C110.358 174.657 110.693 173.112 111.185 171.611C111.372 171.003 111.476 170.377 111.496 169.741C138.034 178.453 139.378 173.15 139.378 173.15Z" fill="#6C63FF"/>
<path opacity="0.3" d="M148.43 180.313C148.263 180.739 147.818 181.069 146.938 181.226L114.504 180.925C113.812 180.93 113.13 180.762 112.514 180.447C111.9 180.131 111.37 179.668 110.97 179.103L148.43 180.313Z" fill="black"/>
<path d="M13.8741 75.5178L36.7066 88.5431L47.5323 72.3046L30.4474 59.9583L12.8604 66.3848L13.8741 75.5178Z" fill="#6C63FF"/>
<path d="M60.5529 32.2533C59.8839 32.2337 59.226 32.0812 58.6168 31.8043C58.0076 31.5275 57.4596 31.1325 57.0049 30.6419C56.0724 29.6363 55.5699 28.3065 55.6038 26.9361C55.6239 26.1428 55.82 25.3634 56.1776 24.6552C55.7387 24.5352 55.2806 24.5027 54.8292 24.5596C54.9148 24.9541 54.9612 25.3562 54.9679 25.7598V25.8602C54.9291 27.2307 54.3639 28.5342 53.3899 29.4991C52.9151 29.9696 52.3513 30.3412 51.7316 30.5917C51.1114 30.8423 50.4482 30.9666 49.7797 30.9575C49.4355 30.9675 49.0917 30.9341 48.7565 30.8571C47.7973 30.6381 46.9251 30.1389 46.2509 29.4226C45.5642 28.7077 45.0989 27.8092 44.912 26.8357C44.8293 26.4508 44.7925 26.0577 44.802 25.6642C44.825 24.8456 45.0325 24.0432 45.4093 23.3164C45.7866 22.5934 46.3288 21.9694 46.992 21.4946C47.858 20.8567 48.9095 20.521 49.9854 20.5382C50.332 20.5382 50.6782 20.5731 51.0182 20.6434C51.1913 20.6826 51.362 20.7319 51.5298 20.7916C52.1687 21.014 52.7559 21.364 53.256 21.8197C53.6869 22.2128 54.0479 22.6771 54.3223 23.1921C55.1988 23.007 56.1102 23.0854 56.9427 23.4168C57.5509 22.7541 58.3198 22.2601 59.1757 21.9823C59.6879 21.8216 60.2215 21.738 60.7585 21.7336C62.1265 21.803 63.4137 22.4036 64.3457 23.4072C65.2781 24.4109 65.7821 25.7388 65.7506 27.1083C65.7204 28.2157 65.3441 29.2858 64.6747 30.1685C64.0196 31.0436 63.101 31.6857 62.0543 31.9999C61.6574 32.1237 61.2457 32.1945 60.8302 32.2103L60.5529 32.2533ZM59.3814 22.69C58.5694 22.9487 57.8483 23.433 57.3013 24.0862L57.1866 24.2249H57.2487L57.0192 24.5931C56.4904 25.4414 56.2551 26.4403 56.3493 27.4353C56.4435 28.4304 56.8619 29.3671 57.5404 30.1016C57.9282 30.5205 58.3954 30.8576 58.9151 31.0943C59.4349 31.3305 59.9963 31.4615 60.5672 31.4787C60.9933 31.4825 61.4179 31.4199 61.8248 31.2922C62.7257 31.0221 63.5165 30.4707 64.0817 29.7191C64.6584 28.9573 64.9826 28.0345 65.0094 27.0796C65.0295 26.3188 64.8569 25.5652 64.5073 24.8895C64.0425 23.9753 63.2751 23.2504 62.3364 22.8382C61.832 22.6082 61.2883 22.4767 60.7346 22.4509H60.5863C60.1746 22.4853 59.7696 22.5738 59.3814 22.7139V22.69ZM53.9159 24.0432L53.782 23.7659C53.5377 23.2327 53.1876 22.7545 52.7539 22.36C52.325 21.967 51.8206 21.6662 51.2716 21.4754C51.1354 21.4272 50.9962 21.3875 50.8556 21.3559C50.5616 21.2947 50.2617 21.2641 49.9614 21.2651C49.0438 21.2383 48.1439 21.5175 47.4033 22.0588C46.8314 22.4676 46.3628 23.0046 46.0357 23.6272C45.7115 24.2598 45.535 24.9579 45.5193 25.669C45.5097 26.0061 45.5417 26.3437 45.6149 26.6731C45.7756 27.5118 46.1739 28.2869 46.7625 28.9062C47.3435 29.5134 48.0899 29.9376 48.9095 30.1255C49.1902 30.1891 49.4775 30.2163 49.7654 30.2068C50.3397 30.2163 50.9101 30.1107 51.4433 29.8964C51.976 29.6822 52.4608 29.3633 52.8687 28.9588C53.7112 28.1244 54.2009 26.9978 54.2363 25.8124V25.7503C54.2296 25.2759 54.1588 24.8044 54.0259 24.3492L53.9302 24.0384L53.9159 24.0432Z" fill="white"/>
<path d="M37.892 92.7705C37.6247 92.7705 37.3627 92.6912 37.1403 92.5424C36.918 92.3937 36.7444 92.1824 36.6421 91.9352C36.5393 91.688 36.5125 91.4159 36.5651 91.1534C36.6172 90.8908 36.7458 90.6499 36.9352 90.4605C37.1245 90.2711 37.3655 90.142 37.628 90.0899C37.8906 90.0378 38.1626 90.0646 38.4099 90.1669C38.6571 90.2692 38.8684 90.4428 39.0171 90.6656C39.1658 90.888 39.2452 91.1495 39.2452 91.4173C39.2452 91.7759 39.1027 92.1202 38.8488 92.3741C38.5954 92.628 38.2511 92.7705 37.892 92.7705ZM37.892 90.3797C37.6902 90.3787 37.4927 90.4375 37.3244 90.5494C37.1561 90.6608 37.0251 90.8196 36.9471 91.0061C36.8697 91.1926 36.8491 91.3977 36.8883 91.5957C36.9275 91.7936 37.0246 91.9753 37.1671 92.1183C37.3101 92.2608 37.4918 92.3583 37.6897 92.3971C37.8877 92.4363 38.0928 92.4157 38.2793 92.3383C38.4658 92.2603 38.6246 92.1293 38.736 91.961C38.8479 91.7927 38.9067 91.5952 38.9057 91.3934C38.8995 91.1285 38.79 90.877 38.6006 90.6919C38.4113 90.5069 38.1569 90.4036 37.892 90.4036V90.3797Z" fill="white"/>
<path d="M39.6712 30.1254C39.6712 30.1254 34.1436 30.5319 33.0725 24.8656C32.0014 19.1993 38.7819 18.2764 39.6473 23.9666L40.2785 30.1828L39.6712 30.1254Z" fill="#FC9D9D"/>
<path d="M63.9394 77.8899C63.6716 77.8899 63.4101 77.8105 63.1877 77.6618C62.9649 77.5131 62.7913 77.3018 62.689 77.0545C62.5867 76.8073 62.5599 76.5353 62.612 76.2727C62.6641 76.0102 62.7932 75.7688 62.9826 75.5799C63.1719 75.3905 63.4129 75.2614 63.6755 75.2093C63.938 75.1572 64.21 75.184 64.4572 75.2863C64.7045 75.3886 64.9158 75.5622 65.0645 75.7845C65.2132 76.0074 65.2926 76.2689 65.2926 76.5367C65.2926 76.8953 65.1501 77.2396 64.8962 77.4935C64.6423 77.7474 64.298 77.8899 63.9394 77.8899ZM63.9394 75.4991C63.7381 75.4991 63.5411 75.5588 63.3737 75.6707C63.2059 75.7826 63.0753 75.9414 62.9984 76.1279C62.9214 76.3139 62.9013 76.5185 62.9405 76.716C62.9797 76.9135 63.0768 77.0952 63.2193 77.2377C63.3618 77.3802 63.543 77.4773 63.7405 77.5165C63.9384 77.5557 64.1431 77.5356 64.3291 77.4586C64.5151 77.3812 64.6743 77.2506 64.7862 77.0832C64.8981 76.9159 64.9579 76.7189 64.9579 76.5176C64.9526 76.2508 64.8431 75.9964 64.6528 75.8094C64.4625 75.6229 64.2062 75.5182 63.9394 75.5182V75.4991Z" fill="white"/>
<path d="M81.8706 78.5449C81.6028 78.5449 81.3412 78.4656 81.1189 78.3169C80.896 78.1682 80.7225 77.9568 80.6201 77.7096C80.5178 77.4624 80.491 77.1903 80.5432 76.9278C80.5953 76.6653 80.7244 76.4243 80.9137 76.2349C81.1031 76.0456 81.3441 75.9164 81.6066 75.8643C81.8691 75.8122 82.1412 75.839 82.3884 75.9413C82.6356 76.0436 82.847 76.2172 82.9957 76.4401C83.1444 76.6624 83.2238 76.9239 83.2238 77.1917C83.2238 77.5503 83.0813 77.8946 82.8274 78.1486C82.5735 78.4025 82.2292 78.5449 81.8706 78.5449ZM81.8706 76.178C81.6702 76.178 81.4741 76.2373 81.3073 76.3487C81.1404 76.4601 81.0108 76.6184 80.9338 76.8039C80.8573 76.989 80.8372 77.1927 80.8764 77.3892C80.9152 77.5862 81.0118 77.7665 81.1538 77.9085C81.2953 78.05 81.4761 78.1466 81.6726 78.1858C81.8696 78.2251 82.0733 78.205 82.2583 78.128C82.4439 78.0515 82.6022 77.9214 82.7136 77.755C82.825 77.5881 82.8843 77.3921 82.8843 77.1917C82.879 76.9263 82.77 76.6734 82.5806 76.4874C82.3913 76.3014 82.1359 76.1971 81.8706 76.1971V76.178Z" fill="white"/>
<path d="M21.3148 60.9719C21.0476 60.9719 20.7855 60.8926 20.5632 60.7439C20.3408 60.5952 20.1673 60.3838 20.0649 60.1366C19.9621 59.8894 19.9353 59.6173 19.9879 59.3548C20.0401 59.0923 20.1687 58.8513 20.358 58.6619C20.5474 58.4726 20.7884 58.3434 21.0509 58.2913C21.3134 58.2392 21.5855 58.266 21.8327 58.3683C22.0799 58.4706 22.2913 58.6442 22.44 58.8671C22.5887 59.0894 22.6681 59.3509 22.6681 59.6187C22.6681 59.9773 22.5256 60.3216 22.2717 60.5756C22.0182 60.8295 21.674 60.9719 21.3148 60.9719ZM21.3148 58.5811C21.1145 58.5811 20.9185 58.6404 20.7516 58.7518C20.5852 58.8632 20.4551 59.0215 20.3786 59.207C20.3016 59.3921 20.2815 59.5958 20.3207 59.7923C20.36 59.9893 20.4565 60.1696 20.5981 60.3116C20.7401 60.4531 20.9204 60.5497 21.1174 60.5889C21.3139 60.6281 21.5176 60.6081 21.7031 60.5311C21.8882 60.4546 22.0464 60.3245 22.1579 60.1581C22.2693 59.9912 22.3286 59.7952 22.3286 59.5948C22.3223 59.3299 22.2128 59.0784 22.0235 58.8934C21.8341 58.7083 21.5798 58.605 21.3148 58.605V58.5811Z" fill="white"/>
<path d="M33.4932 73.4905C33.2255 73.4905 32.9639 73.4111 32.7416 73.2624C32.5187 73.1137 32.3456 72.9023 32.2428 72.6551C32.1405 72.4074 32.1137 72.1354 32.1658 71.8729C32.2184 71.6103 32.3471 71.3694 32.5364 71.18C32.7258 70.9911 32.9668 70.862 33.2293 70.8099C33.4918 70.7578 33.7639 70.7845 34.0111 70.8869C34.2583 70.9892 34.4697 71.1628 34.6184 71.3851C34.7671 71.6079 34.8465 71.8695 34.8465 72.1368C34.8465 72.4959 34.704 72.8402 34.45 73.0941C34.1961 73.3475 33.8523 73.4905 33.4932 73.4905ZM33.4932 71.1231C33.2929 71.1231 33.0968 71.1829 32.93 71.2943C32.7636 71.4057 32.6335 71.564 32.5565 71.749C32.48 71.9346 32.4599 72.1382 32.4991 72.3348C32.5383 72.5313 32.6344 72.712 32.7765 72.8541C32.918 72.9956 33.0987 73.0922 33.2953 73.1314C33.4923 73.1706 33.696 73.1505 33.881 73.0735C34.0666 72.997 34.2248 72.867 34.3362 72.7001C34.4477 72.5337 34.507 72.3376 34.507 72.1368C34.507 71.8681 34.4003 71.6103 34.21 71.42C34.0197 71.2302 33.762 71.1231 33.4932 71.1231Z" fill="white"/>
<path d="M37.8839 34.008H37.9365C38.495 33.9712 39.0334 33.7847 39.4953 33.4677C39.9558 33.1473 40.325 32.7122 40.5664 32.2053C40.609 32.1188 40.6152 32.0183 40.5836 31.927C40.5521 31.8352 40.4856 31.7601 40.3991 31.7176C40.3121 31.675 40.2121 31.6688 40.1203 31.7004C40.029 31.7319 39.9539 31.7984 39.9114 31.8849C39.7234 32.2785 39.437 32.616 39.0793 32.8652C38.7317 33.1052 38.3257 33.2458 37.9045 33.2721C37.4832 33.2979 37.0624 33.209 36.6885 33.0134C36.3069 32.8112 35.987 32.5109 35.7608 32.1432C35.5351 31.7687 35.4099 31.3422 35.3974 30.9047C35.3864 30.4657 35.4888 30.0311 35.6939 29.6423C35.9014 29.2617 36.2046 28.9418 36.5737 28.7147C36.9362 28.4914 37.3527 28.3709 37.7787 28.3656C37.827 28.3666 37.8748 28.3575 37.9198 28.3389C37.9642 28.3207 38.0049 28.2934 38.0388 28.259C38.0728 28.2245 38.0996 28.1839 38.1173 28.139C38.1349 28.094 38.1431 28.0457 38.1421 27.9974C38.1407 27.9008 38.1015 27.8081 38.0326 27.7402C37.9638 27.6723 37.8705 27.634 37.7739 27.634C37.2121 27.645 36.6646 27.8105 36.1912 28.1122C35.7106 28.4005 35.3123 28.807 35.034 29.2933C34.7701 29.7958 34.6386 30.3567 34.6515 30.9238C34.6711 31.4885 34.8356 32.0384 35.1297 32.5209C35.4223 33.0015 35.8407 33.3936 36.3394 33.6542C36.8133 33.9085 37.3464 34.0309 37.8839 34.008Z" fill="white"/>
<path opacity="0.15" d="M34.5973 22.3937C34.5686 22.3081 34.5686 22.2158 34.5973 22.1307C34.626 22.0471 34.6796 21.9734 34.7503 21.9203C34.9837 21.7343 35.2543 21.6009 35.5441 21.5282C35.8305 21.4575 36.1284 21.446 36.4191 21.4948C36.708 21.5655 36.9767 21.7033 37.2033 21.8964C37.4372 22.0877 37.6265 22.3273 37.758 22.5993C38.1472 23.2707 38.3409 24.0377 38.3175 24.8133V25.4062C38.3414 25.8365 37.5906 25.9848 37.5906 25.4444L37.5524 24.7941C37.5481 24.1606 37.396 23.5366 37.1077 22.9723C37.0197 22.7916 36.8983 22.629 36.7491 22.4941C36.6042 22.3569 36.4311 22.2522 36.2422 22.1881C36.0419 22.1623 35.8382 22.1766 35.6435 22.2311C35.4489 22.2852 35.2672 22.3779 35.109 22.5037C35.0267 22.552 34.9301 22.5687 34.8364 22.5515C34.7403 22.5324 34.6547 22.4779 34.5973 22.3985V22.3937Z" fill="black"/>
<path d="M28.0805 113.069C27.8127 113.069 27.5512 112.989 27.3284 112.841C27.106 112.692 26.9324 112.48 26.8301 112.233C26.7278 111.986 26.701 111.714 26.7531 111.451C26.8052 111.189 26.9343 110.948 27.1237 110.759C27.3126 110.569 27.5541 110.441 27.8166 110.388C28.0791 110.336 28.3511 110.363 28.5984 110.465C28.8456 110.568 29.0569 110.741 29.2056 110.964C29.3544 111.186 29.4337 111.448 29.4337 111.715C29.4337 111.893 29.3983 112.069 29.3304 112.233C29.2625 112.397 29.1631 112.546 29.0373 112.672C28.9116 112.798 28.7624 112.897 28.5984 112.966C28.4339 113.034 28.2579 113.069 28.0805 113.069ZM28.0805 110.678C27.8797 110.678 27.6841 110.737 27.5172 110.848C27.3503 110.96 27.2208 111.118 27.1438 111.304C27.0673 111.489 27.0472 111.692 27.0859 111.889C27.1251 112.086 27.2217 112.267 27.3637 112.408C27.5053 112.55 27.686 112.647 27.8826 112.686C28.0791 112.725 28.2833 112.705 28.4683 112.628C28.6534 112.551 28.8116 112.421 28.923 112.255C29.0345 112.088 29.0942 111.892 29.0942 111.691C29.088 111.427 28.9785 111.175 28.7887 110.99C28.5993 110.805 28.3449 110.702 28.0805 110.702V110.678Z" fill="white"/>
<path d="M21.3148 92.7705C21.0476 92.7705 20.7855 92.6912 20.5632 92.5424C20.3408 92.3937 20.1673 92.1824 20.0649 91.9352C19.9621 91.688 19.9353 91.4159 19.9879 91.1534C20.0401 90.8908 20.1687 90.6499 20.358 90.4605C20.5474 90.2711 20.7884 90.142 21.0509 90.0899C21.3134 90.0378 21.5855 90.0646 21.8327 90.1669C22.0799 90.2692 22.2913 90.4428 22.44 90.6656C22.5887 90.888 22.6681 91.1495 22.6681 91.4173C22.6681 91.7759 22.5256 92.1202 22.2717 92.3741C22.0182 92.628 21.674 92.7705 21.3148 92.7705ZM21.3148 90.3797C21.1131 90.3787 20.9156 90.4375 20.7473 90.5494C20.579 90.6608 20.4479 90.8196 20.37 91.0061C20.2925 91.1926 20.272 91.3977 20.3112 91.5957C20.3504 91.7936 20.4475 91.9753 20.5899 92.1183C20.7329 92.2608 20.9146 92.3583 21.1126 92.3971C21.3105 92.4363 21.5157 92.4157 21.7022 92.3383C21.8886 92.2603 22.0474 92.1293 22.1588 91.961C22.2707 91.7927 22.3295 91.5952 22.3286 91.3934C22.3223 91.1285 22.2128 90.877 22.0235 90.6919C21.8341 90.5069 21.5798 90.4036 21.3148 90.4036V90.3797Z" fill="white"/>
<path d="M48.7181 62.6648C48.4503 62.6648 48.1887 62.5854 47.9664 62.4367C47.7436 62.288 47.57 62.0767 47.4677 61.8295C47.3653 61.5822 47.3386 61.3102 47.3907 61.0476C47.4428 60.7851 47.5719 60.5441 47.7613 60.3548C47.9506 60.1654 48.1916 60.0363 48.4541 59.9842C48.7167 59.9321 48.9887 59.9588 49.2359 60.0612C49.4831 60.1635 49.6945 60.3371 49.8432 60.5599C49.9919 60.7823 50.0713 61.0438 50.0713 61.3116C50.0713 61.6702 49.9288 62.0145 49.6749 62.2684C49.421 62.5223 49.0767 62.6648 48.7181 62.6648ZM48.7181 60.2979C48.5177 60.2941 48.3207 60.35 48.1519 60.4581C47.9831 60.5661 47.8502 60.722 47.7699 60.9061C47.69 61.0897 47.6661 61.2929 47.7015 61.4904C47.7369 61.6879 47.8296 61.8701 47.9688 62.0145C48.1079 62.1589 48.2868 62.2588 48.4823 62.3019C48.6784 62.3444 48.8826 62.3282 49.0691 62.255C49.256 62.1818 49.4167 62.0551 49.531 61.8907C49.6457 61.7257 49.7088 61.5311 49.7127 61.3307C49.7165 61.062 49.6142 60.8028 49.4277 60.6096C49.2417 60.416 48.9863 60.3041 48.7181 60.2979Z" fill="white"/>
<path d="M48.3784 107.321C48.1106 107.321 47.849 107.241 47.6267 107.093C47.4039 106.944 47.2308 106.733 47.1279 106.485C47.0256 106.238 46.9989 105.966 47.051 105.703C47.1031 105.441 47.2322 105.2 47.4215 105.01C47.6109 104.821 47.8519 104.692 48.1144 104.64C48.3769 104.588 48.649 104.615 48.8962 104.717C49.1434 104.82 49.3548 104.993 49.5035 105.215C49.6522 105.438 49.7316 105.7 49.7316 105.967C49.7316 106.326 49.5891 106.671 49.3352 106.924C49.0813 107.178 48.737 107.321 48.3784 107.321ZM48.3784 104.93C48.1766 104.929 47.9791 104.988 47.8113 105.099C47.6429 105.21 47.5119 105.369 47.434 105.555C47.356 105.741 47.3355 105.946 47.3742 106.144C47.4129 106.342 47.5095 106.524 47.6515 106.667C47.794 106.81 47.9753 106.907 48.1732 106.947C48.3707 106.987 48.5758 106.967 48.7623 106.89C48.9483 106.813 49.108 106.682 49.2199 106.515C49.3323 106.347 49.3921 106.15 49.3921 105.948C49.3883 105.682 49.2797 105.428 49.0899 105.241C48.9005 105.054 48.6447 104.949 48.3784 104.949V104.93Z" fill="white"/>
<path opacity="0.15" d="M91.2889 83.5848L107.618 80.7637L109.89 82.4564L96.0993 86.8221L91.2889 83.5848Z" fill="black"/>
<path d="M30.109 133.706C29.8412 133.706 29.5796 133.627 29.3573 133.478C29.1344 133.329 28.9609 133.118 28.8585 132.871C28.7562 132.624 28.7294 132.352 28.7816 132.089C28.8337 131.826 28.9628 131.585 29.1521 131.396C29.3415 131.207 29.5825 131.078 29.845 131.026C30.1075 130.973 30.3796 131 30.6268 131.103C30.874 131.205 31.0854 131.379 31.2341 131.601C31.3828 131.824 31.4622 132.085 31.4622 132.353C31.4622 132.712 31.3197 133.056 31.0658 133.31C30.8119 133.564 30.4676 133.706 30.109 133.706ZM30.109 131.315C29.9086 131.315 29.7126 131.375 29.5457 131.486C29.3788 131.597 29.2492 131.756 29.1722 131.941C29.0957 132.126 29.0756 132.33 29.1148 132.527C29.1536 132.724 29.2502 132.904 29.3922 133.046C29.5337 133.188 29.7145 133.284 29.911 133.323C30.108 133.362 30.3117 133.342 30.4967 133.266C30.6823 133.189 30.8406 133.059 30.952 132.892C31.0634 132.725 31.1227 132.529 31.1227 132.329C31.115 132.065 31.005 131.814 30.8162 131.629C30.6268 131.444 30.3734 131.341 30.109 131.339V131.315Z" fill="white"/>
<path d="M71.0442 61.3311C70.7769 61.3311 70.5149 61.2517 70.2925 61.103C70.0702 60.9543 69.8966 60.7429 69.7943 60.4957C69.6915 60.2485 69.6647 59.9764 69.7173 59.7139C69.7694 59.4514 69.898 59.2104 70.0874 59.021C70.2768 58.8317 70.5178 58.7026 70.7803 58.6505C71.0428 58.5983 71.3149 58.6251 71.5621 58.7274C71.8093 58.8298 72.0206 59.0034 72.1693 59.2262C72.3181 59.4485 72.3974 59.7101 72.3974 59.9779C72.3974 60.3365 72.2549 60.6808 72.001 60.9347C71.7476 61.1886 71.4033 61.3311 71.0442 61.3311ZM71.0442 58.9402C70.8439 58.9402 70.6478 58.9995 70.4809 59.1109C70.3145 59.2224 70.1845 59.3806 70.108 59.5662C70.031 59.7512 70.0109 59.9549 70.0501 60.1514C70.0893 60.3484 70.1859 60.5287 70.3274 60.6707C70.4695 60.8123 70.6497 60.9088 70.8467 60.9481C71.0433 60.9873 71.247 60.9672 71.4325 60.8902C71.6175 60.8137 71.7758 60.6836 71.8872 60.5172C71.9986 60.3503 72.0579 60.1543 72.0579 59.9539C72.0579 59.6852 71.9513 59.427 71.761 59.2372C71.5712 59.0469 71.3129 58.9402 71.0442 58.9402Z" fill="white"/>
<path d="M56.4779 35.4568C56.5157 35.4601 56.552 35.4735 56.5831 35.495C56.6132 35.5165 56.6376 35.5443 56.6548 35.5763C56.6744 35.6093 56.683 35.648 56.6787 35.6863C56.6826 35.7245 56.674 35.7628 56.6548 35.7963C56.3029 36.3835 55.7927 36.8592 55.1821 37.1686C54.5834 37.4799 53.9068 37.6076 53.2359 37.5368C52.5612 37.4699 51.92 37.2093 51.3902 36.7861C50.8589 36.3581 50.4583 35.7901 50.233 35.146C50.1996 34.9834 50.2617 34.8304 50.4673 34.8543L56.4779 35.4568Z" fill="white"/>
<path d="M62.3131 95.2136L56.8859 100.206C42.0626 113.929 29.7355 133.582 18.9815 150.691C15.6147 155.984 14.3552 162.344 15.4526 168.522C16.189 172.486 17.9486 176.454 21.7357 178.879C23.3973 179.921 25.278 180.567 27.2299 180.758C30.8831 181.145 42.3591 182.192 47.8724 180.897L78.9963 121.695L111.134 169.033L124.327 163.295L91.51 90.2358L62.3131 95.2136Z" fill="#21252B"/>
<path opacity="0.15" d="M113.519 100.837L134.979 93.7888L134.759 89.8917L134.639 89.7296L111.687 95.415C111.159 95.6426 110.582 95.7325 110.01 95.6756C109.438 95.6187 108.89 95.4169 108.417 95.0894L85.3929 79.6111L81.9835 83.9916L107.236 100.541C108.157 101.158 109.229 101.512 110.336 101.564C111.443 101.616 112.544 101.365 113.519 100.837Z" fill="black"/>
<path d="M133.741 93.7888L157.726 86.0042C158.057 86.0094 158.377 85.8827 158.616 85.6527C158.854 85.4223 158.991 85.1067 158.998 84.7753V60.69C158.991 60.3586 158.854 60.043 158.616 59.813C158.377 59.5825 158.057 59.4558 157.726 59.4611L133.741 66.5619C133.408 66.5566 133.087 66.6838 132.848 66.9153C132.608 67.1462 132.471 67.4628 132.464 67.7956V92.5551C132.471 92.8879 132.608 93.2045 132.848 93.4359C133.087 93.6669 133.408 93.794 133.741 93.7888Z" fill="#21252B"/>
<path d="M135.195 93.7886L158.148 86.004C158.474 86.004 158.786 85.8744 159.017 85.644C159.247 85.4135 159.376 85.1008 159.376 84.7752V60.6898C159.376 60.3637 159.247 60.051 159.017 59.821C158.786 59.5905 158.474 59.4609 158.148 59.4609L135.195 66.5617C134.869 66.5627 134.556 66.6932 134.325 66.9242C134.094 67.1556 133.963 67.4683 133.962 67.7954V92.5549C133.963 92.8815 134.094 93.1947 134.325 93.4257C134.556 93.6566 134.869 93.7872 135.195 93.7886Z" fill="#3F4249"/>
<path d="M148.976 76.3762C149.013 74.9747 148.188 73.8161 147.135 73.7888C146.082 73.7616 145.198 74.8762 145.162 76.2777C145.126 77.6797 145.95 78.8383 147.003 78.865C148.057 78.8923 148.94 77.7782 148.976 76.3762Z" fill="#DADDDF"/>
<path d="M148.156 78.5011C147.925 78.2816 147.619 78.1597 147.3 78.1616H146.707V78.1281C146.81 77.9598 146.863 77.7661 146.861 77.5691C146.858 77.3721 146.801 77.1799 146.695 77.014C146.589 76.848 146.438 76.7151 146.26 76.6305C146.082 76.5458 145.884 76.5133 145.689 76.5358L139.922 77.1431H133.758C133.239 77.1488 132.723 77.0565 132.238 76.8705C129.986 75.9811 132.668 74.6088 132.668 74.6088V71.9023L127.012 73.3368C126.281 73.5119 125.596 73.8375 124.998 74.2932L118.624 79.1944L72.9594 89.3077L46.794 73.289L37.7997 87.1559L68.0103 104.705C68.8194 105.176 69.7217 105.464 70.6541 105.551C71.5866 105.638 72.5266 105.52 73.4089 105.207L121.101 88.3561L132.491 87.9688H143.652C144.106 87.8206 144.13 87.5337 144.068 87.2611C144.002 87.0713 143.884 86.9044 143.726 86.781C143.568 86.6572 143.378 86.5812 143.178 86.563L134.858 85.6067C134.351 85.4393 134.351 85.1859 134.476 84.9707C134.552 84.8516 134.656 84.7536 134.78 84.6852C134.903 84.6164 135.042 84.58 135.183 84.5786L141.964 84.2534L146.746 82.6564C146.989 82.5818 147.204 82.435 147.362 82.2356C148.037 81.3414 146.688 80.5333 146.688 80.5333L147.735 80.2703C147.989 80.2148 148.216 80.0728 148.376 79.8686C148.802 79.3283 148.476 78.8215 148.156 78.5011Z" fill="#FC9D9D"/>
<path opacity="0.15" d="M146.82 78.564L140.393 79.9172H134.646" stroke="black" stroke-width="0.71" stroke-miterlimit="10"/>
<path opacity="0.15" d="M146.991 80.7637L141.578 82.1169L135.152 82.4564" stroke="black" stroke-width="0.71" stroke-miterlimit="10"/>
<path opacity="0.15" d="M120.434 87.3574L74.6015 101.497C73.4764 101.843 72.2934 101.959 71.1224 101.837C69.9518 101.715 68.8176 101.359 67.7876 100.789L40.6755 82.9727L37.7587 87.4244L67.9693 104.973C68.7784 105.444 69.6807 105.733 70.6131 105.82C71.5456 105.907 72.4856 105.789 73.3678 105.475L121.06 88.6246L132.436 88.2038H143.596C143.651 88.1871 143.704 88.1646 143.754 88.1369V88.0364L120.434 87.3574Z" fill="black"/>
<path opacity="0.2" d="M13.0281 67.9009L13.8744 75.5181L36.707 88.5434L40.4749 82.8962L13.0281 67.9009Z" fill="black"/>
<path opacity="0.2" d="M79.1633 121.867L76.1174 118.142L73.4587 132.224L79.1633 121.867Z" fill="black"/>
<path d="M156.234 70.325L159.476 67.5517C159.66 67.3948 159.89 67.3039 160.131 67.2934C160.29 67.2877 160.447 67.3173 160.593 67.38C160.739 67.4431 160.868 67.5373 160.973 67.6559C161.078 67.775 161.155 67.9155 161.199 68.0681C161.243 68.2201 161.252 68.3803 161.226 68.5367C161.176 68.8451 161.06 69.1387 160.886 69.3978C160.712 69.657 160.484 69.8756 160.217 70.0381L156.215 72.4816C156.119 72.5399 156.008 72.5686 155.896 72.5643C155.784 72.56 155.675 72.5232 155.584 72.4577C155.497 72.395 155.43 72.3094 155.388 72.2109C155.347 72.112 155.334 72.0039 155.35 71.8982C155.452 71.2866 155.765 70.73 156.234 70.325Z" fill="#FC9D9D"/>
<path d="M156.111 72.6873L160.352 70.4877C160.555 70.3586 160.796 70.3012 161.036 70.3251C161.193 70.3409 161.345 70.3911 161.481 70.4729C161.617 70.5542 161.732 70.6651 161.82 70.7966C161.908 70.9281 161.965 71.0778 161.989 71.2341C162.012 71.391 162 71.5507 161.954 71.7023C161.861 72.0011 161.705 72.277 161.496 72.5104C161.288 72.7442 161.031 72.9297 160.744 73.0555L155.795 74.8151C155.691 74.8606 155.576 74.8744 155.465 74.8548C155.354 74.8352 155.25 74.7831 155.169 74.7051C155.091 74.632 155.036 74.5383 155.009 74.435C154.983 74.3317 154.987 74.2227 155.02 74.1218C155.203 73.5293 155.589 73.021 156.111 72.6873Z" fill="#FC9D9D"/>
<path d="M155.704 75.0063L160.17 73.285C160.387 73.1798 160.634 73.1511 160.869 73.2037C161.023 73.2371 161.169 73.3045 161.294 73.4011C161.42 73.4972 161.522 73.6206 161.594 73.7612C161.667 73.9023 161.707 74.0572 161.712 74.2155C161.717 74.3737 161.687 74.531 161.624 74.6764C161.498 74.9624 161.312 75.2177 161.078 75.4257C160.845 75.6332 160.57 75.7886 160.271 75.8814L155.15 77.1103C155.042 77.1428 154.927 77.1428 154.819 77.1108C154.711 77.0782 154.615 77.0151 154.542 76.9286C154.474 76.8463 154.43 76.7469 154.415 76.6417C154.4 76.536 154.414 76.4284 154.456 76.3309C154.7 75.7537 155.143 75.2837 155.704 75.0063Z" fill="#FC9D9D"/>
<path d="M155.867 76.9286L159.549 76.6943C159.733 76.6656 159.922 76.6995 160.085 76.7899C160.191 76.8501 160.283 76.9329 160.353 77.0328C160.423 77.1327 160.471 77.247 160.491 77.3675C160.512 77.488 160.505 77.6114 160.472 77.729C160.439 77.8466 160.38 77.9557 160.3 78.0475C160.143 78.2316 159.948 78.3788 159.728 78.4792C159.509 78.5801 159.269 78.6318 159.028 78.6308L154.983 78.3392C154.895 78.3406 154.81 78.3153 154.737 78.2665C154.664 78.2177 154.608 78.1479 154.576 78.0666C154.539 77.9887 154.527 77.9016 154.539 77.8165C154.552 77.7314 154.59 77.652 154.648 77.5884C154.965 77.2322 155.396 76.9988 155.867 76.9286Z" fill="#FC9D9D"/>
</svg>
