<svg width="20" height="20" viewBox="0 0 20 20" fill="none" xmlns="http://www.w3.org/2000/svg">
<path d="M17.88 8.46163C17.9825 9.0108 18.0383 9.58496 18.0383 10.1841C18.0383 14.8708 14.9016 18.2033 10.1641 18.2033C9.08678 18.2036 8.0199 17.9917 7.02448 17.5795C6.02906 17.1674 5.1246 16.5631 4.36278 15.8013C3.60097 15.0395 2.99673 14.1351 2.58459 13.1396C2.17245 12.1442 1.96049 11.0773 1.96082 9.99996C1.96049 8.9226 2.17245 7.85572 2.58459 6.8603C2.99673 5.86487 3.60097 4.96041 4.36278 4.1986C5.1246 3.43678 6.02906 2.83254 7.02448 2.4204C8.0199 2.00826 9.08678 1.7963 10.1641 1.79663C12.3791 1.79663 14.23 2.61163 15.65 3.93496L13.3375 6.24746V6.24163C12.4766 5.42163 11.3841 5.0008 10.1641 5.0008C7.45748 5.0008 5.25748 7.28747 5.25748 9.99496C5.25748 12.7016 7.45748 14.9933 10.1641 14.9933C12.62 14.9933 14.2916 13.5891 14.635 11.6608H10.1641V8.46163H17.8808H17.88Z" fill="black"/>
</svg>
