<svg width="314" height="259" viewBox="0 0 314 259" fill="none" xmlns="http://www.w3.org/2000/svg">
<g id="undraw_searching_p5ux 1">
<path id="Vector" d="M262.504 101.88H260.002V200.73H262.504V101.88Z" fill="#1D2025"/>
<path id="Vector 1" d="M0 195H314V259H0V195Z" fill="#1D2025"/>
<path id="Vector_2" d="M285.588 114.477C285.747 149.042 261.44 177.176 261.44 177.176C261.44 177.176 236.875 149.268 236.716 114.703C236.557 80.1373 260.864 52.0039 260.864 52.0039C260.864 52.0039 285.429 79.9119 285.588 114.477Z" fill="#1D2025"/>
<path id="Vector_3" d="M212.489 148.39H211.203V199.231H212.489V148.39Z" fill="#1D2025"/>
<path id="Vector_4" d="M224.362 154.869C224.444 172.647 211.943 187.116 211.943 187.116C211.943 187.116 199.308 172.763 199.226 154.985C199.144 137.207 211.646 122.738 211.646 122.738C211.646 122.738 224.281 137.091 224.362 154.869Z" fill="#1D2025"/>
<path id="Vector_5" d="M237.847 206C257.097 206 272.703 203.607 272.703 200.655C272.703 197.703 257.097 195.309 237.847 195.309C218.597 195.309 202.991 197.703 202.991 200.655C202.991 203.607 218.597 206 237.847 206Z" fill="#1D2025"/>
<path id="Vector_6" d="M240.722 76.0739C237.769 71.0818 231.926 70.8492 231.926 70.8492C231.926 70.8492 226.233 70.1208 222.581 77.7238C219.177 84.8104 214.479 91.6527 221.825 93.3116L223.152 89.18L223.974 93.6192C225.019 93.6945 226.069 93.7124 227.116 93.6729C234.983 93.4188 242.475 93.7473 242.234 90.9231C241.913 87.1687 243.563 80.8773 240.722 76.0739Z" fill="#2F2E41"/>
<path id="Vector_7" d="M230.087 85.475C230.087 85.475 233.904 90.8204 231.614 95.1476C229.324 99.4748 236.957 104.057 236.957 104.057L242.554 91.8386C242.554 91.8386 235.939 87.5114 237.72 83.4387L230.087 85.475Z" fill="#FBBEBE"/>
<path id="Vector_8" d="M232.632 87.7659C236.285 87.7659 239.246 84.8029 239.246 81.1478C239.246 77.4928 236.285 74.5298 232.632 74.5298C228.978 74.5298 226.017 77.4928 226.017 81.1478C226.017 84.8029 228.978 87.7659 232.632 87.7659Z" fill="#FBBEBE"/>
<path id="Vector_9" d="M209.739 88.7982L215.267 81.6625C215.267 81.6625 217.213 74.1829 220.032 74.562C222.852 74.9412 218.919 83.532 218.919 83.532L213.426 91.4305L209.739 88.7982Z" fill="#FBBEBE"/>
<path id="Vector_10" d="M237.72 183.728L239.501 193.146L243.317 194.164L242.3 182.964L237.72 183.728Z" fill="#FBBEBE"/>
<path id="Vector_11" d="M276.138 173.546L283.007 182.964L285.806 184.237L288.095 180.419L281.226 171.51L276.138 173.546Z" fill="#FBBEBE"/>
<path id="Vector_12" d="M236.193 99.9839L231.949 94.3943C231.949 94.3943 223.727 95.9112 222.964 96.6748C222.2 97.4385 224.999 111.438 224.999 111.438C224.999 111.438 225.508 115.256 227.798 117.293L230.087 118.82L248.914 115.002L249.622 106.621C249.88 103.568 249.498 100.495 248.5 97.5991C247.502 94.7028 245.91 92.0472 243.826 89.8022L240.55 90.2503L236.193 99.9839Z" fill="#575A89"/>
<path id="Vector_13" d="M223.981 97.1839L222.709 96.6748L216.857 96.1658C216.857 96.1658 214.822 95.6567 215.331 94.6385C215.84 93.6203 216.349 93.3658 215.331 93.1113C214.313 92.8567 214.059 92.6022 214.313 91.8386C214.568 91.0749 216.094 89.5477 216.094 89.5477L211.769 85.9841C211.769 85.9841 211.535 86.1498 211.156 86.4563C209.009 88.1957 202.214 94.4716 207.189 100.747C213.041 108.129 219.91 112.456 225.508 110.929L223.981 97.1839Z" fill="#575A89"/>
<path id="Vector_14" d="M229.578 117.547V121.111C229.578 121.111 227.289 125.438 228.052 129.511C228.815 133.583 229.07 135.619 229.07 135.619C229.153 139.083 229.753 142.515 230.851 145.801C232.631 150.892 226.78 184.237 234.158 184.746C241.536 185.255 245.607 185.764 247.897 183.219C250.187 180.673 244.08 136.892 244.08 136.892C244.08 136.892 264.943 180.419 269.268 178.637C273.593 176.855 284.533 172.782 283.261 170.492C281.989 168.201 249.932 117.293 249.932 117.293L248.914 115.002L229.578 117.547Z" fill="#2F2E41"/>
<path id="Vector_15" d="M241.791 191.364C241.791 191.364 237.72 191.109 237.72 192.382C237.72 193.655 235.685 197.982 235.685 197.982C235.685 197.982 234.158 203.073 238.229 202.564C242.299 202.055 244.844 197.473 244.844 197.473L243.826 192.637L241.791 191.364Z" fill="#2F2E41"/>
<path id="Vector_16" d="M284.279 182.455C284.279 182.455 280.717 180.164 280.971 181.691C281.226 183.219 281.48 187.291 283.261 187.546C285.042 187.8 290.385 189.328 290.639 189.837C290.894 190.346 297 192.382 297 189.073C297 185.764 293.184 183.219 293.184 183.219L288.858 179.91C288.858 179.91 286.06 179.655 285.551 181.437C285.042 183.219 284.279 182.455 284.279 182.455Z" fill="#2F2E41"/>
<path id="Vector_17" d="M232.642 75.1008C234.975 75.1008 236.866 73.2087 236.866 70.8745C236.866 68.5404 234.975 66.6482 232.642 66.6482C230.308 66.6482 228.417 68.5404 228.417 70.8745C228.417 73.2087 230.308 75.1008 232.642 75.1008Z" fill="#2F2E41"/>
<path id="Vector_18" d="M227.973 69.7622C227.973 68.7184 228.359 67.7116 229.057 66.9356C229.755 66.1597 230.715 65.6696 231.752 65.5597C231.604 65.544 231.456 65.5361 231.308 65.5359C230.187 65.5359 229.113 65.9812 228.32 66.7738C227.528 67.5663 227.083 68.6413 227.083 69.7622C227.083 70.8831 227.528 71.9581 228.32 72.7507C229.113 73.5433 230.187 73.9886 231.308 73.9886C231.456 73.9884 231.604 73.9805 231.752 73.9648C230.715 73.8549 229.755 73.3648 229.057 72.5888C228.359 71.8129 227.973 70.806 227.973 69.7622Z" fill="#2F2E41"/>
<path id="Vector_19" d="M239.416 75.5926L233.644 72.5676L225.673 73.8052L224.024 81.0922L228.13 80.9341L229.277 78.2571V80.8901L231.171 80.8173L232.27 76.555L232.957 81.0922L239.691 80.9547L239.416 75.5926Z" fill="#2F2E41"/>
<path id="Vector_20" d="M239.071 118.137L230.169 118.377C230.169 118.377 222.574 119.856 223 116.789C223.426 113.722 230.836 114.795 230.836 114.795L238.947 113.557L239.071 118.137Z" fill="#FBBEBE"/>
<path id="Vector_21" d="M246.114 89.3708C246.561 89.303 247.018 89.3973 247.402 89.6365C247.786 89.8758 248.072 90.2445 248.209 90.6761C249.952 96.1701 255.32 114.555 249.986 117.078C243.704 120.049 239.119 119.918 239.119 119.918L236.665 113.873L238.899 111.776L241.284 96.4332L242.427 89.9295L246.114 89.3708Z" fill="#575A89"/>
<path id="Vector_22" opacity="0.4" d="M244.462 99.6021L243.444 109.784L234.54 113.602L244.462 111.311V99.6021Z" fill="black"/>
<g id="search">
<path id="Vector_23" d="M196.236 67.6424C199.088 68.463 201.531 70.3182 203.087 72.8454L203.892 74.152L203.933 74.2062L218.439 78.7867C218.705 78.8707 218.928 79.0558 219.059 79.3021C219.19 79.5484 219.219 79.8362 219.14 80.1038L217.919 84.2369C217.879 84.3716 217.813 84.497 217.725 84.606C217.636 84.715 217.527 84.8055 217.404 84.8722C217.28 84.9388 217.145 84.9804 217.005 84.9945C216.866 85.0087 216.725 84.995 216.59 84.9544L202.076 80.564L202.076 80.5644L200.598 81.0882C197.876 82.0527 194.912 82.091 192.167 81.1973L196.236 67.6424Z" fill="#1D2025"/>
<path id="Vector_24" d="M211.354 80.0218C211.502 79.552 210.909 78.9458 210.028 78.6678C209.148 78.3899 208.314 78.5453 208.166 79.0151C208.018 79.4849 208.611 80.0911 209.492 80.3691C210.372 80.6471 211.206 80.4916 211.354 80.0218Z" fill="#575A89"/>
<path id="Vector_25" d="M210.599 80.442C210.938 80.4491 211.218 80.1804 211.225 79.8418C211.232 79.5032 210.964 79.2229 210.625 79.2158C210.287 79.2087 210.007 79.4774 210 79.816C209.992 80.1546 210.261 80.4348 210.599 80.442Z" fill="#1D2025"/>
<path id="Vector_26" d="M197.291 75.5422C198.587 71.8123 198.271 68.3132 196.585 67.7267C194.899 67.1403 192.482 69.6886 191.185 73.4185C189.889 77.1484 190.205 80.6475 191.891 81.234C193.577 81.8204 195.994 79.2721 197.291 75.5422Z" fill="#6C63FF"/>
<path id="Vector_27" opacity="0.4" d="M196.84 75.3996C198.089 71.8056 197.841 68.4263 196.313 67.6602C196.405 67.6737 196.497 67.6959 196.585 67.7265C198.271 68.313 198.587 71.812 197.291 75.542C195.994 79.2719 193.577 81.8202 191.891 81.2337C191.83 81.2123 191.77 81.1869 191.712 81.1577C193.378 81.4056 195.612 78.9331 196.84 75.3996Z" fill="black"/>
<path id="Vector_28" d="M196.428 67.6598L163.841 41.2529C158.079 36.5505 152.561 31.5579 147.306 26.2945C138.052 17.09 125.384 9.61997 110.539 5.47226C74.473 -4.60484 45.398 11.3043 31.8214 35.2774C11.0749 71.9108 -5.49266 131.717 83.7114 101.575C103.22 94.9828 122.834 94.6515 137.772 91.2773L191.814 81.3109L196.428 67.6598Z" fill="#6C63FF"/>
</g>
<g id="ques">
<path id="Vector_29" d="M74.9739 73.7284C70.8147 67.5179 69.0178 60.0219 69.909 52.5996C70.8003 45.1773 74.3206 38.3203 79.8317 33.272C85.3428 28.2237 92.4797 25.3185 99.9481 25.0832C107.417 24.8478 114.722 27.2979 120.54 31.9892C126.357 36.6805 130.302 43.3023 131.658 50.6537C133.015 58.0052 131.693 65.5996 127.933 72.0596C124.172 78.5197 118.222 83.4177 111.162 85.8654C104.102 88.3131 96.3987 88.1484 89.4493 85.4012C88.9955 87.0104 88.1498 88.4819 86.9881 89.6839C85.8264 90.8859 84.3849 91.781 82.7927 92.2889C81.2004 92.7969 79.5071 92.9019 77.8644 92.5946C76.2216 92.2873 74.6807 91.5772 73.3795 90.5279C72.0783 89.4787 71.0574 88.123 70.4084 86.5822C69.7593 85.0414 69.5023 83.3637 69.6602 81.6992C69.8182 80.0346 70.3863 78.4353 71.3136 77.0442C72.2409 75.6532 73.4985 74.514 74.9739 73.7284Z" fill="#1D2025"/>
<path id="Vector_30" d="M100.79 38.4604C107.953 38.4738 112.874 42.458 112.863 48.1719C112.856 51.9558 111.017 54.5704 107.479 56.6468C104.152 58.5707 103.023 59.9827 103.018 62.4288C103.018 62.6271 102.978 62.8233 102.902 63.0064C102.826 63.1894 102.714 63.3556 102.574 63.4955C102.434 63.6355 102.267 63.7464 102.084 63.8219C101.901 63.8974 101.704 63.9361 101.506 63.9357L97.8443 63.9288C97.4532 63.9281 97.0777 63.7755 96.7969 63.5031C96.516 63.2308 96.3519 62.86 96.339 62.4689L96.3328 62.2825C96.0155 58.3452 97.3954 55.9017 100.856 53.8825C104.088 51.9584 105.447 50.7379 105.451 48.3683C105.456 45.9986 103.167 44.2553 100.321 44.2499C98.1574 44.2459 96.4435 45.2961 95.655 47.0145C95.378 47.5962 94.9402 48.0864 94.3934 48.427C93.8467 48.7676 93.2139 48.9444 92.5699 48.9365C90.0888 48.9318 88.4547 46.289 89.6191 44.0971C91.4611 40.6297 95.338 38.4501 100.79 38.4604ZM95.7048 71.2058C95.709 69.0082 97.5459 67.2726 99.7999 67.2768C102.073 67.2811 103.903 69.0044 103.899 71.2212C103.895 73.438 102.058 75.1545 99.7851 75.1502C97.5121 75.146 95.7007 73.4226 95.7048 71.2058Z" fill="#6C63FF"/>
</g>
</g>
</svg>
