<svg width="24" height="25" viewBox="0 0 24 25" fill="none" xmlns="http://www.w3.org/2000/svg">
<path d="M21.743 12.8309L12.743 2.8309C12.364 2.4089 11.636 2.4089 11.257 2.8309L2.257 12.8309C2.12769 12.9746 2.04279 13.1526 2.01256 13.3435C1.98234 13.5344 2.00809 13.73 2.0867 13.9066C2.16531 14.0832 2.2934 14.2332 2.45549 14.3385C2.61758 14.4438 2.80671 14.4999 3 14.4999H5V21.4999C5 21.7651 5.10535 22.0195 5.29289 22.207C5.48043 22.3945 5.73478 22.4999 6 22.4999H18C18.2652 22.4999 18.5196 22.3945 18.7071 22.207C18.8946 22.0195 19 21.7651 19 21.4999V14.4999H21C21.1937 14.5007 21.3834 14.4452 21.546 14.3401C21.7087 14.2349 21.8372 14.0847 21.916 13.9078C21.9947 13.7309 22.0203 13.5348 21.9896 13.3436C21.9589 13.1524 21.8732 12.9743 21.743 12.8309ZM12 16.4999C11.2043 16.4999 10.4413 16.1838 9.87868 15.6212C9.31607 15.0586 9 14.2956 9 13.4999C9 12.7043 9.31607 11.9412 9.87868 11.3786C10.4413 10.816 11.2043 10.4999 12 10.4999C12.7956 10.4999 13.5587 10.816 14.1213 11.3786C14.6839 11.9412 15 12.7043 15 13.4999C15 14.2956 14.6839 15.0586 14.1213 15.6212C13.5587 16.1838 12.7956 16.4999 12 16.4999Z" fill="white"/>
</svg>
