<svg width="19" height="25" viewBox="0 0 19 25" fill="none" xmlns="http://www.w3.org/2000/svg">
<path d="M18.0825 11.3613C17.5617 10.1892 16.8047 9.13718 15.8587 8.27108L15.0781 7.55486C15.0516 7.5312 15.0197 7.51442 14.9852 7.50598C14.9507 7.49753 14.9147 7.49769 14.8803 7.50643C14.8458 7.51517 14.8141 7.53222 14.7878 7.5561C14.7615 7.57998 14.7414 7.60995 14.7294 7.64338L14.3807 8.64394C14.1634 9.27164 13.7637 9.91275 13.1977 10.5431C13.1602 10.5834 13.1173 10.5941 13.0878 10.5968C13.0582 10.5995 13.0126 10.5941 12.9724 10.5565C12.9349 10.5243 12.9161 10.4761 12.9188 10.4278C13.018 8.81293 12.5352 6.99154 11.4783 5.00919C10.6038 3.36216 9.38863 2.07726 7.87036 1.18131L6.7625 0.529475C6.61765 0.443636 6.43256 0.5563 6.4406 0.725295L6.49962 2.01288C6.53985 2.89273 6.43792 3.67064 6.1965 4.31712C5.90143 5.10845 5.4776 5.84344 4.93574 6.50333C4.55865 6.96193 4.13124 7.37674 3.66157 7.73995C2.53039 8.60951 1.61059 9.72372 0.971053 10.9991C0.333092 12.2857 0.000778347 13.7022 0 15.1382C0 16.4043 0.249469 17.6302 0.743043 18.7863C1.21963 19.8995 1.90739 20.9097 2.76831 21.7612C3.63743 22.6196 4.64603 23.2956 5.76999 23.765C6.93418 24.2532 8.16811 24.5 9.44228 24.5C10.7165 24.5 11.9504 24.2532 13.1146 23.7677C14.2358 23.301 15.2553 22.6204 16.1163 21.7639C16.9854 20.9055 17.6667 19.9023 18.1415 18.789C18.6344 17.636 18.8872 16.3948 18.8846 15.1409C18.8846 13.8318 18.6163 12.5603 18.0825 11.3613Z" fill="#7B7B7B"/>
</svg>
