<svg width="20" height="20" viewBox="0 0 20 20" fill="none" xmlns="http://www.w3.org/2000/svg">
<path d="M16.25 8.75H15V6.25C15 4.92392 14.4732 3.65215 13.5355 2.71447C12.5979 1.77678 11.3261 1.25 10 1.25C8.67392 1.25 7.40215 1.77678 6.46447 2.71447C5.52678 3.65215 5 4.92392 5 6.25V8.75H3.75L2.5 10V17.5L3.75 18.75H16.25L17.5 17.5V10L16.25 8.75ZM6.25 6.25C6.25 5.25544 6.64509 4.30161 7.34835 3.59835C8.05161 2.89509 9.00544 2.5 10 2.5C10.9946 2.5 11.9484 2.89509 12.6517 3.59835C13.3549 4.30161 13.75 5.25544 13.75 6.25V8.75H6.25V6.25ZM16.25 17.5H3.75V10H16.25V17.5Z" fill="#ADB1B0"/>
</svg>
