<svg width="92" height="84" viewBox="0 0 92 84" fill="none" xmlns="http://www.w3.org/2000/svg">
<path d="M12.2907 15.7306H5.25349V23H1.58826V5.21144H13.1704V8.18027H5.25349V12.774H12.2907V15.7306ZM19.1936 23H15.5283V5.21144H19.1936V23ZM37.0677 23H33.4024L26.2675 11.2957V23H22.6022V5.21144H26.2675L33.4146 16.9402V5.21144H37.0677V23ZM40.2686 23V5.21144H45.742C47.3058 5.21144 48.7027 5.56574 49.9326 6.27435C51.1706 6.97482 52.1358 7.97665 52.8281 9.27984C53.5204 10.5749 53.8666 12.0491 53.8666 13.7025V14.5211C53.8666 16.1745 53.5245 17.6447 52.8403 18.9316C52.1643 20.2185 51.2073 21.2163 49.9692 21.9249C48.7312 22.6335 47.3344 22.9919 45.7787 23H40.2686ZM43.9338 8.18027V20.0556H45.7054C47.1389 20.0556 48.2344 19.5873 48.9919 18.6506C49.7493 17.7139 50.1362 16.3741 50.1525 14.6311V13.6903C50.1525 11.8821 49.7778 10.5138 49.0285 9.58527C48.2792 8.6486 47.1837 8.18027 45.742 8.18027H43.9338Z" fill="white"/>
<path d="M2.04205 76.468V53.597H10.0532C12.8283 53.597 14.9332 54.1311 16.3679 55.1992C17.8025 56.2569 18.5199 57.812 18.5199 59.8645C18.5199 60.9851 18.2319 61.9747 17.6559 62.8334C17.08 63.6816 16.2788 64.3047 15.2526 64.7026C16.4254 64.9959 17.347 65.5875 18.0172 66.4777C18.6979 67.3678 19.0382 68.4569 19.0382 69.7449C19.0382 71.9441 18.3366 73.6091 16.9333 74.7401C15.5301 75.8711 13.5299 76.4471 10.9328 76.468H2.04205ZM6.75449 66.5091V72.6824H10.7915C11.9015 72.6824 12.7655 72.4206 13.3833 71.897C14.0116 71.3629 14.3258 70.6298 14.3258 69.6978C14.3258 67.6034 13.2419 66.5405 11.0742 66.5091H6.75449ZM6.75449 63.179H10.2417C12.6188 63.1371 13.8074 62.1893 13.8074 60.3358C13.8074 59.2991 13.5037 58.5555 12.8964 58.1052C12.2995 57.6445 11.3517 57.4141 10.0532 57.4141H6.75449V63.179ZM51.9009 76.468H47.1884L38.0149 61.4196V76.468H33.3025V53.597H38.0149L47.2041 68.6768V53.597H51.9009V76.468ZM72.3428 73.5777C71.4945 74.5935 70.2955 75.3842 68.7456 75.9496C67.1957 76.5047 65.4783 76.7822 63.5933 76.7822C61.6141 76.7822 59.8758 76.3528 58.3783 75.4941C56.8912 74.6249 55.7393 73.3683 54.9225 71.7242C54.1161 70.0801 53.7025 68.148 53.6815 65.9279V64.3728C53.6815 62.0899 54.0638 60.1159 54.8282 58.4508C55.6032 56.7753 56.7132 55.4977 58.1583 54.618C59.614 53.7279 61.3157 53.2828 63.2635 53.2828C65.9757 53.2828 68.0963 53.9321 69.6253 55.2307C71.1542 56.5187 72.06 58.3985 72.3428 60.8699H67.756C67.5466 59.5609 67.0805 58.6027 66.358 57.9953C65.6459 57.3879 64.6615 57.0842 63.4048 57.0842C61.8026 57.0842 60.5826 57.6864 59.7449 58.8906C58.9071 60.0949 58.483 61.8857 58.4725 64.2628V65.7237C58.4725 68.1218 58.928 69.9334 59.8391 71.1587C60.7502 72.3839 62.0854 72.9965 63.8447 72.9965C65.6145 72.9965 66.8763 72.6195 67.6303 71.8655V67.9228H63.342V64.4513H72.3428V73.5777ZM88.1665 66.5562H79.1186V72.6824H89.7373V76.468H74.4062V53.597H89.7059V57.4141H79.1186V62.8648H88.1665V66.5562Z" fill="white"/>
<rect x="21.4469" y="53.6169" width="8.55991" height="23.234" rx="1.78723" fill="white"/>
<circle cx="23.2811" cy="55.4513" r="0.611422" fill="#464EB4"/>
<circle cx="28.1727" cy="55.4513" r="0.611422" fill="black"/>
<circle cx="25.7268" cy="70.1255" r="3.05711" fill="black"/>
<path d="M8.82447 37.2766L13.0552 28.117H17.635L10.9608 41.0744V48.4468H6.70213V41.0744L0.0279255 28.117H4.62168L8.82447 37.2766ZM60.5035 28.117V41.5073C60.5035 43.732 59.8053 45.4913 58.409 46.7852C57.0221 48.0791 55.1231 48.726 52.7122 48.726C50.3386 48.726 48.4536 48.0977 47.0573 46.8411C45.661 45.5844 44.9489 43.8577 44.921 41.6609V28.117H49.1098V41.5352C49.1098 42.8663 49.4263 43.8391 50.0593 44.4534C50.7016 45.0585 51.5859 45.361 52.7122 45.361C55.0673 45.361 56.2634 44.123 56.3007 41.6469V28.117H60.5035ZM70.8923 41.0046H67.5552V48.4468H63.3664V28.117H70.9202C73.3218 28.117 75.1742 28.6522 76.4774 29.7227C77.7806 30.7932 78.4322 32.3058 78.4322 34.2606C78.4322 35.6476 78.1297 36.8065 77.5246 37.7373C76.9289 38.6589 76.0213 39.3943 74.8019 39.9435L79.2002 48.2513V48.4468H74.7041L70.8923 41.0046ZM67.5552 37.6117H70.9342C71.9861 37.6117 72.8006 37.3464 73.3777 36.8158C73.9548 36.2759 74.2434 35.5359 74.2434 34.5957C74.2434 33.6369 73.9688 32.8829 73.4196 32.3337C72.8797 31.7845 72.0466 31.5099 70.9202 31.5099H67.5552V37.6117Z" fill="white"/>
<path d="M40.619 28.5957H20.1471C18.896 28.5957 17.8724 29.5787 17.8724 30.7801V43.8865C17.8724 45.0879 18.896 46.0709 20.1471 46.0709H25.8338V48.2553H34.9324V46.0709H40.619C41.8701 46.0709 42.8823 45.0879 42.8823 43.8865L42.8937 30.7801C42.8937 29.5787 41.8701 28.5957 40.619 28.5957ZM40.619 43.8865H20.1471V30.7801H40.619V43.8865ZM21.2844 40.6099V42.7943H23.5591C23.5591 41.5819 22.5469 40.6099 21.2844 40.6099ZM21.2844 37.3333V38.8951C23.525 38.8951 25.3447 40.6427 25.3447 42.7943H26.9711C26.9711 39.7798 24.4235 37.3333 21.2844 37.3333ZM21.2844 34.0567V35.6404C25.3902 35.6404 28.7339 38.8405 28.7339 42.7943H30.3831C30.3831 37.9668 26.3001 34.0567 21.2844 34.0567Z" fill="white"/>
</svg>
