<svg width="305" height="230" viewBox="0 0 305 230" fill="none" xmlns="http://www.w3.org/2000/svg">
<path d="M225.679 0.590332H22.7384C10.3365 0.590332 0.189453 10.3347 0.189453 22.2444V152.169C0.189453 164.079 10.3365 173.823 22.7384 173.823H79.1106V195.477H169.306V173.823H225.679C238.08 173.823 248.115 164.079 248.115 152.169L248.227 22.2444C248.227 10.3347 238.08 0.590332 225.679 0.590332ZM225.679 152.169H22.7384V22.2444H225.679V152.169ZM34.0128 119.688V141.342H56.5617C56.5617 129.324 46.5275 119.688 34.0128 119.688ZM34.0128 87.2068V102.689C56.2235 102.689 74.2626 120.013 74.2626 141.342H90.3851C90.3851 111.459 65.1303 87.2068 34.0128 87.2068ZM34.0128 54.7256V70.4249C74.7136 70.4249 107.861 102.148 107.861 141.342H124.208C124.208 93.4865 83.7332 54.7256 34.0128 54.7256Z" fill="white"/>
<rect x="261.994" y="89.175" width="49.3059" height="133.83" rx="5.85586" transform="rotate(30.0011 261.994 89.175)" fill="white"/>
<circle cx="265.861" cy="103.608" r="3.52185" transform="rotate(30.0011 265.861 103.608)" fill="#FF0000"/>
<circle cx="290.261" cy="117.695" r="3.52185" transform="rotate(30.0011 290.261 117.695)" fill="black"/>
<circle cx="235.798" cy="183.85" r="17.6092" transform="rotate(30.0011 235.798 183.85)" fill="black"/>
</svg>
