<svg width="24" height="25" viewBox="0 0 24 25" fill="none" xmlns="http://www.w3.org/2000/svg">
<path d="M15.3333 3.16675H4.66667C4.31305 3.16675 3.97391 3.30722 3.72386 3.55727C3.47381 3.80732 3.33334 4.14646 3.33334 4.50008V20.5001C3.33334 20.8537 3.47381 21.1928 3.72386 21.4429C3.97391 21.6929 4.31305 21.8334 4.66667 21.8334H15.3333C15.687 21.8334 16.0261 21.6929 16.2761 21.4429C16.5262 21.1928 16.6667 20.8537 16.6667 20.5001V16.5001H10.42C10.2432 16.5001 10.0736 16.4298 9.9486 16.3048C9.82357 16.1798 9.75334 16.0102 9.75334 15.8334C9.75334 15.6566 9.82357 15.487 9.9486 15.362C10.0736 15.237 10.2432 15.1667 10.42 15.1667H16.6667V4.50008C16.6667 4.14646 16.5262 3.80732 16.2761 3.55727C16.0261 3.30722 15.687 3.16675 15.3333 3.16675Z" fill="#7B7B7B"/>
<path d="M18.7733 12.0199C18.6458 11.9107 18.4817 11.8536 18.314 11.8601C18.1462 11.8666 17.987 11.9362 17.8683 12.0549C17.7496 12.1736 17.68 12.3328 17.6735 12.5006C17.667 12.6683 17.7241 12.8324 17.8333 12.9599L20.0867 15.1666H16.6667V16.4999H20.0867L17.8333 18.8066C17.7635 18.8664 17.7069 18.9399 17.6668 19.0226C17.6268 19.1053 17.6043 19.1954 17.6008 19.2872C17.5973 19.379 17.6127 19.4706 17.6462 19.5561C17.6798 19.6417 17.7306 19.7194 17.7956 19.7844C17.8605 19.8493 17.9382 19.9002 18.0238 19.9337C18.1093 19.9672 18.2009 19.9827 18.2927 19.9791C18.3845 19.9756 18.4746 19.9531 18.5573 19.9131C18.64 19.8731 18.7136 19.8164 18.7733 19.7466L22.6667 15.8799L18.7733 12.0199Z" fill="#7B7B7B"/>
</svg>
