<svg width="44" height="44" viewBox="0 0 44 44" fill="none" xmlns="http://www.w3.org/2000/svg">
<path d="M36.6666 7.33331H11C8.97781 7.33331 7.33331 8.97781 7.33331 11V20.1666H11V14.6666L22.7333 23.4666C23.0508 23.7044 23.4367 23.8329 23.8333 23.8329C24.2299 23.8329 24.6159 23.7044 24.9333 23.4666L36.6666 14.6666V31.1666H22V34.8333H36.6666C38.6888 34.8333 40.3333 33.1888 40.3333 31.1666V11C40.3333 8.97781 38.6888 7.33331 36.6666 7.33331ZM23.8333 19.7083L12.221 11H35.4456L23.8333 19.7083Z" fill="white"/>
<path d="M3.66669 22H16.5V25.6667H3.66669V22ZM7.33335 27.5H18.3334V31.1667H7.33335V27.5ZM12.8334 33H20.1667V36.6667H12.8334V33Z" fill="white"/>
</svg>
