<svg width="269" height="211" viewBox="0 0 269 211" fill="none" xmlns="http://www.w3.org/2000/svg">
<path d="M140.748 139.553L137.91 172.013L96.759 192.988L108.333 205.492L162.166 188.509L165.226 143.544L140.748 139.553Z" fill="#FC9D9D"/>
<path d="M220.966 75.122L254.401 85.6315C262.117 88.0704 269.301 98.1808 268.99 106.296L262.826 209.661H163.452L159.993 142.613L138.087 139.155L145.759 99.2894C146.335 96.1853 147.754 93.3473 149.794 90.9528C151.834 88.5582 154.45 86.7401 157.421 85.7201L187.708 74.9446L220.966 75.122Z" fill="#464EB4"/>
<path opacity="0.15" d="M227.174 77.0718L207.485 105.496L199.016 92.4148L186.156 102.392L184.427 75.8745L227.174 77.0718Z" fill="black"/>
<path d="M199.06 90.5088L220.966 75.1215L218.882 44.9676C220.478 16.5432 193.207 32.64 188.728 35.2563C189.038 34.6798 189.349 50.821 190.28 56.7188C189.792 61.2418 188.417 70.1993 187.885 74.8111L199.06 90.5088Z" fill="#FC9D9D"/>
<path opacity="0.15" d="M189.127 67.8922L189.703 61.8171L201.454 65.2759C204.381 64.7438 207.086 63.5465 209.436 61.7284C209.481 61.684 209.569 61.6397 209.658 61.5954C209.747 61.551 209.835 61.551 209.88 61.551C209.968 61.551 210.057 61.5954 210.102 61.5954C210.19 61.6397 210.235 61.684 210.279 61.7284C210.323 61.7727 210.368 61.8614 210.412 61.9501C210.412 62.0388 210.456 62.1275 210.412 62.1718C210.368 62.2162 210.368 62.3492 210.323 62.3935C210.279 62.4822 210.235 62.5266 210.146 62.5709C209.968 62.7483 205.312 66.5176 199.503 66.5176H199.104C196 68.0252 192.497 68.4687 189.127 67.8922Z" fill="black"/>
<path opacity="0.7" d="M174.626 188.731C174.892 188.731 175.158 188.642 175.425 188.465C175.646 188.332 175.824 188.154 175.912 187.932C176.045 187.711 176.09 187.445 176.09 187.223C176.09 186.824 176.223 186.469 176.444 186.159C176.666 185.848 176.977 185.582 177.331 185.449C177.686 185.316 178.041 185.316 178.396 185.361C178.706 185.449 179.016 185.449 179.327 185.538C179.016 185.627 178.706 185.671 178.396 185.715C178.13 185.715 177.863 185.804 177.597 185.937C177.376 186.07 177.198 186.247 177.065 186.469C176.932 186.691 176.888 186.913 176.888 187.179C176.888 187.578 176.799 187.932 176.578 188.243C176.356 188.553 176.09 188.819 175.735 188.952C175.38 189.085 175.025 189.13 174.671 189.041C174.36 188.997 174.05 188.952 173.739 188.864C173.961 188.819 174.316 188.775 174.626 188.731ZM184.027 207.222C184.293 207.222 184.559 207.133 184.825 206.956C185.047 206.823 185.225 206.645 185.313 206.423C185.446 206.202 185.491 205.936 185.491 205.714C185.491 205.315 185.624 204.96 185.845 204.65C186.067 204.339 186.377 204.073 186.732 203.94C187.087 203.807 187.442 203.807 187.797 203.896C188.107 203.94 188.417 203.985 188.728 204.073C188.417 204.162 188.107 204.206 187.797 204.251C187.53 204.251 187.264 204.339 186.998 204.472C186.777 204.605 186.599 204.783 186.466 205.004C186.333 205.226 186.289 205.448 186.289 205.714C186.289 206.069 186.156 206.468 185.978 206.778C185.757 207.089 185.491 207.355 185.136 207.488C184.781 207.621 184.426 207.665 184.072 207.576C183.761 207.488 183.451 207.488 183.14 207.399C183.406 207.355 183.717 207.31 184.027 207.222ZM228.105 123.412C228.371 123.412 228.637 123.279 228.859 123.146C229.081 123.013 229.258 122.836 229.347 122.614C229.48 122.392 229.524 122.126 229.524 121.904C229.524 121.505 229.657 121.151 229.879 120.84C230.101 120.53 230.411 120.264 230.766 120.131C231.12 119.998 231.475 119.998 231.786 120.042C232.096 120.086 232.406 120.131 232.717 120.219C232.406 120.308 232.096 120.352 231.786 120.397C231.52 120.397 231.254 120.485 230.987 120.618C230.766 120.751 230.588 120.929 230.455 121.151C230.322 121.372 230.278 121.594 230.278 121.86C230.278 122.259 230.145 122.614 229.968 122.924C229.746 123.235 229.48 123.501 229.125 123.634C228.77 123.767 228.416 123.811 228.061 123.722C227.75 123.678 227.44 123.634 227.13 123.545C227.484 123.501 227.795 123.456 228.105 123.412ZM195.823 165.894C196.089 165.849 196.355 165.76 196.621 165.627C196.843 165.494 197.02 165.317 197.109 165.095C197.242 164.874 197.286 164.608 197.286 164.386C197.286 164.12 197.33 163.809 197.463 163.588C197.597 163.322 197.774 163.1 197.996 162.922C198.217 162.745 198.483 162.612 198.749 162.568C199.016 162.523 199.326 162.479 199.592 162.568C199.902 162.612 200.213 162.656 200.523 162.745C200.213 162.834 199.902 162.878 199.592 162.922C199.326 162.922 199.06 163.011 198.794 163.144C198.572 163.277 198.395 163.455 198.262 163.676C198.129 163.898 198.084 164.12 198.084 164.386C198.084 164.785 197.951 165.14 197.774 165.45C197.552 165.76 197.286 166.027 196.931 166.16C196.577 166.293 196.222 166.337 195.867 166.248C195.557 166.204 195.246 166.16 194.936 166.071C195.202 165.982 195.512 165.938 195.823 165.894ZM241.497 169.884C241.763 169.84 242.029 169.751 242.295 169.618C242.517 169.485 242.694 169.308 242.783 169.086C242.916 168.865 242.96 168.599 242.96 168.377C242.96 167.978 243.093 167.623 243.315 167.313C243.537 167.002 243.847 166.736 244.202 166.603C244.557 166.47 244.911 166.47 245.266 166.514C245.577 166.603 245.887 166.603 246.197 166.692C245.887 166.78 245.577 166.825 245.266 166.869C245 166.869 244.69 166.958 244.468 167.091C244.246 167.224 244.069 167.401 243.936 167.623C243.803 167.845 243.759 168.066 243.714 168.332C243.714 168.732 243.581 169.086 243.404 169.397C243.182 169.707 242.916 169.973 242.561 170.106C242.206 170.239 241.852 170.284 241.497 170.195C241.187 170.151 240.876 170.106 240.566 170.017C240.876 169.973 241.187 169.929 241.497 169.884ZM256.884 113.745C257.15 113.701 257.416 113.612 257.683 113.479C257.904 113.346 258.082 113.169 258.17 112.947C258.303 112.725 258.348 112.459 258.348 112.237C258.348 111.971 258.392 111.661 258.525 111.439C258.658 111.173 258.835 110.951 259.057 110.774C259.279 110.597 259.545 110.464 259.811 110.419C260.077 110.375 260.387 110.375 260.654 110.419C260.964 110.464 261.274 110.508 261.585 110.597C261.274 110.685 260.964 110.73 260.654 110.774C260.387 110.774 260.121 110.863 259.855 110.996C259.634 111.129 259.456 111.306 259.323 111.528C259.19 111.75 259.146 111.971 259.146 112.237C259.146 112.636 259.013 112.991 258.835 113.302C258.614 113.612 258.348 113.878 257.993 114.011C257.683 114.144 257.283 114.189 256.929 114.144C256.618 114.1 256.308 114.055 255.997 113.967C256.264 113.878 256.574 113.834 256.884 113.745ZM158.751 106.872C159.017 106.872 159.283 106.739 159.505 106.606C159.727 106.473 159.904 106.295 159.993 106.074C160.126 105.852 160.17 105.586 160.17 105.364C160.17 104.965 160.303 104.61 160.525 104.3C160.747 103.989 161.057 103.723 161.412 103.59C161.767 103.457 162.121 103.457 162.476 103.546C162.787 103.59 163.097 103.635 163.407 103.723C163.097 103.812 162.787 103.856 162.476 103.901C162.21 103.901 161.944 103.989 161.678 104.122C161.456 104.255 161.279 104.433 161.146 104.655C161.013 104.876 160.968 105.098 160.924 105.364C160.924 105.763 160.835 106.118 160.614 106.428C160.392 106.739 160.126 107.005 159.771 107.138C159.461 107.271 159.062 107.315 158.707 107.227C158.396 107.138 158.086 107.138 157.776 107.049C158.13 106.96 158.441 106.916 158.751 106.872ZM212.806 105.808C213.028 105.985 213.25 106.118 213.56 106.207C213.782 106.251 214.048 106.251 214.314 106.207C214.536 106.162 214.758 106.029 214.935 105.852C215.201 105.586 215.556 105.408 215.911 105.32C216.265 105.231 216.664 105.275 217.019 105.408C217.374 105.541 217.64 105.763 217.862 106.074C218.039 106.34 218.216 106.606 218.394 106.872C218.128 106.694 217.862 106.517 217.596 106.34C217.374 106.162 217.152 106.029 216.886 105.985C216.664 105.941 216.398 105.941 216.132 106.029C215.911 106.118 215.689 106.251 215.511 106.428C215.245 106.694 214.891 106.872 214.492 106.96C214.092 107.049 213.738 106.96 213.383 106.827C213.073 106.694 212.806 106.428 212.585 106.118C212.407 105.852 212.23 105.586 212.053 105.32C212.319 105.453 212.585 105.63 212.806 105.808ZM174.848 88.8238C174.892 88.5134 174.937 88.203 175.025 87.8926C175.114 88.203 175.158 88.5134 175.203 88.8238C175.203 89.0899 175.292 89.3559 175.425 89.622C175.558 89.8437 175.735 90.0211 175.957 90.1541C176.178 90.2871 176.4 90.3315 176.666 90.3315C177.065 90.3315 177.42 90.4645 177.73 90.6419C178.041 90.8636 178.307 91.1297 178.44 91.4844C178.573 91.8392 178.617 92.1939 178.529 92.5487C178.484 92.8591 178.44 93.1695 178.351 93.4799C178.263 93.1695 178.218 92.8591 178.174 92.5487C178.13 92.2826 178.041 92.0165 177.908 91.7505C177.775 91.5288 177.597 91.3514 177.376 91.2627C177.154 91.1297 176.888 91.0853 176.666 91.0853C176.267 91.0853 175.912 90.9523 175.602 90.7306C175.292 90.5089 175.025 90.1984 174.892 89.8437C174.759 89.5333 174.759 89.1785 174.848 88.8238ZM217.507 148.422C217.551 148.112 217.596 147.801 217.684 147.491C217.773 147.801 217.817 148.112 217.862 148.422C217.862 148.688 217.95 148.954 218.083 149.22C218.216 149.442 218.394 149.619 218.616 149.752C218.837 149.885 219.059 149.93 219.325 149.93C219.724 149.93 220.079 150.063 220.389 150.24C220.7 150.462 220.966 150.728 221.099 151.083C221.232 151.393 221.276 151.792 221.187 152.147C221.143 152.457 221.099 152.768 221.01 153.078C220.921 152.768 220.877 152.457 220.833 152.147C220.788 151.881 220.7 151.615 220.567 151.349C220.434 151.127 220.256 150.95 220.035 150.861C219.813 150.728 219.547 150.684 219.325 150.684C219.059 150.684 218.749 150.595 218.527 150.506C218.305 150.417 218.039 150.196 217.862 149.974C217.684 149.752 217.551 149.486 217.507 149.22C217.463 148.954 217.418 148.688 217.507 148.422ZM258.658 148.466C258.702 148.156 258.747 147.846 258.835 147.535C258.924 147.846 258.968 148.156 259.013 148.466C259.013 148.732 259.102 148.998 259.235 149.265C259.368 149.486 259.545 149.664 259.767 149.797C259.988 149.93 260.21 149.974 260.476 149.974C260.875 149.974 261.23 150.107 261.54 150.284C261.851 150.462 262.117 150.772 262.25 151.127C262.383 151.482 262.427 151.837 262.339 152.191C262.294 152.502 262.25 152.812 262.161 153.122C262.073 152.812 262.028 152.502 261.984 152.191C261.94 151.925 261.851 151.659 261.718 151.437C261.585 151.216 261.407 151.038 261.186 150.95C260.964 150.817 260.698 150.772 260.476 150.772C260.077 150.772 259.722 150.639 259.412 150.418C259.102 150.196 258.835 149.885 258.702 149.531C258.614 149.176 258.569 148.821 258.658 148.466ZM203.805 129.62C203.849 129.31 203.893 128.999 203.982 128.689C204.071 128.999 204.115 129.31 204.159 129.62C204.159 129.886 204.248 130.152 204.381 130.418C204.514 130.64 204.692 130.817 204.913 130.951C205.135 131.084 205.357 131.128 205.623 131.128C206.022 131.128 206.377 131.261 206.687 131.438C206.997 131.66 207.263 131.926 207.397 132.281C207.53 132.636 207.574 132.99 207.485 133.345C207.441 133.656 207.397 133.966 207.308 134.276C207.219 133.966 207.175 133.656 207.13 133.345C207.086 133.079 206.997 132.813 206.864 132.547C206.731 132.325 206.554 132.148 206.332 132.059C206.111 131.926 205.844 131.882 205.623 131.882C205.357 131.882 205.046 131.793 204.825 131.704C204.558 131.571 204.337 131.394 204.159 131.172C203.982 130.951 203.849 130.684 203.805 130.418C203.716 130.197 203.716 129.886 203.805 129.62ZM182.653 112.326C182.697 112.016 182.741 111.705 182.83 111.395C182.919 111.705 182.963 112.016 183.007 112.326C183.007 112.592 183.096 112.858 183.229 113.124C183.362 113.346 183.539 113.523 183.761 113.656C183.983 113.789 184.205 113.834 184.471 113.834C184.87 113.834 185.225 113.967 185.535 114.144C185.845 114.366 186.111 114.632 186.244 114.987C186.378 115.297 186.422 115.696 186.333 116.051C186.289 116.361 186.244 116.672 186.156 116.982C186.067 116.672 186.023 116.361 185.978 116.051C185.934 115.785 185.845 115.519 185.712 115.253C185.579 115.031 185.402 114.854 185.18 114.765C184.958 114.632 184.692 114.588 184.471 114.588C184.205 114.588 183.894 114.543 183.673 114.41C183.406 114.277 183.185 114.1 183.007 113.878C182.83 113.656 182.697 113.39 182.653 113.124C182.608 112.903 182.608 112.592 182.653 112.326ZM218.216 181.769C218.261 181.458 218.305 181.148 218.394 180.837C218.482 181.148 218.527 181.458 218.571 181.769C218.616 182.035 218.66 182.301 218.793 182.567C218.926 182.789 219.103 182.966 219.325 183.099C219.547 183.232 219.768 183.276 220.035 183.276C220.434 183.276 220.788 183.365 221.099 183.587C221.409 183.808 221.675 184.075 221.808 184.429C221.941 184.784 221.986 185.139 221.897 185.494C221.853 185.804 221.808 186.114 221.72 186.425C221.631 186.114 221.587 185.804 221.542 185.494C221.542 185.227 221.454 184.961 221.276 184.695C221.143 184.474 220.966 184.296 220.744 184.208C220.522 184.075 220.256 184.03 220.035 184.03C219.768 184.03 219.458 183.986 219.236 183.853C218.97 183.72 218.749 183.542 218.571 183.321C218.394 183.099 218.261 182.833 218.216 182.567C218.128 182.345 218.128 182.079 218.216 181.769ZM253.426 185.05C253.647 185.227 253.869 185.361 254.135 185.405C254.357 185.449 254.623 185.449 254.889 185.361C255.111 185.272 255.332 185.139 255.51 184.961C255.776 184.695 256.13 184.518 256.53 184.429C256.929 184.341 257.283 184.429 257.638 184.562C257.949 184.74 258.215 184.961 258.436 185.272C258.614 185.538 258.835 185.804 258.968 186.07C258.702 185.893 258.436 185.715 258.17 185.538C257.949 185.36 257.727 185.227 257.461 185.139C257.239 185.094 256.973 185.094 256.751 185.139C256.53 185.183 256.308 185.316 256.13 185.494C255.864 185.76 255.51 185.937 255.155 186.026C254.8 186.114 254.401 186.07 254.046 185.937C253.736 185.804 253.425 185.538 253.248 185.272C253.071 185.006 252.849 184.784 252.716 184.474C252.893 184.695 253.159 184.873 253.426 185.05ZM169.261 154.63C169.482 154.808 169.704 154.941 170.015 154.985C170.236 155.029 170.502 155.029 170.768 154.941C170.99 154.852 171.212 154.719 171.389 154.541C171.655 154.275 172.01 154.098 172.409 154.009C172.808 153.965 173.163 154.009 173.518 154.142C173.828 154.32 174.094 154.541 174.316 154.852C174.493 155.118 174.671 155.384 174.848 155.65C174.538 155.473 174.316 155.295 174.05 155.118C173.828 154.941 173.606 154.808 173.34 154.719C173.119 154.675 172.853 154.63 172.587 154.719C172.365 154.763 172.143 154.896 171.966 155.074C171.7 155.34 171.345 155.517 170.99 155.606C170.635 155.694 170.236 155.65 169.882 155.517C169.571 155.384 169.261 155.162 169.083 154.852C168.906 154.586 168.729 154.32 168.551 154.054C168.729 154.231 168.995 154.408 169.261 154.63ZM148.907 129.62C149.129 129.798 149.35 129.931 149.661 129.975C149.882 130.019 150.149 130.019 150.415 129.931C150.681 129.842 150.858 129.709 151.035 129.532C151.301 129.265 151.656 129.088 152.055 128.999C152.454 128.911 152.809 128.999 153.164 129.132C153.474 129.31 153.74 129.532 153.962 129.842C154.139 130.108 154.317 130.374 154.494 130.64C154.228 130.463 153.962 130.285 153.696 130.108C153.474 129.931 153.253 129.798 152.987 129.709C152.765 129.665 152.499 129.62 152.233 129.709C152.011 129.753 151.789 129.886 151.612 130.064C151.346 130.33 150.991 130.507 150.636 130.596C150.282 130.684 149.882 130.64 149.528 130.507C149.217 130.374 148.907 130.108 148.729 129.842C148.552 129.576 148.375 129.354 148.197 129.044C148.375 129.265 148.596 129.443 148.907 129.62ZM240.388 93.0808C240.61 93.2582 240.832 93.3912 241.098 93.4356C241.364 93.4799 241.586 93.4799 241.852 93.3912C242.073 93.3025 242.295 93.1695 242.473 92.9921C242.739 92.7261 243.093 92.5487 243.492 92.46C243.892 92.3713 244.246 92.46 244.601 92.593C244.911 92.7704 245.178 92.9921 245.399 93.3025C245.577 93.5686 245.798 93.8347 245.931 94.1007C245.621 93.9234 245.399 93.746 245.133 93.5686C244.911 93.3912 244.69 93.2582 244.424 93.1695C244.202 93.1251 243.936 93.1251 243.67 93.1695C243.448 93.2138 243.226 93.3469 243.049 93.5242C242.783 93.7903 242.428 93.9677 242.073 94.0564C241.719 94.1451 241.32 94.1007 240.965 93.9677C240.654 93.8346 240.344 93.5686 240.167 93.3025C239.989 93.0365 239.812 92.8147 239.635 92.5043C239.856 92.726 240.122 92.9034 240.388 93.0808ZM204.647 203.541C204.913 203.452 205.135 203.275 205.312 203.053C205.49 202.876 205.578 202.61 205.623 202.388C205.667 202.122 205.623 201.9 205.578 201.634C205.445 201.28 205.445 200.88 205.578 200.526C205.667 200.171 205.889 199.816 206.199 199.594C206.465 199.373 206.82 199.24 207.175 199.195C207.485 199.151 207.796 199.107 208.106 199.062C207.84 199.24 207.574 199.373 207.308 199.55C207.042 199.639 206.82 199.816 206.643 200.038C206.465 200.215 206.377 200.437 206.332 200.703C206.288 200.925 206.288 201.191 206.377 201.457C206.51 201.812 206.51 202.211 206.421 202.566C206.332 202.92 206.111 203.275 205.844 203.497C205.578 203.718 205.224 203.896 204.869 203.94C204.559 203.985 204.248 204.029 203.938 204.073C204.071 203.851 204.381 203.718 204.647 203.541ZM243.803 209.306C243.892 209.572 244.069 209.794 244.246 209.971C244.424 210.148 244.645 210.237 244.911 210.326C245.133 210.37 245.399 210.37 245.665 210.281C246.419 210.06 247.262 201.058 247.705 201.679C247.927 201.989 248.016 202.299 248.06 202.654C248.06 202.965 248.149 203.275 248.149 203.63C247.971 203.364 247.838 203.053 247.705 202.787C247.616 202.521 247.439 202.299 247.262 202.078C247.084 201.9 246.863 201.767 246.641 201.723C246.419 201.679 246.153 201.634 245.887 201.723C245.178 201.945 244.291 211.035 243.847 210.414C243.625 210.148 243.492 209.794 243.448 209.439C243.448 209.128 243.404 208.818 243.359 208.463C243.537 208.729 243.67 209.04 243.803 209.306Z" fill="white"/>
<path d="M186.155 36.3207C184.249 36.2764 182.386 35.6999 180.79 34.5913C179.238 33.4827 177.996 31.975 177.287 30.2012C176.577 28.4275 176.444 26.4764 176.843 24.6139C177.242 22.7515 178.218 21.022 179.592 19.6917C180.967 18.3614 182.696 17.4745 184.603 17.1198C186.51 16.765 188.417 16.9868 190.191 17.7849C191.964 18.5388 193.428 19.8248 194.492 21.4212C195.512 23.0175 196.088 24.9243 196.044 26.8311C196.044 28.1171 195.734 29.3587 195.246 30.5117C194.758 31.6646 194.004 32.7289 193.073 33.6157C192.142 34.5026 191.077 35.2121 189.88 35.6555C188.727 36.099 187.441 36.365 186.155 36.3207Z" fill="#21252B"/>
<path d="M185.801 19.47C185.801 19.47 174.848 61.9959 196.754 65.2773C215.689 68.1153 218.305 38.6266 218.305 38.6266L217.729 19.3813L185.801 19.47Z" fill="#FC9D9D"/>
<path d="M186.998 22.175L206.332 23.9488C206.909 23.9931 207.485 24.1705 207.973 24.4365C208.993 24.9687 209.791 25.8999 210.101 27.0085C210.279 27.5406 210.323 28.1614 210.279 28.6936C210.19 29.8465 210.545 30.9994 211.299 31.9307C212.052 32.8175 213.117 33.394 214.27 33.4827C214.447 33.4827 214.58 33.527 214.713 33.6157C214.846 33.7044 214.979 33.7931 215.068 33.9261C215.157 34.0592 215.245 34.1922 215.29 34.3252C215.334 34.4582 215.334 34.6356 215.334 34.7687L214.935 39.0257C214.891 39.2917 214.979 39.5578 215.157 39.7352C215.334 39.9569 215.556 40.0456 215.822 40.0899C216.043 40.1343 216.31 40.0456 216.487 39.9126C216.664 39.7795 216.797 39.5578 216.886 39.3361L217.817 35.2565L218.704 33.9261L223.227 36.8528C223.227 36.8528 230.854 25.5895 227.484 15.1687C225.577 9.22658 219.724 7.00938 216.975 6.65462C216.531 6.61028 216.088 6.43289 215.733 6.16682C215.378 5.90076 215.068 5.59038 214.846 5.19128C213.782 3.24015 211.033 -0.0856518 204.957 0.00303603C203.228 -0.0413079 201.543 0.402137 199.991 1.20033C198.439 1.99852 197.153 3.19578 196.222 4.61479C195.823 5.19126 195.246 5.6347 194.537 5.81208C193.871 5.98945 193.118 5.94513 192.497 5.63472C191.211 5.0139 189.748 4.70349 188.328 4.79217C186.909 4.88086 185.49 5.3243 184.293 6.12249C177.908 9.98041 180.258 20.9777 186.998 22.175Z" fill="#21252B"/>
<path opacity="0.15" d="M219.104 46.7422C218.749 46.7865 218.394 46.7865 218.04 46.6535C217.685 46.5648 217.375 46.3874 217.153 46.1213L219.326 50.8218L219.104 46.7422Z" fill="black"/>
<path d="M217.197 35.9215C217.197 35.9215 218.039 31.7532 222.429 32.9505C227.44 34.3251 228.061 45.2337 220.168 47.0075C215.999 47.9387 216.532 45.4111 216.753 42.0853L217.197 35.9215Z" fill="#FC9D9D"/>
<path opacity="0.15" d="M223.051 35.7001C222.696 35.4784 222.297 35.3454 221.898 35.3011C221.499 35.2567 221.055 35.301 220.7 35.4341C220.301 35.5671 219.947 35.7888 219.68 36.0992C219.414 36.4096 219.193 36.7644 219.06 37.1635C218.661 38.139 218.527 39.159 218.705 40.2232L218.749 41.1544C218.794 41.2431 218.882 41.3318 218.971 41.4205C219.06 41.4649 219.193 41.5092 219.281 41.4648C219.37 41.4648 219.503 41.4205 219.592 41.3318C219.68 41.2431 219.725 41.1545 219.725 41.0658L219.68 40.1345C219.592 39.292 219.68 38.4051 219.991 37.5626C220.035 37.2965 220.168 37.0305 220.39 36.8087C220.567 36.587 220.789 36.454 221.055 36.321C221.321 36.2323 221.587 36.1879 221.898 36.2323C222.164 36.2766 222.43 36.3653 222.651 36.5427C222.785 36.587 222.873 36.587 223.006 36.5427C223.139 36.4983 223.228 36.4096 223.272 36.2766C223.317 36.1436 223.317 36.0549 223.317 35.9219C223.228 35.8775 223.139 35.7445 223.051 35.7001Z" fill="black"/>
<g opacity="0.15">
<path opacity="0.15" d="M196.577 58.4471H196.622C198.307 58.048 199.194 57.8263 199.194 57.8263C199.327 57.7819 199.46 57.6932 199.504 57.5602C199.548 57.4272 199.593 57.2942 199.548 57.1168C199.504 56.9837 199.415 56.8507 199.282 56.762C199.149 56.6733 199.016 56.6733 198.839 56.6733C198.839 56.6733 197.996 56.895 196.311 57.2941C196.222 57.2941 196.178 57.3385 196.089 57.3828C196.045 57.4272 195.956 57.4715 195.956 57.5602C195.868 57.6932 195.868 57.8263 195.868 57.9593C195.912 58.0923 196.001 58.2254 196.089 58.3141C196.311 58.4028 196.444 58.4471 196.577 58.4471Z" fill="black"/>
</g>
<path d="M139.107 133.965L159.816 137.823V142.834L137.91 139.375L139.107 133.965Z" fill="white"/>
<path d="M201.1 41.4637C200.745 41.4637 200.435 41.3307 200.124 41.1533C199.858 40.9759 199.637 40.6655 199.504 40.3551C199.371 40.0447 199.371 39.69 199.415 39.3352C199.504 38.9805 199.681 38.6701 199.903 38.4484C200.169 38.2266 200.479 38.0493 200.79 38.0049C201.144 37.9606 201.499 38.0049 201.809 38.1379C202.12 38.271 202.386 38.4927 202.563 38.8031C202.741 39.1135 202.829 39.4239 202.829 39.7787C202.829 40.0004 202.785 40.2221 202.696 40.4438C202.608 40.6655 202.475 40.8429 202.297 41.0203C202.12 41.1977 201.942 41.2864 201.721 41.375C201.543 41.4637 201.322 41.5081 201.1 41.4637Z" fill="#21252B"/>
<path d="M200.346 39.5583C200.257 39.5583 200.213 39.5139 200.124 39.4696C200.08 39.4253 200.036 39.3809 199.991 39.2922C199.947 39.2036 199.947 39.1592 199.991 39.0705C199.991 38.9818 200.036 38.9375 200.08 38.8931C200.124 38.8488 200.213 38.8044 200.257 38.8044C200.302 38.8044 200.391 38.8045 200.479 38.8488C200.568 38.8931 200.612 38.9375 200.657 38.9818C200.701 39.0262 200.701 39.1149 200.701 39.2035C200.701 39.2479 200.701 39.2922 200.657 39.3366C200.657 39.3809 200.612 39.4253 200.568 39.4696C200.524 39.5139 200.479 39.514 200.435 39.5583C200.479 39.5583 200.435 39.5583 200.346 39.5583Z" fill="white"/>
<path d="M187.221 41.2418C186.866 41.2418 186.555 41.1088 186.245 40.9314C185.979 40.754 185.757 40.4436 185.624 40.1332C185.491 39.8228 185.491 39.4681 185.535 39.1133C185.624 38.7586 185.802 38.4481 186.023 38.2264C186.245 38.0047 186.6 37.8273 186.91 37.783C187.265 37.7386 187.62 37.783 187.93 37.916C188.24 38.049 188.506 38.2708 188.684 38.5812C188.861 38.8916 188.95 39.202 188.95 39.5567C188.95 39.7785 188.906 40.0002 188.817 40.2219C188.728 40.4436 188.595 40.621 188.418 40.7984C188.24 40.9757 188.063 41.0644 187.841 41.1531C187.664 41.1975 187.442 41.2418 187.221 41.2418Z" fill="#21252B"/>
<path d="M186.466 39.3364C186.378 39.3364 186.333 39.292 186.245 39.2477C186.2 39.2033 186.156 39.159 186.112 39.0703C186.067 38.9816 186.067 38.9373 186.112 38.8486C186.112 38.7599 186.156 38.7156 186.2 38.6712C186.245 38.6269 186.333 38.5825 186.378 38.5825C186.466 38.5825 186.511 38.5825 186.599 38.6269C186.688 38.6712 186.732 38.7156 186.777 38.7599C186.821 38.8042 186.821 38.8929 186.821 38.9816C186.821 39.026 186.821 39.0703 186.777 39.1147C186.777 39.159 186.732 39.2033 186.688 39.2477C186.644 39.292 186.599 39.292 186.555 39.3364C186.511 39.3807 186.555 39.3364 186.466 39.3364Z" fill="white"/>
<g opacity="0.15">
<path opacity="0.15" d="M193.473 49.0466L195.823 49.2684C195.911 49.2684 196 49.2684 196.044 49.224C196.133 49.1797 196.178 49.1354 196.222 49.091C196.266 49.0467 196.311 48.958 196.311 48.8693C196.311 48.7806 196.311 48.6919 196.311 48.6032C196.311 48.5589 196.266 48.4702 196.222 48.4258C196.178 48.3815 196.133 48.3372 196.089 48.2928C196.044 48.2485 195.956 48.2485 195.911 48.2485L193.561 48.0267C193.428 48.0267 193.295 47.9824 193.162 47.8937C193.029 47.8494 192.94 47.7607 192.852 47.6277C192.763 47.539 192.674 47.4059 192.674 47.2729C192.63 47.1399 192.63 47.0068 192.63 46.8738C192.63 46.7408 192.674 46.6077 192.763 46.4747C192.807 46.3417 192.896 46.253 193.029 46.1643C193.118 46.0756 193.251 46.0313 193.384 45.9869C193.517 45.9426 193.65 45.9426 193.783 45.9426C193.872 45.9426 193.916 45.9426 194.005 45.9426C194.093 45.9426 194.138 45.8983 194.182 45.8539C194.226 45.8096 194.271 45.7652 194.315 45.6765C194.359 45.6322 194.359 45.5435 194.359 45.4991C194.359 45.4104 194.359 45.3661 194.359 45.2774C194.359 45.2331 194.315 45.1444 194.271 45.1001C194.226 45.0557 194.182 45.0114 194.093 44.967C194.049 44.9227 193.96 44.9227 193.872 44.9227C193.606 44.8783 193.339 44.9227 193.073 45.0114C192.541 45.1887 192.098 45.5435 191.832 46.0313C191.699 46.253 191.61 46.519 191.61 46.8295C191.566 47.0955 191.61 47.3616 191.699 47.6277C191.787 47.8937 191.92 48.1154 192.098 48.3372C192.275 48.5589 192.497 48.7362 192.719 48.8249C192.94 48.958 193.206 49.0466 193.473 49.0466Z" fill="black"/>
</g>
<path d="M197.996 36.1877C198.129 36.1877 198.262 36.1429 198.395 36.0985C199.326 35.4777 200.435 35.1673 201.543 35.2116C202.652 35.2116 203.716 35.5664 204.647 36.2316C204.736 36.2759 204.825 36.3202 204.913 36.3646C205.002 36.4089 205.091 36.4089 205.179 36.3646C205.357 36.3202 205.534 36.2316 205.623 36.0985C205.667 36.0098 205.711 35.9216 205.756 35.8329C205.8 35.7442 205.8 35.6551 205.756 35.5664C205.756 35.4777 205.711 35.3895 205.667 35.3008C205.623 35.2121 205.578 35.1677 205.49 35.0791C204.337 34.2809 203.006 33.837 201.587 33.7926C200.213 33.7483 198.838 34.1478 197.641 34.946C197.508 35.0347 197.419 35.1234 197.375 35.3008C197.33 35.4338 197.33 35.6112 197.375 35.7442C197.419 35.8772 197.508 36.0098 197.597 36.0985C197.73 36.1872 197.863 36.232 197.996 36.2763V36.1877Z" fill="#21252B"/>
<path opacity="0.15" d="M267.882 122.038L262.871 209.616H232.584L237.107 164.696L267.882 122.038Z" fill="black"/>
<path opacity="0.15" d="M156.002 112.813L153.209 175.028C153.12 176.757 152.543 178.442 151.568 179.906C150.548 181.325 149.173 182.478 147.577 183.143L107.446 200.038L107.579 205.537L162.166 188.553L158.308 115.119L156.002 112.813Z" fill="black"/>
<path opacity="0.15" d="M218.749 143.456L237.861 106.606C238.038 106.251 238.304 106.029 238.659 105.896C239.014 105.763 239.369 105.763 239.723 105.896L244.025 107.848L226.908 152.635L223.36 151.393L222.873 152.857L177.908 133.611L176.356 129.399L218.749 143.456Z" fill="black"/>
<path d="M183.806 35.965C183.939 35.965 184.072 35.9206 184.205 35.8319C185.136 35.2111 186.244 34.9007 187.353 34.945C188.462 34.945 189.526 35.2998 190.457 35.965C190.59 36.098 190.812 36.1423 190.989 36.098C191.078 36.098 191.167 36.0537 191.255 36.0093C191.344 35.965 191.388 35.9206 191.477 35.8319C191.566 35.6989 191.654 35.5215 191.61 35.2998C191.61 35.2111 191.566 35.1224 191.521 35.0337C191.477 34.9451 191.433 34.9007 191.344 34.812C190.191 34.0138 188.861 33.5704 187.442 33.526C186.023 33.4817 184.692 33.8808 183.495 34.679C183.362 34.7677 183.273 34.9007 183.229 35.0337C183.185 35.1668 183.185 35.3441 183.229 35.4772C183.273 35.6102 183.362 35.7432 183.451 35.8319C183.584 35.9206 183.717 35.965 183.85 36.0093L183.806 35.965Z" fill="#21252B"/>
<path d="M240.477 104.388L226.065 135.296L255.953 147.579L268.28 120.086L240.477 104.388Z" fill="#464EB4"/>
<path d="M200.079 51.4424C200.124 51.4424 200.168 51.4424 200.212 51.4424C200.257 51.4424 200.301 51.4867 200.301 51.4867C200.345 51.5311 200.345 51.5311 200.39 51.5754C200.39 51.6198 200.434 51.6641 200.434 51.6641C200.434 51.7084 200.434 51.7528 200.434 51.7971C200.257 52.684 199.858 53.4822 199.281 54.103C198.66 54.7682 197.906 55.2116 197.064 55.4333C196.221 55.6551 195.29 55.6107 194.492 55.3446C193.649 55.0786 192.896 54.5908 192.319 53.8813C192.275 53.837 192.275 53.7926 192.23 53.7483C192.23 53.7039 192.23 53.6596 192.23 53.6152C192.23 53.5709 192.275 53.5266 192.319 53.4822C192.363 53.4379 192.408 53.4379 192.452 53.3935L200.079 51.4424Z" fill="white"/>
<path d="M225.977 77.0717L206.732 100.929L199.238 90.3749L187.398 98.2681L184.427 75.9631L187.708 74.9875L199.238 89.9758L220.744 74.9875L225.977 77.0717Z" fill="white"/>
<path d="M145.803 109.577C145.67 108.158 147.577 107.05 148.685 107.981L164.073 118.712L162.92 118.224C161.634 114.056 164.073 112.859 164.073 112.859L171.389 119.776L177.952 130.995L178.795 131.794L221.365 149.842L228.416 133.656L253.78 145.673L239.989 174.452C239.324 175.827 238.393 177.069 237.196 178.044C236.043 179.02 234.668 179.774 233.16 180.217C231.697 180.661 230.145 180.749 228.593 180.572C227.085 180.35 225.622 179.818 224.292 179.02L168.285 144.299C162.299 143.146 159.727 142.746 155.913 137.957L151.435 134.055C150.592 133.523 150.592 131.616 152.144 130.818C153.12 130.33 153.031 129.443 153.031 128.335C153.031 127.936 153.12 127.581 153.253 127.226C153.43 126.871 153.652 126.561 153.962 126.339C154.716 125.807 155.204 125.053 155.381 124.166C155.736 122.481 156.711 121.594 158.618 121.594C157.953 121.639 145.093 110.198 145.803 109.577Z" fill="#FC9D9D"/>
<path opacity="0.15" d="M166.29 141.371L170.236 142.036L221.764 170.105C237.284 178.398 242.295 169.618 242.872 168.509L239.989 174.495C239.324 175.87 238.393 177.112 237.196 178.087C236.043 179.063 234.668 179.817 233.161 180.26C231.697 180.704 230.145 180.792 228.593 180.615C227.085 180.393 225.622 179.861 224.292 179.063L168.285 144.342C162.831 142.967 161.19 143.676 157.377 139.552L155.958 138L152.366 134.852L151.435 133.965L156.623 137.513C159.461 139.508 162.787 140.794 166.29 141.371Z" fill="black"/>
<path opacity="0.15" d="M164.472 118.978L162.831 117.825C162.388 116.14 162.565 114.987 162.92 114.189C162.476 116.717 164.472 118.978 164.472 118.978Z" fill="black"/>
<path d="M258.303 142.39L228.46 130.196L225.843 135.473L255.731 147.756L258.303 142.39Z" fill="white"/>
<path opacity="0.7" d="M245.976 130.153C246.198 130.33 246.419 130.463 246.685 130.508C246.951 130.552 247.173 130.552 247.439 130.463C247.661 130.375 247.883 130.242 248.06 130.064C248.326 129.798 248.681 129.621 249.08 129.532C249.479 129.444 249.834 129.532 250.188 129.665C250.499 129.798 250.765 130.064 250.987 130.375C251.164 130.641 251.341 130.907 251.519 131.173C251.253 130.996 250.987 130.818 250.721 130.641C250.499 130.464 250.277 130.33 250.011 130.242C249.789 130.197 249.523 130.153 249.257 130.242C249.036 130.286 248.814 130.419 248.592 130.597C248.326 130.863 247.971 131.04 247.617 131.129C247.262 131.217 246.863 131.173 246.508 131.04C246.198 130.907 245.887 130.685 245.71 130.375C245.532 130.109 245.355 129.843 245.178 129.577C245.444 129.798 245.665 129.976 245.976 130.153Z" fill="white"/>
<path d="M165.979 203.099H29.9766C29.3557 203.099 28.7792 203.365 28.3358 203.764C27.8924 204.207 27.6263 204.783 27.6263 205.404V207.178C27.6263 207.799 27.8924 208.375 28.3358 208.819C28.7792 209.262 29.3557 209.528 29.9766 209.528H165.979C166.556 209.528 167.132 209.306 167.531 208.863C167.93 208.464 168.197 207.887 168.197 207.311V205.227C168.197 204.65 167.93 204.118 167.531 203.675C167.088 203.365 166.556 203.099 165.979 203.099Z" fill="#3F4249"/>
<path opacity="0.3" d="M165.979 203.099H29.9766C29.3557 203.099 28.7792 203.365 28.3358 203.764C27.8924 204.207 27.6263 204.783 27.6263 205.404V207.178C27.6263 207.799 27.8924 208.375 28.3358 208.819C28.7792 209.262 29.3557 209.528 29.9766 209.528H165.979C166.556 209.528 167.132 209.306 167.531 208.863C167.93 208.464 168.197 207.887 168.197 207.311V205.227C168.197 204.65 167.93 204.118 167.531 203.675C167.088 203.365 166.556 203.099 165.979 203.099Z" fill="black"/>
<path d="M28.9124 203.275H106.648L77.6911 145.628H0.000147891L28.9124 203.275Z" fill="#3F4249"/>
<path opacity="0.3" d="M28.9124 203.275H106.648L77.6911 145.628H0.000147891L28.9124 203.275Z" fill="black"/>
<path d="M165.669 202.92H106.736C106.204 202.92 105.716 203.142 105.361 203.496C105.006 203.851 104.785 204.384 104.785 204.872V207.355C104.785 207.887 105.006 208.375 105.361 208.774C105.716 209.129 106.248 209.351 106.736 209.351H165.669C166.245 209.351 166.822 209.129 167.221 208.686C167.62 208.286 167.886 207.71 167.886 207.133V205.049C167.886 204.473 167.62 203.941 167.221 203.496C166.822 203.142 166.245 202.92 165.669 202.92Z" fill="#3F4249"/>
<path d="M106.292 203.941L108.82 202.92L79.863 145.628H76.9806L106.292 203.941Z" fill="#3F4249"/>
<g opacity="0.3">
<path opacity="0.3" d="M30.2427 203.099H103.942C104.075 203.099 104.164 203.054 104.252 202.966C104.341 202.877 104.385 202.788 104.385 202.655C104.385 202.522 104.341 202.434 104.252 202.345C104.164 202.256 104.075 202.212 103.942 202.212H30.2427C30.1096 202.212 30.021 202.256 29.9323 202.345C29.8436 202.434 29.7992 202.522 29.7992 202.655C29.7992 202.788 29.8436 202.877 29.9323 202.966C30.021 203.054 30.1096 203.099 30.2427 203.099Z" fill="black"/>
</g>
<path d="M49.1331 181.237C46.5168 177.645 46.2951 173.344 48.601 171.614C50.9069 169.885 54.9422 171.481 57.5585 175.073C60.1747 178.665 60.3965 182.966 58.0906 184.696C55.7847 186.425 51.7494 184.829 49.1331 181.237Z" fill="#F4F4F4"/>
</svg>
