<svg width="184" height="223" viewBox="0 0 184 223" fill="none" xmlns="http://www.w3.org/2000/svg">
<path d="M156.933 104.531L167.523 121.931C168.879 124.042 169.355 126.598 168.854 129.055C168.352 131.512 166.911 133.677 164.837 135.087L124.435 159.976L117.35 150.849L143.911 124.967L138.538 116.982L156.933 104.531Z" fill="#FC9D9D"/>
<path d="M26.9915 104.531L16.4075 121.931C15.0509 124.041 14.5721 126.598 15.0744 129.056C15.5761 131.514 17.0186 133.678 19.0938 135.087L60.6375 159.976L67.7226 150.849L40.0201 124.967L45.4263 116.982L26.9915 104.531Z" fill="#FC9D9D"/>
<path d="M106.66 64.0414L77.8224 63.0408L52.7055 68.0776C50.6968 68.4322 48.7841 69.2032 47.0904 70.3415C45.3974 71.4798 43.9609 72.9593 42.8736 74.6859L25.6746 105.209L45.1032 118.311L54.5053 104.618V162.414H129.722V104.618L138.19 117.647L158.015 105.196L141.226 74.5583C140.116 72.737 138.62 71.1809 136.844 69.9996C135.067 68.8183 133.053 68.0407 130.944 67.7217L106.613 64.0414" fill="#3F4249"/>
<path d="M76.8272 35.1366L76.5518 63.1614C76.5471 63.788 76.7426 64.3998 77.1092 64.9075L77.3644 65.344C84.0198 75.6594 100.292 72.3553 105.537 67.0364C105.967 66.6764 106.297 66.2117 106.493 65.6865C106.689 65.1614 106.747 64.5945 106.659 64.0412L101.958 33.0815L76.8272 35.1366Z" fill="#FC9D9D"/>
<path d="M104.725 22.4035C104.725 22.4035 109.842 56.2375 91.1794 57.6075C72.9528 58.9843 72.3753 24.7742 72.3753 24.7742L71.8716 14.9759L95.3431 10.8591L101.273 13.9148L104.725 22.4035Z" fill="#FC9D9D"/>
<path opacity="0.15" d="M105.161 54.8006L103.818 45.4993C102.132 51.4897 98.6332 56.4862 92.5152 57.4869H92.5823L91.2727 57.6749C86.4038 58.0443 82.3408 55.8012 79.2851 50.9592C79.226 50.8692 79.134 50.8054 79.0286 50.7812C78.9231 50.7577 78.813 50.7758 78.721 50.8316C78.6753 50.8605 78.6364 50.8974 78.6055 50.9417C78.5746 50.986 78.5531 51.0357 78.5417 51.0881C78.5303 51.1405 78.5296 51.1949 78.5397 51.248C78.5498 51.3003 78.5699 51.3507 78.6001 51.3957C81.8438 56.5131 86.1486 58.8838 91.3601 58.5144C92.442 58.4345 93.5111 58.225 94.5433 57.8898C98.3485 58.2666 102.152 57.1605 105.161 54.8006Z" fill="black"/>
<path d="M100.293 14.8553C100.293 14.8553 106.223 10.9198 109.024 17.6624C111.401 23.344 107.405 29.5225 107.405 29.5225L103.974 29.1464C102.537 29.086 101.536 28.4009 101.415 27.0242L100.293 14.8553Z" fill="#21252B"/>
<path d="M104.538 10.7451C105.041 17.1788 99.548 18.8645 97.2982 19.0458L78.8836 20.6106C78.1616 20.6771 77.4928 21.0189 77.0166 21.5656C76.5398 22.1122 76.2926 22.8207 76.3249 23.5454L76.6405 29.4082C76.6687 29.7997 76.5452 30.1879 76.2953 30.4901C76.0448 30.793 75.6876 30.9878 75.2974 31.0334L74.1759 31.1543L72.9267 32.7191C65.6871 30.973 62.6919 10.4362 75.9891 6.31275C77.4182 5.85137 78.6069 4.84129 79.2933 3.50552C81.2274 -0.523928 89.1587 -1.55142 93.1546 2.94142C93.5447 3.39675 94.035 3.75469 94.5877 3.98773C95.1404 4.22144 95.7395 4.32286 96.3378 4.28458C101.166 4.17712 104.289 7.17235 104.538 10.7451Z" fill="#21252B"/>
<path d="M74.261 33.1421C74.2072 32.5968 74.0071 32.0763 73.6814 31.6358C73.3557 31.1959 72.9171 30.8514 72.4114 30.6399C71.9064 30.429 71.353 30.3585 70.8111 30.4357C70.2691 30.5129 69.758 30.7359 69.3316 31.0804L69.2712 31.1408C66.0879 33.8876 68.1496 42.5039 75.1407 41.7584L74.261 33.1421Z" fill="#FC9D9D"/>
<path d="M109.031 28.5822L108.971 28.5217C108.501 28.2471 107.965 28.1047 107.421 28.1087C106.877 28.1121 106.345 28.2625 105.879 28.5439C105.413 28.8246 105.031 29.2262 104.774 29.7057C104.517 30.1852 104.394 30.7245 104.418 31.2685L104.787 39.5087C111.845 39.2603 112.53 30.832 109.031 28.5822Z" fill="#FC9D9D"/>
<path d="M75.1414 34.2033C75.1542 34.4182 75.083 34.6297 74.9427 34.7929C74.8023 34.9554 74.6035 35.0575 74.3893 35.0763C74.1838 35.1059 73.9749 35.0582 73.8023 34.9433C73.6304 34.8278 73.5068 34.6526 73.4558 34.4518L72.6432 28.8777L74.9534 28.9381L75.1414 34.2033Z" fill="#21252B"/>
<path d="M105.846 31.9532C105.861 32.1674 105.791 32.3782 105.652 32.5421C105.513 32.7053 105.315 32.8074 105.1 32.8262C104.895 32.8558 104.685 32.8087 104.511 32.6932C104.337 32.5784 104.213 32.4031 104.16 32.2016L103.354 26.6477L105.664 26.7149L105.846 31.9532Z" fill="#21252B"/>
<path d="M97.4258 19.8446C97.1142 19.8842 96.7978 19.8842 96.4856 19.8446C96.4285 19.8453 96.3721 19.8345 96.319 19.8117C96.2666 19.7895 96.2189 19.7567 96.18 19.7143C96.141 19.6727 96.1115 19.6237 96.0927 19.5693C96.0739 19.5156 96.0665 19.4578 96.0712 19.4014C96.0759 19.3443 96.0927 19.2885 96.1195 19.2382C96.1471 19.1885 96.1847 19.1442 96.2304 19.1099C96.2754 19.075 96.3277 19.0501 96.3835 19.0367C96.4392 19.0233 96.497 19.0213 96.5527 19.032C96.6131 19.032 100.293 19.2201 101.858 16.7889C101.886 16.7433 101.923 16.7043 101.966 16.6734C102.01 16.6425 102.059 16.6211 102.111 16.609C102.162 16.5969 102.216 16.5955 102.268 16.6042C102.321 16.6137 102.371 16.6325 102.416 16.6613C102.506 16.7204 102.57 16.8124 102.594 16.9172C102.617 17.0226 102.6 17.1328 102.543 17.2255C101.166 19.2872 98.7353 19.7842 97.4258 19.8446Z" fill="#FC9D9D"/>
<path d="M83.5638 39.6227C83.8862 39.6241 84.2005 39.53 84.4691 39.3521C84.737 39.1741 84.9466 38.9209 85.0701 38.6241C85.1944 38.3273 85.2273 38.0002 85.1655 37.6846C85.1037 37.3689 84.9493 37.0788 84.7223 36.8511C84.4953 36.6228 84.2058 36.4676 83.8902 36.4038C83.5752 36.3407 83.2475 36.373 82.9506 36.4952C82.6531 36.6181 82.3986 36.8263 82.22 37.0942C82.0413 37.3615 81.9453 37.6758 81.9453 37.9975C81.9453 38.4273 82.1159 38.8397 82.4194 39.1446C82.7223 39.4488 83.134 39.6207 83.5638 39.6227Z" fill="#21252B"/>
<path d="M83.6435 38.9915C83.6926 38.9929 83.7416 38.9835 83.7872 38.9653C83.8329 38.9472 83.8739 38.9204 83.9095 38.8861C83.9444 38.8512 83.9719 38.8102 83.9907 38.7652C84.0102 38.7202 84.0196 38.6712 84.0196 38.6222C84.0196 38.5228 83.98 38.4267 83.9095 38.3562C83.839 38.2857 83.7436 38.2461 83.6435 38.2461C83.5441 38.2461 83.4481 38.2857 83.3776 38.3562C83.3071 38.4267 83.2675 38.5228 83.2675 38.6222C83.2675 38.6712 83.2775 38.7202 83.2963 38.7652C83.3151 38.8102 83.3433 38.8512 83.3783 38.8861C83.4132 38.9204 83.4548 38.9472 83.5005 38.9653C83.5461 38.9835 83.5945 38.9929 83.6435 38.9915Z" fill="white"/>
<path d="M96.0483 38.6693C96.37 38.6707 96.685 38.5766 96.9529 38.3987C97.2215 38.2214 97.4311 37.9675 97.5546 37.6707C97.6789 37.3739 97.7118 37.0468 97.65 36.7311C97.5882 36.4155 97.4338 36.1254 97.2068 35.8977C96.9798 35.6694 96.6903 35.5143 96.3747 35.4505C96.059 35.3873 95.732 35.4196 95.4351 35.5425C95.1376 35.6647 94.8831 35.8736 94.7045 36.1408C94.5252 36.4081 94.4298 36.7224 94.4298 37.0441C94.4298 37.4739 94.6004 37.8863 94.9039 38.1912C95.2068 38.4954 95.6185 38.668 96.0483 38.6693Z" fill="#21252B"/>
<path d="M96.1282 38.1186C96.2028 38.1186 96.276 38.0958 96.3378 38.0542C96.4002 38.0125 96.4479 37.9534 96.4761 37.8849C96.5043 37.8157 96.5117 37.7398 96.4969 37.6666C96.4815 37.5934 96.4452 37.5263 96.3915 37.4739C96.3384 37.4215 96.2706 37.3866 96.1974 37.3725C96.1242 37.3591 96.0483 37.3671 95.9798 37.3967C95.9113 37.4262 95.8529 37.4753 95.8126 37.5384C95.7716 37.6008 95.7508 37.6741 95.7521 37.7493C95.7542 37.8473 95.7944 37.9413 95.865 38.0105C95.9348 38.0797 96.0295 38.1186 96.1282 38.1186Z" fill="white"/>
<g opacity="0.3">
<path opacity="0.3" d="M90.6219 44.0017L91.9651 43.8808C92.0269 43.8768 92.0873 43.86 92.1424 43.8324C92.1975 43.8049 92.2472 43.7666 92.2874 43.7196C92.3284 43.6726 92.3593 43.6182 92.3788 43.5598C92.3982 43.5014 92.4056 43.4389 92.4016 43.3771C92.3969 43.3153 92.3808 43.2556 92.3526 43.1998C92.325 43.1447 92.2868 43.095 92.2404 43.0547C92.1934 43.0145 92.139 42.9829 92.0806 42.9634C92.0215 42.9439 91.9597 42.9366 91.8979 42.9406L90.5884 43.0682C90.3211 43.0843 90.0585 42.9936 89.8584 42.8164C89.6582 42.6384 89.5367 42.3885 89.5206 42.1212C89.5044 41.854 89.5951 41.5914 89.7731 41.3913C89.9504 41.1911 90.2002 41.0696 90.4675 41.0535C90.5326 41.0555 90.5977 41.0434 90.6589 41.0179C90.7193 40.993 90.7737 40.9554 90.8187 40.9077C90.8644 40.8607 90.8986 40.8043 90.9208 40.7425C90.9429 40.6807 90.9524 40.6156 90.9477 40.5498C90.943 40.4846 90.9248 40.4208 90.8939 40.3631C90.863 40.3053 90.8207 40.2543 90.769 40.214C90.7173 40.1737 90.6582 40.1442 90.5944 40.128C90.5313 40.1119 90.4648 40.1092 90.4003 40.12C90.1478 40.1341 89.9007 40.1992 89.6744 40.312C89.448 40.4249 89.2472 40.5827 89.0834 40.7754C88.9202 40.9682 88.7979 41.1925 88.7241 41.4343C88.6502 41.676 88.6267 41.9305 88.6542 42.1817C88.6535 42.4335 88.7046 42.6834 88.8053 42.9144C88.9061 43.1454 89.0531 43.353 89.2385 43.5242C89.4232 43.6948 89.6421 43.8257 89.8799 43.9083C90.1183 43.9903 90.3708 44.0225 90.6219 44.0017Z" fill="black"/>
</g>
<path d="M137.195 200.203L122.42 197.517L120.459 211.62L134.945 213.192L137.195 200.203Z" fill="#FC9D9D"/>
<path opacity="0.15" d="M122.676 211.728L127.793 198.115L127.591 205.153C127.654 205.475 127.818 205.771 128.06 205.992C128.301 206.221 128.608 206.355 128.935 206.395L135.966 207.275L134.945 213.131L122.689 211.721L122.676 211.728Z" fill="black"/>
<path d="M146.919 222.567C144.325 222.197 141.946 220.915 140.203 218.96L138.188 216.657C136.962 215.26 135.389 214.205 133.628 213.608C132.186 213.104 130.964 212.117 130.172 210.807C129.381 209.505 129.069 207.96 129.29 206.449L129.33 206.153C129.592 204.32 130.567 202.668 132.043 201.553C133.519 200.438 135.375 199.955 137.208 200.203L149.813 201.956L146.919 222.567Z" fill="#464EB4"/>
<path d="M135.182 212.318C135.075 212.318 134.88 212.318 134.847 212.171C134.34 210.922 134.171 209.558 134.358 208.222C134.544 206.885 135.078 205.623 135.908 204.562C135.931 204.535 135.958 204.521 135.989 204.508C136.019 204.495 136.052 204.488 136.086 204.488C136.119 204.488 136.151 204.495 136.182 204.508C136.213 204.521 136.24 204.535 136.264 204.562C136.288 204.582 136.308 204.609 136.321 204.642C136.335 204.676 136.342 204.709 136.342 204.743C136.342 204.77 136.335 204.803 136.321 204.837C136.308 204.871 136.288 204.897 136.264 204.918C135.484 205.898 134.982 207.073 134.808 208.316C134.635 209.558 134.796 210.821 135.276 211.983C135.293 212.003 135.305 212.03 135.311 212.056C135.317 212.083 135.317 212.11 135.31 212.137C135.284 212.211 135.241 212.271 135.182 212.318Z" fill="white"/>
<path d="M136.866 213.353C136.765 213.393 136.564 213.353 136.537 213.205C136.029 211.956 135.861 210.593 136.047 209.256C136.233 207.92 136.768 206.657 137.598 205.596C137.62 205.576 137.648 205.556 137.677 205.542C137.707 205.529 137.74 205.522 137.773 205.522C137.805 205.522 137.837 205.529 137.867 205.542C137.897 205.556 137.924 205.576 137.947 205.596C137.971 205.616 137.989 205.65 138.002 205.677C138.016 205.71 138.022 205.744 138.022 205.777C138.022 205.804 138.016 205.838 138.002 205.871C137.989 205.898 137.971 205.932 137.947 205.952C137.166 206.933 136.662 208.108 136.489 209.35C136.315 210.593 136.478 211.862 136.96 213.017C136.971 213.044 136.976 213.071 136.976 213.098C136.976 213.118 136.971 213.145 136.96 213.171C136.98 213.272 136.92 213.359 136.866 213.353Z" fill="white"/>
<path d="M138.621 214.555C138.513 214.555 138.312 214.555 138.285 214.407C137.777 213.158 137.608 211.795 137.794 210.458C137.98 209.122 138.516 207.859 139.346 206.798C139.369 206.771 139.396 206.758 139.426 206.744C139.456 206.731 139.489 206.724 139.522 206.724C139.554 206.724 139.587 206.731 139.617 206.744C139.648 206.751 139.675 206.771 139.699 206.791C139.722 206.818 139.74 206.845 139.753 206.872C139.766 206.906 139.773 206.939 139.773 206.973C139.773 206.999 139.767 207.033 139.755 207.067C139.743 207.093 139.725 207.12 139.702 207.147C138.921 208.128 138.417 209.303 138.244 210.545C138.07 211.795 138.233 213.057 138.715 214.219C138.726 214.246 138.731 214.266 138.731 214.293C138.731 214.32 138.726 214.347 138.715 214.373C138.712 214.407 138.702 214.441 138.686 214.474C138.67 214.508 138.648 214.535 138.621 214.555Z" fill="white"/>
<path d="M148.613 222.856L146.934 222.621L149.815 201.963L151.494 202.198C151.61 202.211 151.724 202.252 151.825 202.312C151.927 202.373 152.017 202.453 152.088 202.547C152.159 202.641 152.211 202.749 152.24 202.863C152.27 202.977 152.276 203.098 152.259 203.212L149.633 222.016C149.608 222.265 149.486 222.486 149.296 222.647C149.104 222.802 148.859 222.876 148.613 222.856Z" fill="#464EB4"/>
<path opacity="0.3" d="M148.613 222.856L146.934 222.621L149.815 201.963L151.494 202.198C151.61 202.211 151.724 202.252 151.825 202.312C151.927 202.373 152.017 202.453 152.088 202.547C152.159 202.641 152.211 202.749 152.24 202.863C152.27 202.977 152.276 203.098 152.259 203.212L149.633 222.016C149.608 222.265 149.486 222.486 149.296 222.647C149.104 222.802 148.859 222.876 148.613 222.856Z" fill="black"/>
<path d="M48.3203 211.647L62.7189 209.397L60.093 195.428L45.4526 198.84L48.3203 211.647Z" fill="#FC9D9D"/>
<path opacity="0.15" d="M58.6684 210.002L48.3195 211.647L47.0233 205.851L54.0077 204.636C54.3307 204.582 54.6282 204.428 54.8579 204.192C55.0869 203.957 55.236 203.655 55.2837 203.333L57.1372 196.107L58.7221 209.995L58.6684 210.002Z" fill="black"/>
<path d="M32.947 201.184L45.4518 198.833C47.2711 198.498 49.1508 198.894 50.6793 199.935C52.2071 200.982 53.2588 202.588 53.6047 204.408L53.6651 204.703C53.96 206.214 53.7189 207.772 52.9835 209.122C52.2474 210.472 51.0634 211.52 49.6357 212.09C47.9057 212.775 46.3846 213.904 45.2234 215.354L43.2893 217.752C41.6466 219.787 39.3364 221.177 36.7683 221.667L32.947 201.184Z" fill="#464EB4"/>
<path d="M47.8777 210.666C47.8642 210.64 47.8575 210.613 47.8575 210.586C47.8575 210.559 47.8642 210.532 47.8777 210.505C48.3014 209.323 48.4002 208.047 48.1638 206.818C47.9274 205.583 47.3646 204.434 46.5345 203.494C46.511 203.474 46.4922 203.447 46.4795 203.413C46.466 203.387 46.46 203.353 46.46 203.319C46.46 203.286 46.466 203.252 46.4795 203.225C46.4922 203.192 46.511 203.165 46.5345 203.145C46.5567 203.118 46.5842 203.098 46.6151 203.084C46.646 203.071 46.6789 203.064 46.7125 203.064C46.7454 203.064 46.779 203.071 46.8092 203.084C46.8401 203.098 46.8676 203.118 46.8905 203.145C47.7682 204.172 48.3605 205.408 48.6097 206.731C48.8582 208.061 48.7541 209.424 48.3075 210.7C48.3075 210.854 48.0926 210.895 47.9851 210.861C47.9287 210.807 47.8911 210.74 47.8777 210.666Z" fill="white"/>
<path d="M46.265 211.781C46.2523 211.754 46.2449 211.727 46.2449 211.701C46.2449 211.674 46.2523 211.647 46.265 211.627C46.6888 210.445 46.7875 209.169 46.5511 207.933C46.3147 206.697 45.7526 205.549 44.9219 204.609C44.8977 204.589 44.8789 204.562 44.8655 204.528C44.852 204.501 44.8446 204.468 44.844 204.434C44.8426 204.401 44.848 204.367 44.8601 204.34C44.8715 204.307 44.889 204.28 44.9118 204.253C44.934 204.233 44.9608 204.213 44.991 204.199C45.0206 204.186 45.0528 204.179 45.0857 204.179C45.1186 204.179 45.1509 204.186 45.1818 204.192C45.2127 204.206 45.2402 204.226 45.2644 204.246C46.1428 205.267 46.7371 206.503 46.9856 207.832C47.2348 209.155 47.1293 210.525 46.6814 211.795C46.6814 211.949 46.4665 211.989 46.359 211.956C46.2516 211.922 46.2785 211.875 46.265 211.781Z" fill="white"/>
<path d="M44.572 213.064C44.5518 213.017 44.5518 212.957 44.572 212.91C44.9951 211.728 45.0931 210.452 44.8574 209.216C44.621 207.98 44.0589 206.832 43.2288 205.892C43.2053 205.872 43.1865 205.845 43.1738 205.811C43.161 205.784 43.1543 205.751 43.1543 205.717C43.1543 205.684 43.161 205.65 43.1738 205.623C43.1865 205.59 43.2053 205.563 43.2288 205.543C43.251 205.516 43.2779 205.496 43.3074 205.482C43.3376 205.469 43.3705 205.462 43.4035 205.462C43.4364 205.462 43.4686 205.469 43.4988 205.482C43.529 205.496 43.5559 205.516 43.5781 205.543C44.4585 206.563 45.0542 207.799 45.304 209.129C45.5538 210.452 45.4497 211.822 45.0018 213.091C45.0018 213.246 44.7802 213.286 44.6727 213.252C44.6157 213.205 44.5794 213.138 44.572 213.064Z" fill="white"/>
<path d="M34.0275 221.237L30.5152 202.56C30.493 202.446 30.4937 202.325 30.5179 202.211C30.5421 202.09 30.5884 201.983 30.6556 201.882C30.722 201.788 30.8073 201.701 30.9067 201.64C31.0061 201.573 31.1176 201.526 31.2338 201.506L32.8993 201.197L36.7541 221.694L35.0886 222.002C34.8469 222.036 34.6011 221.976 34.4029 221.835C34.2048 221.693 34.0705 221.479 34.0275 221.237Z" fill="#464EB4"/>
<path opacity="0.3" d="M34.0275 221.237L30.5152 202.56C30.493 202.446 30.4937 202.325 30.5179 202.211C30.5421 202.09 30.5884 201.983 30.6556 201.882C30.722 201.788 30.8073 201.701 30.9067 201.64C31.0061 201.573 31.1176 201.526 31.2338 201.506L32.8993 201.197L36.7541 221.694L35.0886 222.002C34.8469 222.036 34.6011 221.976 34.4029 221.835C34.2048 221.693 34.0705 221.479 34.0275 221.237Z" fill="black"/>
<path d="M100.54 31.0804L93.4883 31.4565L92.5548 31.5169L86.3763 31.893H86.3092L78.3846 32.3296C78.0763 32.3477 77.7748 32.4263 77.4974 32.5626C77.2201 32.6982 76.9723 32.8876 76.7688 33.1207C76.566 33.353 76.4108 33.6237 76.3135 33.9172C76.2161 34.21 76.1785 34.5195 76.202 34.8278L76.3229 36.6343C76.3511 37.4778 76.5478 38.3066 76.9004 39.0735C77.253 39.8398 77.7546 40.5282 78.3765 41.0983C78.9984 41.6685 79.7277 42.109 80.5222 42.3945C81.316 42.6792 82.1589 42.8028 83.0017 42.7584C83.8445 42.7135 84.6692 42.5012 85.4287 42.1339C86.1883 41.7665 86.8673 41.2514 87.4254 40.6188C87.9834 39.9862 88.4099 39.2488 88.6792 38.449C88.9491 37.6498 89.0566 36.8042 88.9955 35.9628L88.8679 34.1562C88.8424 33.6478 88.6463 33.163 88.3105 32.7795L90.7416 32.6586C90.4609 33.0804 90.3286 33.5834 90.3655 34.0891L90.4931 35.9023C90.6133 37.5598 91.3789 39.1044 92.6247 40.2038C93.8711 41.3031 95.499 41.87 97.1592 41.782C98.8186 41.694 100.377 40.9586 101.501 39.7337C102.624 38.5087 103.221 36.8916 103.166 35.2308L103.038 33.4175C103.038 33.0972 102.972 32.7795 102.844 32.4854C102.716 32.1912 102.53 31.9266 102.295 31.7077C102.062 31.4887 101.785 31.3195 101.483 31.2121C101.181 31.1039 100.86 31.0596 100.54 31.0804ZM87.9344 34.1428L88.062 35.9494C88.1453 37.3744 87.6584 38.774 86.7094 39.8398C85.7605 40.9062 84.4268 41.5516 83.0017 41.6342C81.5766 41.7168 80.1777 41.2306 79.1112 40.2817C78.0455 39.3327 77.4001 37.999 77.3168 36.5739L77.1892 34.7674C77.1738 34.3967 77.3007 34.034 77.5445 33.7546C77.7882 33.4746 78.1294 33.2986 78.4988 33.2631L86.4301 32.8265H86.4905C86.6732 32.8131 86.8565 32.8366 87.0291 32.8964C87.2024 32.9555 87.3615 33.0501 87.4965 33.173C87.6315 33.2966 87.7403 33.4464 87.8155 33.6129C87.8908 33.7795 87.9317 33.9601 87.9344 34.1428ZM102.226 35.1367C102.266 35.8426 102.168 36.549 101.936 37.2166C101.704 37.8841 101.343 38.4993 100.873 39.0272C100.403 39.555 99.834 39.9855 99.1974 40.2931C98.5614 40.6013 97.871 40.7806 97.1652 40.8216C96.4601 40.8626 95.7529 40.7645 95.0853 40.5322C94.4178 40.2998 93.8026 39.9385 93.2748 39.4691C92.7469 38.999 92.3171 38.4295 92.0088 37.7935C91.7013 37.1575 91.5213 36.4671 91.4803 35.7613L91.3527 33.9548C91.3373 33.5847 91.4649 33.2234 91.7087 32.9447C91.9524 32.666 92.2936 32.4914 92.6623 32.4572L93.6025 32.39L100.654 32.0206C101.03 32.0025 101.399 32.1328 101.679 32.3846C101.96 32.6358 102.129 32.9877 102.152 33.3638L102.226 35.1367Z" fill="#21252B"/>
<path d="M86.6254 46.56L94.5493 46.0026C94.5963 46.0012 94.6427 46.01 94.6857 46.0281C94.7287 46.0469 94.7669 46.0751 94.7972 46.1107C94.8274 46.1463 94.8496 46.1886 94.8616 46.2336C94.8731 46.2793 94.8744 46.3263 94.865 46.3719C94.6192 47.2618 94.1054 48.0542 93.3936 48.6419C92.6817 49.2295 91.8066 49.5841 90.8859 49.6573C89.9658 49.7305 89.0458 49.5189 88.25 49.0515C87.4542 48.5841 86.8209 47.883 86.4374 47.0435V47.0099C86.4052 46.9717 86.3843 46.9247 86.377 46.875C86.3696 46.8253 86.3756 46.7749 86.3951 46.7285C86.4145 46.6822 86.4461 46.6419 86.4864 46.6124C86.5274 46.5828 86.5751 46.5647 86.6254 46.56Z" fill="white"/>
<g opacity="0.3">
<path opacity="0.3" d="M72.5164 37.6085C72.3961 37.6031 72.2813 37.5567 72.1913 37.4775C72.1013 37.3976 72.0402 37.2901 72.0194 37.1719L71.8918 36.1713C71.873 35.3627 71.5634 34.587 71.0187 33.9887C70.9173 33.8993 70.7991 33.8315 70.6709 33.7885C70.5433 33.7462 70.4076 33.7294 70.2733 33.7402C70.1491 33.7623 70.0208 33.7355 69.9153 33.6657C69.8106 33.5951 69.7367 33.4877 69.7092 33.3641C69.6884 33.2399 69.7159 33.1129 69.7857 33.0082C69.8556 32.9034 69.9624 32.8289 70.0853 32.8C70.6131 32.7436 71.1436 32.8772 71.5829 33.1761C71.9717 33.534 72.2833 33.9672 72.4982 34.45C72.7131 34.9329 72.8266 35.4547 72.832 35.9833L72.9529 36.9839C72.9603 37.1216 72.9213 37.2585 72.8421 37.3714C72.7628 37.4849 72.648 37.5682 72.5164 37.6085Z" fill="black"/>
</g>
<g opacity="0.3">
<path opacity="0.3" d="M106.848 35.076C106.97 35.0639 107.083 35.0062 107.164 34.9142C107.245 34.8215 107.288 34.7019 107.284 34.579V33.5784C107.217 33.1848 107.233 32.7819 107.33 32.3944C107.427 32.0069 107.603 31.6443 107.849 31.3286C107.938 31.2158 108.051 31.1244 108.18 31.0606C108.309 30.9968 108.45 30.9619 108.594 30.9592C108.715 30.9539 108.83 30.9075 108.922 30.829C109.013 30.7497 109.075 30.6416 109.098 30.5227C109.093 30.4018 109.048 30.2857 108.968 30.1937C108.889 30.1023 108.781 30.0405 108.661 30.019C108.407 30.0291 108.158 30.0896 107.927 30.197C107.696 30.3038 107.489 30.4562 107.318 30.6436C106.693 31.2682 106.445 32.2688 106.505 33.6388V34.6395C106.351 34.9215 106.539 35.076 106.848 35.076Z" fill="black"/>
</g>
<path opacity="0.15" d="M124.436 159.976L123.804 160.413L164.851 135.088C166.924 133.676 168.363 131.511 168.865 129.055C169.367 126.597 168.891 124.042 167.537 121.931L165.476 118.573C165.476 118.573 170.774 127.64 158.014 135.658L122.085 158.526L124.436 159.976Z" fill="black"/>
<path opacity="0.15" d="M23.5127 134.691C14.8763 130.521 17.153 120.696 17.153 120.696L16.4075 121.931C15.0509 124.041 14.5721 126.598 15.0744 129.055C15.5761 131.513 17.0186 133.678 19.0938 135.087L60.8322 159.976L59.8853 159.486L62.7462 157.471L23.5127 134.691Z" fill="black"/>
<path d="M20.4832 156.518L54.5186 160.366H129.755L162.065 156.518L156.437 190.486H34.1967L21.6651 157.485" fill="#464EB4"/>
<path opacity="0.3" d="M20.4832 156.518L54.5186 160.366H129.755L162.065 156.518L156.437 190.486H34.1967L21.6651 157.485" fill="black"/>
<path d="M91.4089 183.401L146.599 161.326C152.254 159.067 158.096 157.313 164.06 156.081C167.291 155.415 170.652 155.855 173.603 157.331C177.728 159.386 180.868 162.994 182.333 167.363L182.622 168.23C183.863 171.917 183.591 175.946 181.863 179.432C180.908 181.366 179.54 183.058 177.856 184.401C176.172 185.751 174.214 186.705 172.119 187.209L59.6904 213.957L55.0431 196.02L91.4089 183.401Z" fill="#464EB4"/>
<path opacity="0.2" d="M181.868 179.431C183.596 175.946 183.869 171.916 182.627 168.23L182.338 167.363C181.494 164.838 180.078 162.539 178.201 160.647C178.201 160.647 183.722 179.539 163.803 183.857L136 190.674C131.904 191.674 127.632 191.708 123.522 190.768L91.998 183.575L102.71 203.722L172.117 187.208C174.213 186.705 176.173 185.751 177.858 184.408C179.543 183.058 180.912 181.366 181.868 179.431Z" fill="black"/>
<path d="M91.9981 183.582L36.7878 161.514C31.1345 159.252 25.2911 157.496 19.3269 156.269C16.0966 155.6 12.7353 156.038 9.78377 157.511C5.6603 159.568 2.52135 163.176 1.05329 167.545L0.764516 168.411C-0.474541 172.098 -0.199185 176.127 1.53012 179.613C2.49182 181.54 3.86586 183.239 5.55621 184.582C7.2459 185.919 9.20959 186.873 11.3083 187.369L125.154 214.118L128.384 196.181L91.9981 183.582Z" fill="#464EB4"/>
<path opacity="0.2" d="M55.68 198.974L83.5436 208.276L91.2735 206.422L55.4785 197.927L55.68 198.974Z" fill="black"/>
<path opacity="0.2" d="M125.941 211.398L28.0385 185.388C25.688 184.717 23.3375 184.206 20.94 183.682C1.24267 179.344 1.73292 165.852 1.73292 165.852C1.48444 166.403 1.2561 166.967 1.06135 167.544L0.772573 168.411C-0.466484 172.098 -0.191128 176.127 1.53818 179.613C2.4992 181.54 3.8719 183.239 5.56091 184.576C7.24925 185.919 9.21226 186.872 11.3096 187.369L125.155 214.118L125.941 211.398Z" fill="black"/>
<path d="M128.956 177.967H55.7141L52.1682 129.688C52.1534 129.429 52.1924 129.17 52.281 128.927C52.3697 128.683 52.5074 128.46 52.6853 128.272C52.8633 128.083 53.0775 127.933 53.3153 127.83C53.553 127.727 53.8096 127.674 54.0688 127.673H130.595C130.854 127.674 131.111 127.727 131.348 127.83C131.586 127.933 131.801 128.083 131.979 128.272C132.156 128.46 132.294 128.683 132.383 128.927C132.472 129.17 132.51 129.429 132.495 129.688L128.956 177.967Z" fill="#21252B"/>
<path opacity="0.3" d="M128.956 177.967H55.7141L52.1682 129.688C52.1534 129.429 52.1924 129.17 52.281 128.927C52.3697 128.683 52.5074 128.46 52.6853 128.272C52.8633 128.083 53.0775 127.933 53.3153 127.83C53.553 127.727 53.8096 127.674 54.0688 127.673H130.595C130.854 127.674 131.111 127.727 131.348 127.83C131.586 127.933 131.801 128.083 131.979 128.272C132.156 128.46 132.294 128.683 132.383 128.927C132.472 129.17 132.51 129.429 132.495 129.688L128.956 177.967Z" fill="black"/>
<path d="M128.956 179.357H55.7141L52.1682 131.078C52.1534 130.818 52.1924 130.56 52.281 130.316C52.3697 130.072 52.5074 129.85 52.6853 129.661C52.8633 129.473 53.0775 129.322 53.3153 129.219C53.553 129.117 53.8096 129.063 54.0688 129.063H130.595C130.854 129.063 131.111 129.117 131.348 129.219C131.586 129.322 131.801 129.473 131.979 129.661C132.156 129.85 132.294 130.072 132.383 130.316C132.472 130.56 132.51 130.818 132.495 131.078L128.956 179.357Z" fill="#21252B"/>
<path opacity="0.4" d="M55.7142 175.65H128.976C129.043 175.65 129.107 175.677 129.154 175.724C129.202 175.771 129.23 175.832 129.232 175.899V179.102C129.232 179.169 129.205 179.237 129.157 179.284C129.109 179.331 129.044 179.357 128.976 179.357H55.9358C55.8714 179.357 55.8096 179.331 55.7619 179.29C55.7149 179.243 55.6853 179.19 55.6806 179.122L55.4456 175.919C55.4422 175.885 55.4476 175.845 55.4597 175.812C55.4718 175.778 55.4919 175.751 55.5174 175.724C55.5429 175.697 55.5738 175.677 55.6081 175.664C55.6417 175.65 55.6779 175.65 55.7142 175.65Z" fill="black"/>
<path d="M155.473 100.31L135.204 113.34L137.457 116.843L157.726 103.813L155.473 100.31Z" fill="white"/>
<path d="M25.4019 105.01L45.2973 118.663L47.6572 115.224L27.7618 101.571L25.4019 105.01Z" fill="white"/>
<path d="M91.6354 74.545C89.6925 74.5503 87.7577 74.2884 85.8867 73.766C83.238 73.046 80.7586 71.8076 78.5921 70.122C76.4262 68.437 74.6163 66.3376 73.2678 63.9475L76.5518 63.155C76.6526 63.3834 79.406 68.5277 86.7799 70.576C90.718 71.6223 94.8858 71.404 98.6937 69.9514C101.622 68.8836 105.712 67.2651 106.659 64.0348L109.889 64.5183C108.834 68.1046 105.047 71.1602 99.8152 73.0608C97.1954 74.0272 94.4272 74.5295 91.6354 74.545Z" fill="white"/>
<path opacity="0.3" d="M129.755 104.618L125.806 99.937L125.154 127.64H129.943L129.755 104.618Z" fill="black"/>
<path d="M90.4998 160C89.5981 160 88.7171 159.727 87.9712 159.216C87.2254 158.706 86.6489 157.981 86.3166 157.136C85.9844 156.291 85.9116 155.365 86.1078 154.479C86.304 153.592 86.76 152.785 87.4169 152.162C88.2221 151.398 90.1998 150.023 89.8998 147C93.4999 149.419 95.3 151.837 91.6999 155.465C92.2999 155.465 93.1999 155.465 94.7 153.972C94.862 154.439 95 154.941 95 155.465C95 156.668 94.5259 157.821 93.6819 158.672C92.838 159.522 91.6933 160 90.4998 160Z" fill="#14161A"/>
</svg>
