<svg width="288" height="241" viewBox="0 0 288 241" fill="none" xmlns="http://www.w3.org/2000/svg">
<g opacity="0.3">
<path opacity="0.3" d="M214.819 43.3308L216.96 43.4619C217.223 43.4619 217.412 43.2652 217.478 43.0102C217.478 42.748 217.281 42.5586 217.026 42.493L214.884 42.3619C214.367 42.2963 213.908 41.8447 213.974 41.3201C214.039 40.8029 214.491 40.344 215.015 40.4095C215.278 40.4095 215.467 40.2128 215.533 39.9579C215.598 39.6956 215.336 39.5062 215.081 39.4406C214.039 39.3751 213.128 40.1545 212.997 41.1963C212.997 42.3546 213.784 43.2652 214.819 43.3308Z" fill="black"/>
</g>
<path opacity="0.4" d="M213.026 96.3361L203.884 83.857L193.823 95.0175L201.108 74.0952L209.486 67.2546C209.486 67.2546 208.532 68.0341 207.723 72.5653C207.177 75.625 207.184 81.1397 207.184 81.1397C207.621 83.7113 208.954 87.1862 209.952 89.4883L213.026 96.3361Z" fill="black"/>
<path opacity="0.4" d="M231.844 93.8155L239.245 89.1022L253.21 99.4905L245.845 76.1131L239.842 67.6189L239.893 71.8587C239.981 79.4642 237.555 86.9531 232.71 92.8102C232.419 93.1599 232.135 93.4877 231.844 93.8155Z" fill="black"/>
<path d="M237.089 7.16113C245.255 7.16113 247.994 16.311 247.994 27.3696C247.994 38.4208 245.547 44.8972 237.38 44.8972C229.214 44.8972 222.592 38.4208 222.592 27.3696C222.592 16.311 228.922 7.16113 237.089 7.16113Z" fill="#3F4249"/>
<path d="M235.886 216.188C226.787 135.646 243.164 86.4287 248.956 69.462L239.791 66.9924L209.5 67.2547L205.661 68.617C204.882 83.6968 194.093 151.308 183.69 216.123H235.894V216.188H235.886Z" fill="white"/>
<path d="M210.01 31.7551C210.01 31.7551 236.535 15.1163 237.577 35.4631L237.97 40.7301L239.791 67.3858C239.791 68.1652 209.69 68.4275 209.821 67.4513L211.511 51.6576C211.183 50.2953 210.994 48.729 210.994 46.9733C210.724 38.9745 210.01 31.7551 210.01 31.7551Z" fill="#F79898"/>
<path d="M242.778 68.1797C242.829 68.4784 242.844 68.7553 242.844 69.0612C242.844 74.6342 234.765 79.1436 224.799 79.1436C214.833 79.1436 206.754 74.6269 206.754 69.0612C206.754 68.4566 206.849 67.8592 207.031 67.2837" fill="#464EB4"/>
<path d="M224.806 76.499C233.111 76.499 239.842 72.7385 239.842 68.0995C239.842 63.4604 233.111 59.7 224.806 59.7C216.501 59.7 209.77 63.4604 209.77 68.0995C209.77 72.7385 216.501 76.499 224.806 76.499Z" fill="#F79898"/>
<path d="M207.672 32.9863C212.626 32.9863 216.64 28.9716 216.64 24.0185C216.64 19.0655 212.626 15.0508 207.672 15.0508C202.718 15.0508 198.704 19.0655 198.704 24.0185C198.704 28.9716 202.718 32.9863 207.672 32.9863Z" fill="#3F4249"/>
<path d="M207.016 17.3889C207.016 17.3889 197.59 56.917 217.871 59.576C235.42 61.9145 237.373 34.5449 237.373 34.5449L236.528 16.7988L207.016 17.3889Z" fill="#F79898"/>
<path d="M234.32 29.8755C234.524 39.426 230.751 44.8533 230.751 44.8533C209.02 41.9175 205.647 45.9096 205.647 45.9096C205.647 45.9096 206.965 56.7496 215.926 59.0954C224.879 61.4411 238.407 55.9046 238.363 43.6513C238.349 40.6208 233.388 24.2588 233.388 24.2588L234.32 29.8755Z" fill="#3F4249"/>
<g opacity="0.3">
<path opacity="0.3" d="M216.377 52.1674C216.377 52.233 216.443 52.233 216.377 52.1674C218.068 52.2985 218.847 52.3641 218.847 52.3641C219.175 52.3641 219.364 52.1674 219.43 51.8469C219.43 51.519 219.233 51.2641 218.913 51.2641C218.913 51.2641 218.133 51.1985 216.509 51.0674C216.181 51.0674 215.926 51.2641 215.926 51.519C215.926 51.9124 216.122 52.1674 216.377 52.1674Z" fill="black"/>
</g>
<path d="M215.532 49.858C219.954 50.5064 221.965 48.1023 222.686 46.9295C222.817 46.6672 222.686 45.7347 222.424 45.538C222.162 45.4069 212.997 47.7454 212.866 48.0076C212.8 48.2699 212.997 49.2024 213.259 49.3335C214.104 49.5958 214.884 49.7924 215.532 49.858Z" fill="white"/>
<path d="M217.15 22.831C225.098 22.831 231.545 17.7199 231.545 11.4155C231.545 5.1111 225.098 0 217.15 0C209.202 0 202.755 5.1111 202.755 11.4155C202.755 17.7199 209.202 22.831 217.15 22.831Z" fill="#3F4249"/>
<path d="M235.821 7.35059C240.797 7.35059 244.84 12.4428 244.84 18.7224C244.84 25.002 240.804 31.4565 235.821 31.4565C230.838 31.4565 226.802 25.002 226.802 18.7224C226.802 12.4428 230.845 7.35059 235.821 7.35059Z" fill="#3F4249"/>
<path opacity="0.15" d="M237.963 42.0269C237.963 42.0269 236.272 42.158 235.362 41.4441L238.225 45.8661L237.963 42.0269Z" fill="black"/>
<path d="M235.471 31.398C235.471 31.398 238.291 27.792 242.188 29.4821C246.61 31.4345 245.699 41.444 238.225 42.0268C234.328 42.3546 235.107 40.0744 235.756 37.022C235.821 33.3795 235.471 31.398 235.471 31.398Z" fill="#F79898"/>
<path opacity="0.3" d="M242.385 32.0829C241.605 31.5656 240.891 31.369 240.243 31.5001C239.595 31.6312 239.005 32.0829 238.553 32.8624C238.101 33.6419 237.839 34.5525 237.839 35.5942L237.773 36.4393C237.773 36.7015 237.97 36.8909 238.225 36.8909C238.487 36.8909 238.677 36.6943 238.677 36.4393L238.742 35.5942C238.742 35.332 238.873 34.0353 239.325 33.3213C239.653 32.8041 240.039 32.4763 240.432 32.3451C240.826 32.2796 241.343 32.4107 241.86 32.7385C242.057 32.8697 242.378 32.8041 242.509 32.6074C242.647 32.5345 242.582 32.2796 242.385 32.0829Z" fill="black"/>
<path d="M206.885 20.58C207.672 21.1701 209.384 21.9568 209.384 21.9568C209.566 22.0224 209.857 21.9932 209.945 21.7528C210.032 21.5124 209.981 21.2793 209.741 21.1919C209.741 21.1919 207.38 19.7932 207.162 19.6402C206.739 19.276 206.069 18.7879 205.333 17.9501C205.195 17.7607 204.933 17.7316 204.743 17.87C204.554 18.0084 204.525 18.2706 204.663 18.4601C205.341 19.3998 206.623 20.376 206.885 20.58Z" fill="#F79898"/>
<path opacity="0.15" d="M210.411 62.461L210.987 56.3999C213.157 58.4834 216.742 60.0934 222.329 59.5179C222.329 59.5179 226.117 59.241 230.161 57.0628C230.452 56.8807 230.634 56.8589 230.809 57.0118C230.947 57.2012 230.882 57.3761 230.722 57.5291C229.927 58.2066 226.904 59.7146 222.162 60.4066C215.554 64.6319 210.411 62.461 210.411 62.461Z" fill="black"/>
<path d="M221.579 37.481C222.475 37.481 223.203 36.7533 223.203 35.8565C223.203 34.959 222.475 34.2319 221.579 34.2319C220.683 34.2319 219.954 34.959 219.954 35.8565C219.954 36.7533 220.683 37.481 221.579 37.481Z" fill="#21252B"/>
<path d="M220.865 35.6598C221.047 35.6598 221.193 35.5126 221.193 35.332C221.193 35.1506 221.047 35.0042 220.865 35.0042C220.683 35.0042 220.537 35.1506 220.537 35.332C220.537 35.5126 220.683 35.6598 220.865 35.6598Z" fill="white"/>
<path d="M208.714 37.5394C209.61 37.5394 210.338 36.8116 210.338 35.9148C210.338 35.0173 209.61 34.2903 208.714 34.2903C207.818 34.2903 207.089 35.0173 207.089 35.9148C207.089 36.8116 207.818 37.5394 208.714 37.5394Z" fill="#21252B"/>
<path d="M207.992 35.7247C208.174 35.7247 208.32 35.5783 208.32 35.3969C208.32 35.2162 208.174 35.0691 207.992 35.0691C207.81 35.0691 207.665 35.2162 207.665 35.3969C207.665 35.5783 207.81 35.7247 207.992 35.7247Z" fill="white"/>
<path d="M201.757 34.0353V35.8565C201.757 39.3679 204.62 42.2309 208.131 42.2309C211.642 42.2309 214.505 39.3679 214.505 35.8565V34.0353C214.505 33.5181 214.374 32.9935 214.054 32.6074H216.523C216.195 33.0008 216.006 33.5181 216.006 34.0353V35.8565C216.006 39.3679 218.869 42.2309 222.38 42.2309C225.892 42.2309 228.755 39.3679 228.755 35.8565V34.0353C228.755 32.7386 227.713 31.6968 226.416 31.6968H218.417H218.352H212.174H211.198H204.11C202.791 31.6895 201.757 32.7313 201.757 34.0353ZM218.264 32.6657H218.33H226.329C227.108 32.6657 227.757 33.3141 227.757 34.0936V35.9148C227.757 38.9016 225.287 41.313 222.293 41.313C219.306 41.313 216.895 38.8434 216.895 35.8492V34.028C216.902 33.2558 217.55 32.6657 218.264 32.6657ZM202.602 34.1009C202.602 33.3214 203.25 32.673 204.029 32.673H211.118H212.094C212.873 32.673 213.522 33.3214 213.522 34.1009V35.9221C213.522 38.9089 211.052 41.3202 208.058 41.3202C205.071 41.3202 202.66 38.8506 202.66 35.8565L202.602 34.1009Z" fill="#21252B"/>
<g opacity="0.15">
<path opacity="0.15" d="M186.415 204.423H241.606C241.933 204.423 242.123 204.16 242.123 203.905C242.123 203.643 241.861 203.388 241.606 203.388H186.415C186.087 203.388 185.898 203.65 185.898 203.905C185.89 204.16 186.087 204.423 186.415 204.423Z" fill="black"/>
</g>
<path opacity="0.15" d="M207.672 68.0339C207.672 68.0339 205.334 148.904 199.156 203.512H191.223L207.672 68.0339Z" fill="black"/>
<path opacity="0.15" d="M178.744 239.915C178.678 239.915 178.612 239.849 178.547 239.849L183.289 203.512H199.083L196.22 229.84C195.317 238.225 186.48 243.361 178.744 239.915Z" fill="black"/>
<g opacity="0.15">
<path opacity="0.15" d="M195.12 78.1746H220.275L222.162 79.7991C222.613 80.1925 223.269 80.2508 223.786 79.8647L226.256 78.1746H253.888V81.0375H195.12V78.1746Z" fill="#464EB4"/>
<path opacity="0.15" d="M253.888 90.457H195.12V93.32H253.888V90.457Z" fill="#464EB4"/>
<path opacity="0.15" d="M253.888 102.812H195.12V105.675H253.888V102.812Z" fill="black"/>
<path opacity="0.15" d="M253.888 115.102H195.12V117.965H253.888V115.102Z" fill="black"/>
<path opacity="0.15" d="M253.888 127.45H195.12V130.313H253.888V127.45Z" fill="black"/>
<path opacity="0.15" d="M253.888 139.74H195.12V142.603H253.888V139.74Z" fill="black"/>
<path opacity="0.15" d="M253.888 152.088H195.12V154.951H253.888V152.088Z" fill="black"/>
<path opacity="0.15" d="M253.895 164.377H192.199V167.24H253.895V164.377Z" fill="black"/>
<path opacity="0.15" d="M253.888 176.725H190.247V179.588H253.888V176.725Z" fill="black"/>
<path opacity="0.15" d="M253.895 189.015H186.415V191.878H253.895V189.015Z" fill="black"/>
</g>
<path d="M270.694 239.711L272.377 239.878L271.954 142.595L286.058 98.4632C287.865 93.4511 287.704 87.849 285.242 83.1211C283.253 79.2965 281.425 76.5063 276.355 74.5103L239.842 67.626C239.842 67.626 240.469 78.6335 236.55 87.0986C234.473 91.5716 227.079 99.4976 226.744 100.263C225.578 102.922 224.712 193.75 226.307 237.037L266.374 239.791C267.62 239.813 268.778 239.791 268.778 239.791C268.975 239.66 269.295 231.173 269.295 231.173L270.694 239.711Z" fill="#21252B"/>
<path d="M170.097 97.4798L173.622 237.802C173.637 237.963 197.022 237.708 197.022 237.708C199.987 227.421 213.027 96.3361 213.027 96.3361C213.027 96.3361 207.213 84.2941 207.213 80.5278C207.213 69.2142 209.486 67.2473 209.486 67.2473L184.521 75.5011C176.988 77.8469 169.638 87.2081 170.097 97.4798Z" fill="#21252B"/>
<path d="M185.329 134.706L180.179 131.537C178.277 130.379 176.259 129.381 174.117 128.645L165.164 126.285C164.946 126.204 164.713 126.219 164.545 126.423C163.627 128.222 164.472 129.687 166.097 130.801C167.146 131.464 168.945 132.382 170.038 132.775C170.948 133.14 170.351 133.744 169.827 133.577L151.796 130.554C150.988 130.43 150.172 130.954 150.012 131.712C149.837 132.564 150.31 133.417 151.155 133.591C154.492 134.415 162.17 136.352 162.17 136.352L149.232 135.653C148.409 135.624 147.666 136.25 147.549 137.059C147.44 138.101 148.183 138.997 149.174 139.143C153.195 139.696 162.513 141.146 162.513 141.146L151.184 140.782C150.398 140.803 149.8 141.401 149.771 142.231C149.742 143.055 150.325 143.747 151.141 143.863C154.594 144.198 161.595 145.429 161.595 145.429L154.441 145.189C153.836 145.24 153.377 145.816 153.392 146.369C153.443 146.974 153.873 147.455 154.455 147.586L181.665 151.76L191.375 154.922L207.577 140.942L185.329 134.706Z" fill="#F79898"/>
<path opacity="0.15" d="M185.824 134.823L180.237 151.454L181.679 151.673L182.736 152.015L185.824 134.823Z" fill="black"/>
<path d="M286.663 96.8095L263.766 168.042C261.34 175.589 253.057 179.486 245.707 176.645L180.681 151.643L186.109 134.75L238.123 147.986L256.598 85.8457" fill="#21252B"/>
<path opacity="0.4" d="M246.006 167.663C251.083 169.499 256.831 167.116 258.885 160.742L279.48 93.4803C281.316 86.2828 280.959 80.1634 276.355 74.5176L277.557 75.2461C285.912 80.0469 289.351 90.1656 285.993 98.9221L263.788 167.991C261.362 175.538 253.057 179.494 245.685 176.514L180.681 151.658L181.934 147.76L246.006 167.663Z" fill="black"/>
<path opacity="0.4" d="M203.264 139.179L203.665 138.144L230.321 144.868L248.584 110.032C248.788 109.617 249.407 109.821 249.305 110.33L238.035 148.03L229.833 145.939L203.264 139.179Z" fill="black"/>
<g opacity="0.15">
<path opacity="0.15" d="M176.281 125.184C172.107 122.722 173.404 118.409 173.404 118.409L174.089 118.613C174.023 118.752 172.923 122.445 176.689 124.638L176.281 125.184Z" fill="black"/>
</g>
<path d="M209.493 67.2546L39.7759 70.0302V89.7724L129.432 95.3526L181.111 105.675" fill="#21252B"/>
<path d="M19.6476 72.864L9.16452 75.6687L2.01794 80.0396L6.83328 80.0323L12.5083 80.0396H27.5663C27.9378 80.2727 28.2292 80.5569 28.4405 80.8774C31.0703 85.0225 21.1555 85.3576 20.8714 87.565C20.8714 87.5868 20.8641 87.6087 20.8641 87.6305C20.7257 89.0948 22.0006 90.3041 23.4649 90.1875C26.6994 89.9326 35.1427 89.9836 41.6991 80.4112L40.9778 70.001C40.9778 70.001 19.837 70.1467 18.5621 70.4016C17.8773 70.5401 8.88769 73.7527 8.88769 73.7527C8.88769 73.7527 0.167554 79.9376 0 80.0323L9.76913 80.0251" fill="#F79898"/>
<path opacity="0.2" d="M3.86816 79.8939L10.8398 75.6686L21.1334 73.8474" stroke="black" stroke-miterlimit="10" stroke-linecap="round" stroke-linejoin="round"/>
</svg>
