<svg width="191" height="52" viewBox="0 0 191 52" fill="none" xmlns="http://www.w3.org/2000/svg">
<path fill-rule="evenodd" clip-rule="evenodd" d="M26.263 48.6478C23.3896 49.1562 20.4662 49.3082 17.4414 49.7144L8.21655 22.4964V50.8826C5.34311 51.1871 2.72202 51.5933 0 51.9994V0.000581855H7.66251L18.1474 29.5041V0.000581855H26.263V48.6478ZM42.1421 19.0431C45.2679 19.0431 50.0563 18.8906 52.9298 18.8906V27.0151C49.3503 27.0151 45.1669 27.0151 42.1421 27.1677V39.2533C46.8807 38.9489 51.6192 38.5421 56.4077 38.3896V46.2091L34.0764 47.9868V0H56.4077V8.12511H42.1421V19.0431ZM86.401 8.12569H78.0331V45.4996C75.3111 45.4996 72.589 45.4996 69.968 45.6007V8.12511H61.6V0H86.401L86.4005 8.12511L86.401 8.12569ZM99.507 18.485H110.547V26.6095H99.507V45.0431H91.5922V0.00116371H114.125V8.12626H99.5065V18.4856L99.507 18.485ZM127.232 37.9337C131.819 38.0348 136.457 38.3913 140.943 38.6444V46.6678C133.735 46.2102 126.526 45.7538 119.166 45.6012V0.000581855H127.231V37.9332L127.232 37.9337ZM147.748 47.2265C150.319 47.379 153.041 47.5316 155.662 47.8355V0.000581855H147.748V47.2259V47.2265ZM190.999 0.00116371L180.766 24.7312L190.999 52C187.974 51.5938 184.95 51.0351 181.925 50.5273L176.129 35.4967L170.232 49.3088C167.307 48.8003 164.485 48.6484 161.561 48.2416L171.945 24.4256L162.569 0.000581855H171.239L176.532 13.6607L182.178 0.000581855H191L190.999 0.00116371Z" fill="#D81F26"/>
</svg>
