<svg width="266" height="150" viewBox="0 0 266 150" fill="none" xmlns="http://www.w3.org/2000/svg">
<rect x="96" y="25" width="170" height="111" fill="black"/>
<path d="M126 148.988L181 136.488" stroke="black" stroke-width="2"/>
<path d="M236 148.5L181 136" stroke="black" stroke-width="2"/>
<rect x="96" y="25" width="14" height="111" fill="#0D0D0D"/>
<rect x="117" y="37" width="69" height="6" fill="white"/>
<rect x="117" y="48" width="48" height="6" fill="white"/>
<path d="M118 65H189.5" stroke="white"/>
<path d="M118 70H189.5" stroke="white"/>
<rect x="118" y="76" width="29" height="8" rx="2" fill="white"/>
<rect x="152" y="76" width="29" height="8" rx="2" fill="#2E2E2E"/>
<rect x="118" y="98" width="25" height="33" fill="#2E2E2E"/>
<rect x="147" y="98" width="25" height="33" fill="#E61F02"/>
<rect x="176" y="98" width="25" height="33" fill="#E51E13"/>
<rect x="205" y="98" width="25" height="33" fill="#C61910"/>
<rect x="234" y="98" width="25" height="33" fill="#CA1912"/>
<path d="M225.914 80.1887L225.932 71.3008L225.95 62.4129L226.773 64.4762V64.4815L227.842 44.6953C226.791 42.0713 226.23 40.6693 226.224 40.664C226.218 40.6587 225.621 40.627 224.899 40.5952C222.714 40.5 220.004 40.2937 217.945 40.0662C217.468 40.0133 217.062 39.9869 217.032 40.008C217.002 40.0292 216.996 49.0758 217.002 60.1169L217.02 80.1887H225.914Z" fill="#B1060F"/>
<path d="M242 80.2148V60.1218C242 49.0701 241.988 40.0182 241.97 40.0023C241.952 39.9865 241.182 40.0552 240.251 40.1452C239.32 40.2351 238.037 40.3515 237.398 40.3991C236.419 40.4732 233.482 40.6372 233.148 40.6425C233.047 40.6425 233.041 41.0922 233.029 49.1548L233.011 57.667L232.3 55.8895C232.193 55.6144 232.157 55.5297 232.05 55.2599L230.981 75.0408C231.208 75.6068 231.089 75.3106 231.345 75.956C232.217 78.141 232.957 79.9873 232.987 80.072L233.047 80.2201H242V80.2148Z" fill="#B1060F"/>
<path d="M225.914 80.1887L225.932 71.3008L225.95 62.4129L226.773 64.4762V64.4815L227.842 44.6953C226.791 42.0713 226.23 40.6693 226.224 40.664C226.218 40.6587 225.621 40.627 224.899 40.5952C222.714 40.5 220.004 40.2937 217.945 40.0662C217.468 40.0133 217.062 39.9869 217.032 40.008C217.002 40.0292 216.996 49.0758 217.002 60.1169L217.02 80.1887H225.914Z" fill="#B1060F"/>
<path d="M242 80.2148V60.1218C242 49.0701 241.988 40.0182 241.97 40.0023C241.952 39.9865 241.182 40.0552 240.251 40.1452C239.32 40.2351 238.037 40.3515 237.398 40.3991C236.419 40.4732 233.482 40.6372 233.148 40.6425C233.047 40.6425 233.041 41.0922 233.029 49.1548L233.011 57.667L232.3 55.8895C232.193 55.6144 232.157 55.5297 232.05 55.2599L230.981 75.0408C231.208 75.6068 231.089 75.3106 231.345 75.956C232.217 78.141 232.957 79.9873 232.987 80.072L233.047 80.2201H242V80.2148Z" fill="#B1060F"/>
<path d="M242 80.2148V68.9356L233.035 47.8586C233.035 48.34 233.035 48.6046 233.029 49.1548L233.011 57.667L232.3 55.8895C228.361 45.9858 226.242 40.6742 226.23 40.6636C226.224 40.6584 225.627 40.6266 224.905 40.5949C222.72 40.4996 220.01 40.2933 217.951 40.0658C217.474 40.0129 217.068 39.9865 217.038 40.0076C217.02 40.0235 217.008 44.4569 217.008 50.7154L225.926 73.4536L225.932 71.3004L225.949 62.4125L226.773 64.4758C227.579 66.4915 228.116 67.8405 231.357 75.956C232.229 78.141 232.969 79.9873 232.999 80.072L233.059 80.2201H242V80.2148Z" fill="url(#paint0_radial)"/>
<path d="M242 80.2148L233.017 57.6512V57.6618L232.306 55.8842C228.361 45.9858 226.242 40.6742 226.23 40.6636C226.224 40.6584 225.627 40.6266 224.905 40.5949C222.72 40.4996 220.01 40.2933 217.951 40.0658C217.48 40.0129 217.068 39.9865 217.044 40.0076L225.949 62.4178V62.4125L226.773 64.4758C227.579 66.4915 228.116 67.8405 231.357 75.956C232.229 78.141 232.969 79.9873 232.999 80.072L233.059 80.2201H237.529L242 80.2148Z" fill="#E50914"/>
<path d="M118 61.5H189.5" stroke="black" stroke-width="2"/>
<rect x="23.5" y="18.5" width="30" height="58" rx="3.5" stroke="black"/>
<rect x="39.5" y="0.5" width="30" height="58" rx="3.5" fill="black" stroke="black"/>
<rect x="41" y="7" width="27" height="19" fill="url(#paint1_linear)"/>
<rect x="41.25" y="31.25" width="10.5" height="17.5" stroke="white" stroke-width="0.5"/>
<rect x="54.25" y="31.25" width="10.5" height="17.5" stroke="white" stroke-width="0.5"/>
<rect x="67.25" y="31.25" width="10.5" height="17.5" stroke="white" stroke-width="0.5"/>
<path d="M58 16.275L51 12V21L58 16.275Z" fill="black"/>
<path d="M5.05146 148.9L0.194319 142.1H114.806L109.949 148.9H5.05146Z" fill="black" stroke="white" stroke-width="0.2"/>
<rect x="8.1" y="87.1" width="99.8" height="54.8" fill="black" stroke="white" stroke-width="0.2"/>
<rect x="13" y="92" width="90" height="50" fill="#D91C11"/>
<rect x="13" y="97" width="90" height="45" fill="#2E2E2E"/>
<g clip-path="url(#clip0)">
<path d="M78.0417 118.083H76.9518C76.3571 118.083 75.875 118.565 75.875 119.16C75.875 120.021 76.2785 121.708 76.531 122.319C76.8229 123.026 76.9903 123.467 77.318 123.755C77.6457 124.042 78.0417 124.042 78.0417 124.042V118.083Z" fill="#FFBCA7"/>
<path d="M77.5677 122.417C77.5677 122.417 76.9583 122.417 76.9583 121.333C76.9583 119.438 76.4166 119.167 76.4166 119.167C76.4166 119.167 78.0416 118.964 78.0416 121.333C78.0416 122.417 77.5677 122.417 77.5677 122.417Z" fill="#FFAD93"/>
<path d="M89.9584 118.083H91.0482C91.643 118.083 92.125 118.565 92.125 119.16C92.125 120.021 91.7215 121.708 91.4691 122.319C91.1771 123.026 91.0097 123.467 90.682 123.755C90.3543 124.042 89.9584 124.042 89.9584 124.042V118.083Z" fill="#FFBCA7"/>
<path d="M89.9584 121.333C89.9584 118.964 91.5834 119.167 91.5834 119.167C91.5834 119.167 91.0417 119.438 91.0417 121.333C91.0417 122.417 90.4323 122.417 90.4323 122.417C90.4323 122.417 89.9584 122.417 89.9584 121.333Z" fill="#FFAD93"/>
<path d="M84 113.208C78.0888 113.208 77.5 118.083 77.5 118.083C77.5 118.083 77.5 119.708 77.5 121.333C77.5 122.958 77.5715 124.583 78.4999 126.208C78.7523 126.65 81.9298 130 84 130C86.0703 130 89.2477 126.65 89.5001 126.208C90.4285 124.583 90.5 122.958 90.5 121.333C90.5 119.708 90.5 118.083 90.5 118.083C90.5 118.083 89.9112 113.208 84 113.208Z" fill="#FFDBD0"/>
<path d="M88.3333 120.25H87.25V124.042H88.3333V120.25Z" fill="#FFBCA7"/>
<path d="M87.7917 119.167C86.1667 119.167 85.625 120.25 85.625 120.25L86.1667 120.792H87.4791C88.875 120.792 89.4167 120.25 89.4167 119.708C89.4167 119.708 88.875 119.167 87.7917 119.167Z" fill="#F5E9E8"/>
<path d="M87.5209 120.792C87.9696 120.792 88.3334 120.428 88.3334 119.979C88.3334 119.531 87.9696 119.167 87.5209 119.167C87.0721 119.167 86.7084 119.531 86.7084 119.979C86.7084 120.428 87.0721 120.792 87.5209 120.792Z" fill="#D91C11"/>
<path d="M85.625 120.25C85.625 120.25 86.099 119.708 88.9427 119.708H89.4167C89.4167 119.11 88.9319 118.625 88.3333 118.625C86.1667 118.625 85.625 120.25 85.625 120.25Z" fill="#212121"/>
<path d="M88.875 118.083L85.625 120.25H85.0834L86.7084 118.083H88.875Z" fill="#BDBDBD"/>
<path d="M80.2084 119.167C81.8334 119.167 82.375 120.25 82.375 120.25L81.8334 120.792H80.5209C79.125 120.792 78.5834 120.25 78.5834 119.708C78.5834 119.708 79.125 119.167 80.2084 119.167Z" fill="#F5E9E8"/>
<path d="M80.4792 120.792C80.928 120.792 81.2917 120.428 81.2917 119.979C81.2917 119.531 80.928 119.167 80.4792 119.167C80.0305 119.167 79.6667 119.531 79.6667 119.979C79.6667 120.428 80.0305 120.792 80.4792 120.792Z" fill="#212121"/>
<path d="M82.375 120.25C82.375 120.25 81.9011 119.708 79.0573 119.708H78.5834C78.5834 119.11 79.0682 118.625 79.6667 118.625C81.8334 118.625 82.375 120.25 82.375 120.25Z" fill="#212121"/>
<path d="M79.125 118.083L82.375 120.25H82.9167L81.2917 118.083H79.125Z" fill="#BDBDBD"/>
<path d="M89.4167 124.042C87.25 124.042 85.625 121.333 84 121.333C82.375 121.333 80.75 124.042 78.5833 124.042H77.708C77.8499 124.764 78.0872 125.486 78.4999 126.208C78.7523 126.65 81.9298 130 84 130C86.0703 130 89.2477 126.65 89.5001 126.208C89.9128 125.486 90.1523 124.764 90.2942 124.042H89.4167Z" fill="#455A64"/>
<path d="M83.4584 124.042V122.417L82.9167 124.042C82.9167 124.042 83.4584 125.125 84.0001 125.125C84.5417 125.125 85.0834 124.042 85.0834 124.042H83.4584Z" fill="#37474F"/>
<path d="M76.9583 113.208C76.6593 113.208 76.4166 113.451 76.4166 113.75V118.083C76.4166 118.381 76.6604 118.625 76.9583 118.625H91.0416C91.3125 118.625 91.5833 118.331 91.5833 118.083V113.75C91.5833 113.451 91.3406 113.208 91.0416 113.208H76.9583Z" fill="#113669"/>
<path d="M88.3333 117.542H80.2083C79.9093 117.542 79.6666 117.299 79.6666 117V114.833C79.6666 114.534 79.9093 114.292 80.2083 114.292H88.3333C88.6323 114.292 88.875 114.534 88.875 114.833V117C88.875 117.299 88.6323 117.542 88.3333 117.542Z" fill="#B2B2BC"/>
<path d="M85.9613 115.039C85.8557 114.933 85.684 114.933 85.5783 115.039L85.3774 115.24C85.203 115.079 84.924 114.901 84.5416 114.901C83.9625 114.901 83.4929 115.358 83.4637 115.93L82.9718 116.574C82.838 116.748 82.9626 117 83.1825 117H84.4739C84.963 117 85.2187 116.693 85.2187 116.391C85.2187 116.046 84.9695 115.917 84.8124 115.917C84.6629 115.917 84.5416 116.038 84.5416 116.188C84.5416 116.23 84.5535 116.269 84.5714 116.306C84.5768 116.317 84.5849 116.326 84.592 116.336C84.6077 116.359 84.625 116.379 84.6467 116.397C84.6521 116.401 84.6548 116.408 84.6602 116.412C84.6337 116.433 84.5757 116.458 84.4739 116.458C84.177 116.458 83.9999 116.281 83.9999 115.984C83.9999 115.686 84.2431 115.443 84.5416 115.443C84.918 115.443 85.1244 115.765 85.1315 115.776C85.1748 115.848 85.2479 115.895 85.3308 115.905C85.4153 115.917 85.4965 115.887 85.555 115.828L85.9613 115.422C86.0669 115.316 86.0669 115.144 85.9613 115.039Z" fill="#6C6C76"/>
<path d="M76.9583 113.208H74.7916C74.7916 113.208 75.401 112.667 76.4166 112.667C75.8073 112.328 75.1372 111.682 74.7916 110.5C75.4579 111.35 76.9583 111.583 76.9583 111.583C76.9583 111.583 75.875 110.5 75.875 107.792C76.1458 108.875 77.5 109.958 77.5 109.958C77.5 109.958 77.5 106.979 80.2083 105.083C79.6666 106.708 79.6666 107.792 79.6666 107.792C79.6666 107.792 81.8333 104.542 86.1666 104C84.2708 105.083 83.4583 107.25 83.4583 107.25C83.4583 107.25 84.5416 105.625 86.7083 105.083C86.3698 105.625 86.1666 106.167 86.1666 106.167C86.1666 106.167 88.3333 104.542 91.0416 104C89.9583 104.813 89.4166 105.625 89.4166 105.625C89.4166 105.625 94.2916 105.528 95.9166 104C95.375 106.708 94.0208 109.417 92.6666 110.5C95.2228 109.816 96.4583 108.875 96.4583 108.875C96.4583 108.875 95.375 111.245 92.6666 112.656C93.3437 113.073 95.3744 113.208 95.3744 113.208C95.3744 113.208 94.3073 114.292 93.2083 114.292H92.6666C93.1406 114.969 94.2911 115.375 94.2911 115.375C94.2911 115.375 92.7192 115.375 91.6358 114.292L92.125 114.833L92.6666 117C90.7708 114.833 88.875 113.208 88.875 113.208C88.875 113.208 89.4166 113.75 89.4166 115.984C88.3333 114.021 87.25 113.208 87.25 113.208C87.25 113.208 87.7916 114.149 87.7916 114.833C87.5208 114.292 85.625 113.208 85.625 113.208C85.625 113.208 81.765 113.208 76.9583 113.208Z" fill="#E0E0E0"/>
<path d="M93.2083 114.292C94.3074 114.292 95.375 113.208 95.375 113.208C95.375 113.208 94.1303 113.75 92.6667 113.75C91.3802 113.75 90.5 113.208 90.5 113.208C91.3802 114.292 92.6667 117 92.6667 117C92.6667 117 92.6667 115.646 92.1927 114.833C93.2083 115.375 94.2917 115.375 94.2917 115.375L93.2083 114.292Z" fill="#BDBDBD"/>
<path d="M89.9583 111.042C91.5155 110.906 92.6666 110.5 92.6666 110.5C94.0208 109.417 95.3749 106.708 95.9166 104C95.9166 104 94.8333 107.792 89.9583 111.042Z" fill="#BDBDBD"/>
<path d="M91.0416 112.396C91.7187 112.667 92.6666 112.667 92.6666 112.667V112.656C95.375 111.245 96.4583 108.875 96.4583 108.875C96.4583 108.875 94.2916 111.245 91.0416 112.396Z" fill="#BDBDBD"/>
<path d="M84 113.208C83.526 112.531 83.4583 111.583 83.4583 111.583C83.4583 111.583 82.9843 111.99 82.9166 112.667C82.5781 111.651 82.6458 110.5 82.6458 110.5C82.6458 110.5 82.1718 110.906 81.8333 111.583C81.8333 109.891 82.9166 108.333 82.9166 108.333C82.9166 108.333 81.0208 108.875 80.2083 110.5C80.2083 107.792 81.8333 105.692 81.8333 105.692C80.3919 106.711 79.6666 107.792 79.6666 107.792C79.6666 107.792 78.8541 108.875 78.7187 109.958C78.7187 109.958 78.5833 109.417 78.5833 108.875C78.5833 106.708 79.125 106.046 79.125 106.046C77.5065 107.846 77.5 109.958 77.5 109.958C77.5 109.958 76.1458 108.875 75.875 107.792C75.875 110.5 76.9583 111.583 76.9583 111.583C76.9583 111.583 75.4579 111.35 74.7916 110.5C75.1372 111.682 75.8073 112.328 76.4166 112.667C75.401 112.667 74.7916 113.208 74.7916 113.208H84Z" fill="#BDBDBD"/>
<path d="M84 113.208C84 113.208 84.2708 110.229 87.25 108.807C87.25 108.807 85.0833 110.5 85.0833 113.208" fill="#BDBDBD"/>
<path d="M76.9583 118.625L77.4999 121.333L78.0416 118.625H76.9583Z" fill="#BDBDBD"/>
<path d="M91.0416 118.625L90.4999 121.333L89.9583 118.625H91.0416Z" fill="#BDBDBD"/>
</g>
<rect x="19" y="107" width="32" height="4" fill="white"/>
<path d="M18.5 116.5H59" stroke="white"/>
<path d="M18.5 119H59" stroke="white"/>
<path d="M18.5 121.5H59" stroke="white"/>
<rect x="19" y="127" width="17" height="4" rx="2" fill="#D91C11"/>
<defs>
<radialGradient id="paint0_radial" cx="0" cy="0" r="1" gradientUnits="userSpaceOnUse" gradientTransform="translate(229.922 60.3434) rotate(162.937) scale(1.62811 54.1023)">
<stop/>
<stop offset="1" stop-opacity="0"/>
</radialGradient>
<linearGradient id="paint1_linear" x1="39" y1="17.5" x2="70.5" y2="17.5" gradientUnits="userSpaceOnUse">
<stop stop-color="#E61F02"/>
<stop offset="1" stop-color="#CA1912"/>
</linearGradient>
<clipPath id="clip0">
<rect width="26" height="26" fill="white" transform="translate(71 104)"/>
</clipPath>
</defs>
</svg>
