<svg width="263" height="150" viewBox="0 0 263 150" fill="none" xmlns="http://www.w3.org/2000/svg">
<rect x="25.5" y="18.5" width="30" height="58" rx="3.5" stroke="#0F171F"/>
<rect x="41.5" y="0.5" width="30" height="58" rx="3.5" fill="#0F171F" stroke="#0F171F"/>
<rect x="43" y="7" width="27" height="19" fill="url(#paint0_linear)"/>
<rect x="43.25" y="44.25" width="15.5" height="9.5" stroke="white" stroke-width="0.5"/>
<rect x="61.25" y="44.25" width="8.5" height="9.5" stroke="white" stroke-width="0.5"/>
<rect x="43.25" y="31.25" width="15.5" height="9.5" stroke="white" stroke-width="0.5"/>
<rect x="61.25" y="31.25" width="15.5" height="9.5" stroke="white" stroke-width="0.5"/>
<path d="M60 16.275L53 12V21L60 16.275Z" fill="#0F171F"/>
<rect x="93" y="25" width="170" height="111" fill="#0F171F"/>
<path d="M141 68L141 72" stroke="white" stroke-width="0.5"/>
<path d="M139 70H143" stroke="white" stroke-width="0.5"/>
<path d="M123 148.988L178 136.488" stroke="black" stroke-width="2"/>
<path d="M233 148.5L178 136" stroke="black" stroke-width="2"/>
<rect x="93" y="39" width="14" height="170" transform="rotate(-90 93 39)" fill="#19232D"/>
<rect x="103" y="47" width="23" height="3" fill="white"/>
<rect x="103" y="86" width="23" height="2" fill="white"/>
<path d="M103 55H174.5" stroke="white"/>
<path d="M103 60H174.5" stroke="white"/>
<rect x="103" y="66" width="29" height="8" rx="2" fill="#3D8CBB"/>
<rect x="135.25" y="66.25" width="10.5" height="7.5" rx="1.75" stroke="#19232D" stroke-width="0.5"/>
<rect x="103" y="93" width="49" height="28" fill="#2E2E2E"/>
<rect x="156" y="93" width="49" height="28" fill="#3D8CBB"/>
<rect x="210" y="93" width="49" height="28" fill="#1B5070"/>
<path d="M119 69.9L116 68V72L119 69.9Z" fill="white"/>
<g clip-path="url(#clip0)">
<path d="M205.518 62.4321C205.421 62.4367 205.326 62.404 205.252 62.3401C205.189 62.2633 205.16 62.1634 205.171 62.0641V52.6801C205.16 52.5807 205.189 52.4809 205.252 52.4041C205.327 52.3461 205.419 52.3185 205.513 52.3259H206.512C206.701 52.3066 206.871 52.4423 206.899 52.6341L206.998 53.0021C207.286 52.7183 207.625 52.4947 207.997 52.3443C208.377 52.187 208.784 52.1055 209.194 52.1051C210.012 52.0775 210.794 52.4496 211.3 53.1079C211.857 53.8926 212.134 54.849 212.083 55.8173C212.098 56.5202 211.967 57.218 211.696 57.8643C211.473 58.4025 211.11 58.8685 210.648 59.2121C210.2 59.524 209.668 59.685 209.127 59.6721C208.759 59.6739 208.394 59.6118 208.047 59.4881C207.728 59.3786 207.433 59.2066 207.178 58.9821V62.0733C207.188 62.1717 207.161 62.2706 207.102 62.3493C207.025 62.41 206.928 62.4376 206.832 62.4275L205.518 62.4321ZM208.546 58.1265C208.991 58.1591 209.421 57.9558 209.685 57.5883C209.965 57.074 210.092 56.487 210.049 55.9001C210.092 55.3076 209.967 54.7151 209.689 54.1935C209.424 53.8223 208.99 53.6185 208.542 53.6553C208.066 53.6557 207.6 53.7873 207.192 54.0371V57.7401C207.597 57.9977 208.065 58.1329 208.542 58.1311L208.546 58.1265Z" fill="#00A8E1"/>
<path d="M213.793 59.5248C213.632 59.5557 213.477 59.4471 213.446 59.282C213.44 59.2452 213.44 59.2074 213.446 59.1706V52.68C213.435 52.5807 213.464 52.4809 213.527 52.404C213.602 52.3461 213.695 52.3185 213.788 52.3258H214.783C214.972 52.3065 215.142 52.4422 215.17 52.634L215.35 53.3884C215.646 53.0347 215.999 52.7357 216.394 52.5052C216.716 52.3327 217.074 52.243 217.438 52.243H217.631C217.729 52.2343 217.827 52.2619 217.906 52.3212C217.969 52.3981 217.998 52.4979 217.987 52.5972V53.784C217.995 53.8797 217.968 53.9745 217.91 54.0508C217.835 54.1152 217.738 54.1451 217.64 54.1336H217.393C217.291 54.1336 217.162 54.1336 217.006 54.1336C216.746 54.1392 216.487 54.17 216.232 54.2256C215.966 54.2758 215.707 54.3544 215.458 54.4602V59.1752C215.465 59.2709 215.438 59.3657 215.381 59.442C215.306 59.5064 215.209 59.5363 215.111 59.5248H213.793Z" fill="#00A8E1"/>
<path d="M219.98 51.2034C219.674 51.219 219.373 51.1137 219.139 50.909C218.922 50.7015 218.806 50.4071 218.819 50.104C218.804 49.799 218.921 49.5028 219.139 49.2944C219.632 48.891 220.333 48.891 220.826 49.2944C221.043 49.5018 221.16 49.7962 221.146 50.0994C221.16 50.4025 221.043 50.6969 220.826 50.9044C220.592 51.1118 220.29 51.219 219.98 51.2034ZM219.319 59.5294C219.158 59.5602 219.003 59.4516 218.972 59.2865C218.966 59.2497 218.966 59.212 218.972 59.1752V52.68C218.961 52.5806 218.99 52.4808 219.053 52.404C219.128 52.346 219.221 52.3184 219.314 52.3258H220.642C220.738 52.3157 220.835 52.3433 220.912 52.404C220.971 52.4826 220.998 52.5815 220.988 52.68V59.1752C220.996 59.2709 220.969 59.3656 220.912 59.442C220.837 59.5064 220.739 59.5363 220.642 59.5248L219.319 59.5294Z" fill="#00A8E1"/>
<path d="M223.045 59.5248C222.884 59.5556 222.729 59.447 222.698 59.2819C222.692 59.2451 222.692 59.2074 222.698 59.1706V52.68C222.687 52.5806 222.716 52.4808 222.779 52.404C222.854 52.346 222.947 52.3184 223.04 52.3258H224.035C224.224 52.3065 224.394 52.4422 224.422 52.634L224.534 53.0158C224.944 52.7274 225.387 52.4928 225.853 52.3166C226.238 52.1795 226.642 52.1082 227.05 52.105C227.759 52.0429 228.44 52.4003 228.805 53.025C229.216 52.7361 229.662 52.5043 230.132 52.335C230.547 52.1938 230.982 52.1225 231.419 52.1234C231.972 52.0893 232.514 52.289 232.918 52.6754C233.291 53.0931 233.482 53.6474 233.449 54.2118V59.1752C233.456 59.2709 233.429 59.3656 233.372 59.442C233.297 59.5064 233.2 59.5363 233.102 59.5248H231.793C231.632 59.5556 231.477 59.447 231.446 59.2819C231.44 59.2451 231.44 59.2074 231.446 59.1706V54.6442C231.446 54.0034 231.166 53.6828 230.605 53.6828C230.082 53.6888 229.567 53.8148 229.097 54.0508V59.1752C229.105 59.2709 229.078 59.3656 229.021 59.442C228.946 59.5064 228.848 59.5363 228.751 59.5248H227.428C227.267 59.5556 227.112 59.447 227.081 59.2819C227.075 59.2451 227.075 59.2074 227.081 59.1706V54.6442C227.081 54.0034 226.801 53.6828 226.24 53.6828C225.711 53.686 225.19 53.8171 224.719 54.0646V59.1706C224.726 59.2663 224.699 59.361 224.642 59.4374C224.567 59.5018 224.47 59.5317 224.372 59.5202L223.045 59.5248Z" fill="#00A8E1"/>
<path d="M238.264 59.7364C237.294 59.8013 236.342 59.4535 235.632 58.775C234.982 58.0151 234.658 57.0211 234.732 56.015C234.667 54.9722 234.995 53.9432 235.65 53.14C236.331 52.4206 237.286 52.0393 238.264 52.0958C238.988 52.0517 239.702 52.2775 240.276 52.7306C240.761 53.1538 241.028 53.7817 241 54.4326C241.033 55.0697 240.735 55.6779 240.217 56.0334C239.519 56.441 238.719 56.6296 237.918 56.5762C237.463 56.5818 237.009 56.5293 236.568 56.4198C236.57 56.9286 236.771 57.4153 237.126 57.7722C237.545 58.0768 238.057 58.2217 238.57 58.1816C238.821 58.1816 239.072 58.1646 239.322 58.131C239.664 58.0768 240.004 58.0027 240.339 57.9102H240.42H240.487C240.643 57.9102 240.721 58.0193 240.721 58.2368V58.8854C240.73 58.9954 240.708 59.1053 240.658 59.2028C240.594 59.2797 240.51 59.3353 240.415 59.3638C239.727 59.6228 238.998 59.7493 238.264 59.7364ZM237.814 55.3066C238.168 55.3329 238.522 55.2565 238.836 55.0858C239.051 54.9354 239.172 54.6801 239.155 54.4142C239.155 53.8222 238.81 53.5264 238.12 53.5264C237.235 53.5264 236.724 54.0817 236.586 55.1916C236.987 55.2703 237.396 55.3089 237.805 55.3066H237.814Z" fill="#00A8E1"/>
<path d="M237.54 67.4506C233.598 70.4222 227.883 72 222.964 72C216.391 72.0358 210.042 69.5643 205.158 65.0678C204.789 64.7274 205.117 64.2628 205.563 64.525C210.989 67.6921 217.13 69.3554 223.378 69.3504C228.04 69.3251 232.653 68.3604 236.95 66.5122C237.634 66.2224 238.192 66.94 237.54 67.4506Z" fill="#00A8E1"/>
<path d="M239.2 65.56C238.696 64.9022 235.87 65.2472 234.596 65.4036C234.209 65.4496 234.146 65.1092 234.497 64.8608C236.747 63.2416 240.451 63.7108 240.878 64.2536C241.306 64.7964 240.766 68.5822 238.628 70.39C238.304 70.666 237.994 70.5188 238.138 70.1508C238.619 68.9134 239.686 66.1994 239.2 65.56Z" fill="#00A8E1"/>
</g>
<path d="M5.05146 148.9L0.194319 142.1H114.806L109.949 148.9H5.05146Z" fill="black" stroke="white" stroke-width="0.2"/>
<rect x="8.1" y="87.1" width="99.8" height="54.8" fill="black" stroke="white" stroke-width="0.2"/>
<rect x="13" y="92" width="90" height="50" fill="#3D8CBB"/>
<rect x="13" y="97" width="90" height="45" fill="#0F171F"/>
<rect x="19" y="107" width="32" height="4" fill="white"/>
<path d="M18.5 116.5H59" stroke="white"/>
<path d="M18.5 119H59" stroke="white"/>
<path d="M18.5 121.5H59" stroke="white"/>
<rect x="19" y="127" width="17" height="4" rx="2" fill="#3D8CBB"/>
<path d="M93.375 116.75C93.375 116.75 90.9375 112.146 90.6667 110.25C90.6667 114.312 91.75 116.75 91.75 116.75L90.775 117.4C90.5583 117.346 90.3417 117.292 90.125 117.292H73.875C73.6583 117.292 73.4417 117.346 73.225 117.4L72.25 116.75C72.25 116.75 73.3333 114.312 73.3333 110.25C73.0625 112.146 70.625 116.75 70.625 116.75L72.25 118.808C72.25 118.862 72.25 118.862 72.25 118.917C72.25 119.783 72.9542 120.542 73.875 120.542H90.125C91.0458 120.542 91.75 119.783 91.75 118.917C91.75 118.862 91.75 118.862 91.75 118.808L93.375 116.75Z" fill="#FFC107"/>
<path d="M90.125 117.833C90.125 123.738 85.7917 131.375 82 131.375C78.2083 131.375 73.875 123.738 73.875 117.833C73.875 111.929 77.5042 108.625 82 108.625C86.4958 108.625 90.125 111.929 90.125 117.833Z" fill="#FFB74D"/>
<path d="M85.5208 120C84.2208 120 84.1666 118.917 84.1666 118.917L87.4166 117.887C87.4166 117.887 86.8208 120 85.5208 120ZM78.4791 120C79.7791 120 79.8333 118.917 79.8333 118.917L76.5833 117.887C76.5833 117.887 77.1791 120 78.4791 120Z" fill="#784719"/>
<path d="M82 108.625C77.5042 108.625 73.875 111.929 73.875 117.833C73.875 123.738 78.2083 131.375 82 131.375C85.7917 131.375 90.125 123.738 90.125 117.833C90.125 111.929 86.4958 108.625 82 108.625ZM83.3 118.537L88.1208 116.912C88.5542 116.75 88.9875 117.075 89.0417 117.563C89.0417 117.671 89.0417 117.725 89.0417 117.833C89.0417 119.567 86.2792 121.408 86.2792 121.408C85.1417 120.704 84.1125 119.838 83.3 119.296C82.975 119.079 82.975 118.646 83.3 118.537ZM74.9583 117.563C74.9583 117.129 75.4458 116.804 75.8792 116.912L80.7 118.537C81.025 118.646 81.025 119.079 80.7542 119.296C79.9417 119.838 78.9125 120.758 77.775 121.408C77.775 121.408 75.0125 119.567 75.0125 117.833C74.9583 117.725 74.9583 117.671 74.9583 117.563ZM82 130.292C79.6708 130.292 76.2583 125.525 75.2292 120.542L77.6667 122.708C77.6667 122.708 81.1875 120 82 120C82.8125 120 86.3333 122.708 86.3333 122.708L88.7708 120.542C87.7417 125.525 84.3292 130.292 82 130.292Z" fill="#D50000"/>
<path d="M84.4916 124.875C84.4916 124.875 83.3 125.362 82 125.362C80.6458 125.362 79.5083 124.875 79.5083 124.875L79.075 125.85C79.1291 125.85 80.4291 126.446 82 126.446C83.5708 126.446 84.8708 125.904 84.925 125.85L84.4916 124.875Z" fill="#FF9100"/>
<defs>
<linearGradient id="paint0_linear" x1="41" y1="17.5" x2="72.5" y2="17.5" gradientUnits="userSpaceOnUse">
<stop stop-color="#3D8CBB"/>
<stop offset="1" stop-color="#1B5070"/>
</linearGradient>
<clipPath id="clip0">
<rect width="36" height="23" fill="white" transform="translate(205 49)"/>
</clipPath>
</defs>
</svg>
