<svg width="124" height="80" viewBox="0 0 124 80" fill="none" xmlns="http://www.w3.org/2000/svg">
<g clip-path="url(#clip0)">
<path d="M1.78269 46.1922C1.44944 46.208 1.12239 46.0959 0.868191 45.8762C0.651191 45.6124 0.550441 45.2695 0.589191 44.9282V12.6962C0.550441 12.355 0.651191 12.0121 0.868191 11.7482C1.12549 11.5492 1.44479 11.4544 1.76719 11.4796H5.20819C5.85919 11.4133 6.44509 11.8794 6.54119 12.5382L6.88219 13.8022C7.87264 12.8274 9.04289 12.0595 10.3232 11.5428C11.6329 11.0025 13.0326 10.7228 14.4462 10.7212C17.2641 10.6264 19.958 11.9047 21.7002 14.1656C23.6191 16.8611 24.5723 20.1459 24.3972 23.4718C24.4499 25.8861 23.9957 28.2829 23.0642 30.5028C22.2954 32.3514 21.0461 33.952 19.4527 35.1322C17.912 36.2035 16.0783 36.7565 14.2137 36.7122C12.9473 36.7186 11.6887 36.5053 10.4937 36.0802C9.39474 35.7042 8.37949 35.1133 7.50219 34.3422V44.9598C7.53629 45.298 7.44329 45.6377 7.23869 45.9078C6.97364 46.1164 6.64039 46.2112 6.30869 46.1764L1.78269 46.1922ZM12.2142 31.4034C13.7456 31.5156 15.2274 30.8173 16.1357 29.5548C17.1013 27.7884 17.5384 25.7723 17.3912 23.7562C17.54 21.7212 17.1091 19.6862 16.1512 17.8944C15.2398 16.6194 13.7425 15.9194 12.1987 16.0458C10.5603 16.0474 8.95454 16.4993 7.54869 17.3572V30.0762C8.94369 30.961 10.5557 31.4256 12.1987 31.4192L12.2142 31.4034Z" fill="#00A8E1"/>
<path d="M30.2869 36.207C29.732 36.3129 29.1972 35.94 29.0934 35.3728C29.0701 35.2464 29.0701 35.1168 29.0934 34.9904V12.6966C29.0546 12.3553 29.1554 12.0125 29.3724 11.7486C29.6297 11.5495 29.949 11.4547 30.2714 11.48H33.6969C34.3479 11.4137 34.9338 11.8798 35.0299 12.5386L35.6499 15.1298C36.6682 13.9148 37.885 12.8878 39.2459 12.0962C40.3557 11.5037 41.5895 11.1956 42.8419 11.1956H43.5084C43.8447 11.1656 44.1811 11.2604 44.4539 11.4642C44.6709 11.7281 44.7716 12.0709 44.7329 12.4122V16.4886C44.7592 16.8173 44.6662 17.1427 44.4694 17.405C44.2105 17.6262 43.8742 17.7289 43.5394 17.6894H42.6869C42.335 17.6894 41.8917 17.6894 41.3539 17.6894C40.458 17.7084 39.5652 17.8142 38.6879 18.0054C37.7734 18.1776 36.8806 18.4478 36.0219 18.8112V35.0062C36.0467 35.3349 35.9537 35.6603 35.7584 35.9226C35.4995 36.1438 35.1632 36.2465 34.8284 36.207H30.2869Z" fill="#00A8E1"/>
<path d="M51.5993 7.62432C50.5422 7.67804 49.5053 7.31622 48.7008 6.61312C47.9537 5.90054 47.5523 4.88934 47.6003 3.84812C47.5476 2.80058 47.9491 1.78306 48.7008 1.06732C50.3996 -0.318339 52.8145 -0.318339 54.5133 1.06732C55.2604 1.7799 55.6619 2.7911 55.6138 3.83232C55.6619 4.87354 55.2604 5.88474 54.5133 6.59732C53.7073 7.3099 52.6642 7.67804 51.5993 7.62432ZM49.3208 36.2223C48.7659 36.3282 48.2312 35.9553 48.1273 35.3881C48.1041 35.2617 48.1041 35.1321 48.1273 35.0057V12.6961C48.0886 12.3548 48.1893 12.012 48.4063 11.7481C48.6636 11.549 48.9829 11.4542 49.3053 11.4795H53.8778C54.2095 11.4448 54.5428 11.5396 54.8078 11.7481C55.0124 12.0183 55.1054 12.358 55.0713 12.6961V35.0057C55.0977 35.3344 55.0047 35.6598 54.8078 35.9221C54.549 36.1433 54.2126 36.246 53.8778 36.2065L49.3208 36.2223Z" fill="#00A8E1"/>
<path d="M62.1548 36.207C61.5999 36.3129 61.0651 35.94 60.9613 35.3728C60.938 35.2464 60.938 35.1169 60.9613 34.9905V12.6967C60.9225 12.3554 61.0233 12.0125 61.2403 11.7487C61.4976 11.5496 61.8169 11.4548 62.1393 11.4801H65.5648C66.2158 11.4137 66.8017 11.8798 66.8978 12.5387L67.2853 13.8501C68.6958 12.8594 70.221 12.0536 71.8268 11.4485C73.152 10.9776 74.5455 10.7327 75.9498 10.7217C78.3926 10.5084 80.7393 11.736 81.9948 13.8817C83.4099 12.8894 84.9475 12.0931 86.5673 11.5117C87.9964 11.0266 89.4937 10.7817 91.0003 10.7849C92.9037 10.6679 94.7699 11.3537 96.1618 12.6809C97.4452 14.1155 98.1055 16.0194 97.9908 17.9581V35.0063C98.0156 35.3349 97.9226 35.6604 97.7273 35.9227C97.4684 36.1439 97.1321 36.2465 96.7973 36.207H92.2868C91.7319 36.3129 91.1971 35.94 91.0933 35.3728C91.07 35.2464 91.07 35.1169 91.0933 34.9905V19.4433C91.0933 17.2423 90.1276 16.1411 88.1948 16.1411C86.3937 16.1616 84.6189 16.5945 83.0023 17.4051V35.0063C83.0286 35.3349 82.9356 35.6604 82.7388 35.9227C82.4799 36.1439 82.1436 36.2465 81.8088 36.207H77.2518C76.6969 36.3129 76.1621 35.94 76.0583 35.3728C76.035 35.2464 76.035 35.1169 76.0583 34.9905V19.4433C76.0583 17.2423 75.0926 16.1411 73.1598 16.1411C71.337 16.1521 69.5421 16.6024 67.9208 17.4525V34.9905C67.9456 35.3191 67.8526 35.6446 67.6573 35.9068C67.3984 36.128 67.0621 36.2308 66.7273 36.1913L62.1548 36.207Z" fill="#00A8E1"/>
<path d="M114.576 36.9336C111.236 37.1564 107.954 35.9619 105.509 33.6314C103.272 31.0213 102.154 27.6069 102.409 24.1514C102.185 20.5696 103.317 17.0351 105.571 14.2764C107.919 11.8053 111.206 10.4955 114.576 10.6898C117.068 10.5381 119.53 11.3139 121.505 12.8702C123.175 14.3238 124.096 16.4805 124 18.7162C124.113 20.9045 123.089 22.9933 121.303 24.2146C118.899 25.6145 116.145 26.2623 113.383 26.079C111.817 26.098 110.255 25.9179 108.733 25.5418C108.742 27.2893 109.433 28.9609 110.655 30.187C112.101 31.233 113.862 31.7307 115.63 31.5932C116.495 31.5932 117.36 31.5348 118.219 31.4194C119.4 31.233 120.568 30.9786 121.722 30.661H122.001H122.233C122.771 30.661 123.039 31.0355 123.039 31.7828V34.0106C123.069 34.3882 122.994 34.7659 122.822 35.1008C122.602 35.3647 122.311 35.5559 121.985 35.6538C119.614 36.5434 117.103 36.9779 114.576 36.9336ZM113.026 21.7182C114.246 21.8083 115.466 21.546 116.545 20.9598C117.285 20.4432 117.704 19.5663 117.645 18.653C117.645 16.6196 116.456 15.6036 114.08 15.6036C111.031 15.6036 109.27 17.5107 108.795 21.3232C110.179 21.5934 111.586 21.7261 112.995 21.7182H113.026Z" fill="#00A8E1"/>
<path d="M112.081 63.4301C98.5027 73.6369 78.8177 79.0563 61.8762 79.0563C39.2369 79.1795 17.3664 70.6902 0.542657 55.2457C-0.728343 54.0765 0.403157 52.4807 1.93766 53.3813C20.6276 64.2596 41.7804 69.9728 63.3022 69.9555C79.3617 69.8686 95.2477 66.5553 110.05 60.2069C112.406 59.2115 114.328 61.6763 112.081 63.4301Z" fill="#00A8E1"/>
<path d="M117.8 56.9364C116.064 54.677 106.33 55.862 101.943 56.3992C100.61 56.5572 100.393 55.388 101.602 54.5348C109.352 48.9732 122.109 50.5848 123.581 52.4492C125.054 54.3136 123.194 67.317 115.831 73.5264C114.715 74.4744 113.646 73.9688 114.142 72.7048C115.8 68.4546 119.474 59.1326 117.8 56.9364Z" fill="#00A8E1"/>
</g>
<defs>
<clipPath id="clip0">
<rect width="124" height="79" fill="white" transform="translate(0 0.0563965)"/>
</clipPath>
</defs>
</svg>
