<svg width="213" height="165" viewBox="0 0 213 165" fill="none" xmlns="http://www.w3.org/2000/svg">
<g clip-path="url(#clip0)">
<path d="M121.283 80.6804C126.076 80.6804 129.962 76.8048 129.962 72.024C129.962 67.2433 126.076 63.3677 121.283 63.3677C116.49 63.3677 112.605 67.2433 112.605 72.024C112.605 76.8048 116.49 80.6804 121.283 80.6804Z" fill="#E6E6E6"/>
<path d="M142.552 83.1478L133.483 74.1017C134.178 73.0232 134.649 71.8165 134.868 70.553C135.088 69.2896 135.05 67.9951 134.758 66.7464C134.467 65.4976 133.927 64.3199 133.171 63.2831C132.414 62.2463 131.457 61.3715 130.356 60.7104C128.282 59.4746 125.818 59.0607 123.452 59.5508C121.087 60.0409 118.992 61.3993 117.583 63.3568C116.287 65.1701 115.664 67.3773 115.822 69.5989C115.98 71.8205 116.91 73.9177 118.45 75.5301C119.99 77.1424 122.046 78.169 124.263 78.4335C126.48 78.698 128.72 78.1839 130.598 76.9794L139.667 86.0255C140.05 86.4067 140.569 86.6208 141.11 86.6206C141.65 86.6205 142.169 86.4061 142.551 86.0246C142.934 85.6432 143.149 85.1258 143.149 84.5864C143.149 84.0469 142.934 83.5295 142.552 83.1478ZM130.26 73.7641C129.136 74.885 127.657 75.5825 126.076 75.7379C124.494 75.8933 122.908 75.4969 121.586 74.6163C120.265 73.7356 119.291 72.4252 118.829 70.9083C118.368 69.3914 118.448 67.7618 119.056 66.2973C119.664 64.8328 120.763 63.6239 122.164 62.8767C123.566 62.1294 125.184 61.89 126.743 62.1993C128.301 62.5085 129.704 63.3473 130.712 64.5726C131.72 65.798 132.271 67.3341 132.271 68.9193C132.273 69.8192 132.096 70.7105 131.75 71.5419C131.405 72.3734 130.898 73.1285 130.26 73.7641Z" fill="#3F3D56"/>
<path d="M208.292 96.491C231.485 122.075 164.253 158.945 109.927 158.945C55.602 158.945 18.0173 130.377 11.5626 96.491C-4.08802 14.3283 144.909 -37.8938 109.927 34.0369C58.9374 138.884 190.027 76.3431 208.292 96.491Z" fill="#E6E6E6"/>
<path d="M197.886 102.546C221.079 128.13 153.847 165 99.5212 165C45.1958 165 7.61108 136.432 1.15632 102.546C-14.4943 20.3832 134.503 -31.8389 99.5212 40.0918C48.5311 144.939 179.621 82.398 197.886 102.546Z" fill="#1D2025"/>
<path d="M62.7286 94.6422C46.4542 93.9274 33.8358 90.4258 34.0016 86.6704C34.101 84.4188 38.7068 82.6083 46.638 81.7032C46.6664 81.6998 46.6952 81.702 46.7227 81.7097C46.7502 81.7174 46.7759 81.7305 46.7984 81.7482C46.8208 81.7658 46.8395 81.7878 46.8535 81.8127C46.8674 81.8376 46.8762 81.865 46.8795 81.8933C46.8827 81.9217 46.8803 81.9504 46.8724 81.9778C46.8645 82.0052 46.8512 82.0308 46.8333 82.053C46.8155 82.0753 46.7934 82.0938 46.7683 82.1075C46.7432 82.1212 46.7157 82.1299 46.6873 82.1329C39.2161 82.9856 34.5212 84.7315 34.4348 86.6894C34.2849 90.0854 47.2506 93.5295 62.7477 94.2101C78.2448 94.8907 91.4638 92.5967 91.6137 89.2006C91.7005 87.2345 87.1484 85.0777 79.7337 83.572C79.7057 83.5664 79.6792 83.5554 79.6555 83.5395C79.6318 83.5237 79.6115 83.5033 79.5957 83.4796C79.5799 83.4559 79.569 83.4293 79.5636 83.4014C79.5581 83.3734 79.5582 83.3447 79.5639 83.3168C79.5696 83.2889 79.5807 83.2625 79.5967 83.2389C79.6127 83.2153 79.6332 83.1951 79.657 83.1794C79.6808 83.1638 79.7075 83.153 79.7355 83.1476C79.7635 83.1422 79.7923 83.1424 79.8202 83.1482C87.6902 84.7464 92.1466 86.9593 92.0469 89.2196C91.8811 92.9751 79.003 95.357 62.7286 94.6422Z" fill="#464EB5"/>
<path d="M48.2745 95.271C49.636 97.8507 51.6528 100.029 54.123 101.587C56.5933 103.145 59.4306 104.029 62.3508 104.15C65.271 104.27 68.1719 103.624 70.7631 102.276C73.3544 100.927 75.5452 98.9234 77.1163 96.4651C67.4877 96.5945 57.8592 96.1959 48.2745 95.271Z" fill="#464EB5"/>
<path d="M78.9165 91.9166C79.7359 89.4652 79.972 86.8572 79.6061 84.299C79.2403 81.7408 78.2825 79.3027 76.8086 77.1776C75.3348 75.0525 73.3852 73.2987 71.1143 72.0551C68.8435 70.8115 66.3136 70.1121 63.7249 70.0124C61.1362 69.9127 58.5597 70.4153 56.1995 71.4806C53.8392 72.5458 51.7599 74.1444 50.1261 76.1498C48.4923 78.1552 47.3489 80.5124 46.7863 83.0348C46.2238 85.5572 46.2575 88.1756 46.8849 90.6828C57.4637 92.4741 68.2308 92.8888 78.9165 91.9166Z" fill="#464EB5"/>
<path d="M36.6025 28.6742C37.6801 28.6742 38.5537 27.8028 38.5537 26.728C38.5537 25.6531 37.6801 24.7817 36.6025 24.7817C35.5249 24.7817 34.6514 25.6531 34.6514 26.728C34.6514 27.8028 35.5249 28.6742 36.6025 28.6742Z" fill="white"/>
<path d="M56.2519 87.4874C58.048 87.4874 59.5039 86.0352 59.5039 84.2437C59.5039 82.4523 58.048 81 56.2519 81C54.4559 81 53 82.4523 53 84.2437C53 86.0352 54.4559 87.4874 56.2519 87.4874Z" fill="white"/>
<path d="M75.6414 33.0639C76.8387 33.0639 77.8093 32.0957 77.8093 30.9014C77.8093 29.7072 76.8387 28.739 75.6414 28.739C74.4441 28.739 73.4735 29.7072 73.4735 30.9014C73.4735 32.0957 74.4441 33.0639 75.6414 33.0639Z" fill="#464EB5"/>
<path d="M26.6453 99.2359C27.3638 99.2359 27.9461 98.655 27.9461 97.9384C27.9461 97.2218 27.3638 96.6409 26.6453 96.6409C25.9269 96.6409 25.3445 97.2218 25.3445 97.9384C25.3445 98.655 25.9269 99.2359 26.6453 99.2359Z" fill="#E6E6E6"/>
<path d="M117.7 143.783C118.418 143.783 119.001 143.202 119.001 142.485C119.001 141.769 118.418 141.188 117.7 141.188C116.982 141.188 116.399 141.769 116.399 142.485C116.399 143.202 116.982 143.783 117.7 143.783Z" fill="#E6E6E6"/>
<path d="M32.9324 74.151C33.2917 74.151 33.5828 73.8606 33.5828 73.5023C33.5828 73.144 33.2917 72.8535 32.9324 72.8535C32.5732 72.8535 32.282 73.144 32.282 73.5023C32.282 73.8606 32.5732 74.151 32.9324 74.151Z" fill="#E6E6E6"/>
<path d="M86.698 122.591C87.0572 122.591 87.3484 122.3 87.3484 121.942C87.3484 121.584 87.0572 121.293 86.698 121.293C86.3388 121.293 86.0476 121.584 86.0476 121.942C86.0476 122.3 86.3388 122.591 86.698 122.591Z" fill="#E6E6E6"/>
<path d="M184.473 116.32C184.833 116.32 185.124 116.029 185.124 115.671C185.124 115.312 184.833 115.022 184.473 115.022C184.114 115.022 183.823 115.312 183.823 115.671C183.823 116.029 184.114 116.32 184.473 116.32Z" fill="#E6E6E6"/>
<path d="M153.905 135.566C154.264 135.566 154.555 135.275 154.555 134.917C154.555 134.559 154.264 134.268 153.905 134.268C153.546 134.268 153.255 134.559 153.255 134.917C153.255 135.275 153.546 135.566 153.905 135.566Z" fill="#E6E6E6"/>
<path d="M122.036 112.211C122.395 112.211 122.686 111.92 122.686 111.562C122.686 111.204 122.395 110.913 122.036 110.913C121.677 110.913 121.385 111.204 121.385 111.562C121.385 111.92 121.677 112.211 122.036 112.211Z" fill="#E6E6E6"/>
<path d="M80.8445 48.2013C81.2037 48.2013 81.4949 47.9109 81.4949 47.5526C81.4949 47.1943 81.2037 46.9038 80.8445 46.9038C80.4853 46.9038 80.1941 47.1943 80.1941 47.5526C80.1941 47.9109 80.4853 48.2013 80.8445 48.2013Z" fill="#E6E6E6"/>
<path d="M86.0476 16.1967C86.4069 16.1967 86.6981 15.9062 86.6981 15.5479C86.6981 15.1896 86.4069 14.8992 86.0476 14.8992C85.6884 14.8992 85.3972 15.1896 85.3972 15.5479C85.3972 15.9062 85.6884 16.1967 86.0476 16.1967Z" fill="#E6E6E6"/>
<path d="M83.0125 150.919C83.3717 150.919 83.6629 150.629 83.6629 150.27C83.6629 149.912 83.3717 149.622 83.0125 149.622C82.6532 149.622 82.362 149.912 82.362 150.27C82.362 150.629 82.6532 150.919 83.0125 150.919Z" fill="#E6E6E6"/>
<path d="M50.9266 137.296C51.2858 137.296 51.577 137.005 51.577 136.647C51.577 136.289 51.2858 135.998 50.9266 135.998C50.5674 135.998 50.2762 136.289 50.2762 136.647C50.2762 137.005 50.5674 137.296 50.9266 137.296Z" fill="#E6E6E6"/>
<path d="M152.604 113.941C152.963 113.941 153.255 113.65 153.255 113.292C153.255 112.934 152.963 112.643 152.604 112.643C152.245 112.643 151.954 112.934 151.954 113.292C151.954 113.65 152.245 113.941 152.604 113.941Z" fill="#E6E6E6"/>
<path d="M61.8583 101.805C62.9359 101.805 63.8095 100.933 63.8095 99.8584C63.8095 98.7835 62.9359 97.9121 61.8583 97.9121C60.7807 97.9121 59.9072 98.7835 59.9072 99.8584C59.9072 100.933 60.7807 101.805 61.8583 101.805Z" fill="white"/>
<path d="M177.091 68.7492C177.036 68.8556 176.99 68.9661 176.952 69.0797L166.593 71.9508L164.726 70.1286L161.601 72.5794L164.591 76.1256C164.833 76.4121 165.161 76.6127 165.527 76.6973C165.892 76.7819 166.276 76.7459 166.619 76.5947L177.809 71.6675C178.189 71.9303 178.64 72.0717 179.102 72.0727C179.564 72.0737 180.015 71.9343 180.396 71.6732C180.777 71.412 181.069 71.0413 181.234 70.6106C181.398 70.1798 181.427 69.7092 181.317 69.2616C181.207 68.8139 180.963 68.4103 180.617 68.1044C180.271 67.7985 179.84 67.6049 179.381 67.5493C178.923 67.4937 178.458 67.5787 178.049 67.793C177.64 68.0074 177.306 68.3409 177.091 68.7492H177.091Z" fill="#FFB8B8"/>
<path d="M166.228 72.1193L162.34 75.138C162.229 75.2239 162.101 75.285 161.965 75.3172C161.828 75.3493 161.686 75.3517 161.549 75.3243C161.411 75.2969 161.282 75.2402 161.168 75.1581C161.054 75.0761 160.96 74.9706 160.891 74.8489L158.474 70.5829C158.037 70.0158 157.843 69.2988 157.935 68.5891C158.026 67.8795 158.396 67.235 158.964 66.7972C159.531 66.3594 160.25 66.1638 160.961 66.2535C161.673 66.3432 162.32 66.7107 162.76 67.2755L166.302 70.6476C166.404 70.7442 166.483 70.8615 166.535 70.9914C166.587 71.1213 166.61 71.2608 166.603 71.4005C166.596 71.5402 166.559 71.6767 166.494 71.8007C166.429 71.9247 166.339 72.0334 166.228 72.1193V72.1193Z" fill="#464EB5"/>
<path d="M178.084 67.3214L182.028 69.091C182.193 69.1651 182.321 69.3016 182.386 69.4704C182.45 69.6393 182.444 69.8267 182.37 69.9914L181.903 71.0264C181.958 71.0512 182.001 71.0968 182.022 71.153C182.044 71.2092 182.042 71.2716 182.017 71.3265L181.831 71.7405C181.806 71.7953 181.76 71.838 181.704 71.8594C181.647 71.8807 181.585 71.8789 181.53 71.8544L181.343 72.2684C181.398 72.2933 181.441 72.3388 181.462 72.395C181.483 72.4513 181.482 72.5137 181.457 72.5686L181.27 72.9826C181.245 73.0374 181.2 73.0801 181.143 73.1014C181.087 73.1228 181.025 73.121 180.969 73.0965L178.448 78.6856C178.374 78.8503 178.237 78.9788 178.068 79.0429C177.899 79.107 177.711 79.1013 177.546 79.0272L173.603 77.2577C173.438 77.1836 173.309 77.0471 173.244 76.8783C173.18 76.7094 173.186 76.522 173.26 76.3573L177.182 67.663C177.256 67.4983 177.393 67.3698 177.562 67.3058C177.731 67.2417 177.919 67.2473 178.084 67.3214Z" fill="#3F3D56"/>
<path d="M174.319 76.7069L177.482 78.1279C177.64 78.1986 177.82 78.2039 177.983 78.1426C178.145 78.0814 178.277 77.9586 178.349 77.801L179.81 74.5596L180.317 73.4359L181.64 70.5032C181.71 70.3454 181.715 70.1661 181.654 70.0045C181.593 69.8429 181.47 69.7121 181.312 69.6406L180.317 69.1934L178.146 68.2196C177.988 68.1491 177.808 68.1441 177.646 68.2058C177.484 68.2675 177.353 68.3908 177.282 68.5488L176.003 71.3839L174.546 74.6118L173.991 75.8443C173.92 76.0021 173.915 76.1815 173.976 76.3431C174.038 76.5048 174.161 76.6356 174.319 76.7069Z" fill="#F2F2F2"/>
<path d="M167.709 116.87L170.367 116.869L171.631 106.643L167.709 106.644L167.709 116.87Z" fill="#FFB8B8"/>
<path d="M167.031 116.004L172.265 116.004H172.266C172.704 116.004 173.137 116.09 173.542 116.257C173.947 116.424 174.315 116.669 174.624 116.978C174.934 117.287 175.18 117.654 175.347 118.058C175.515 118.461 175.601 118.894 175.601 119.331V119.439L167.031 119.439L167.031 116.004Z" fill="#2F2E41"/>
<path d="M174.646 116.221L177.304 116.221L178.569 105.995L174.646 105.995L174.646 116.221Z" fill="#FFB8B8"/>
<path d="M173.969 115.355L179.203 115.355H179.203C179.641 115.355 180.075 115.441 180.48 115.608C180.884 115.775 181.252 116.02 181.562 116.329C181.872 116.638 182.117 117.005 182.285 117.409C182.453 117.812 182.539 118.245 182.539 118.682V118.79L173.969 118.79L173.969 115.355Z" fill="#2F2E41"/>
<path d="M155.787 92.8736C156.353 94.5479 157.427 96.0053 158.86 97.044C160.294 98.0827 162.015 98.6513 163.787 98.6711L163.921 98.6733C165.293 98.7122 166.904 98.2711 168.485 97.6375C171.606 96.3854 174.605 94.3808 175.4 93.8294L174.052 106.759L173.506 112.001C173.492 112.136 173.507 112.273 173.549 112.403C173.592 112.532 173.661 112.652 173.752 112.753C173.844 112.854 173.956 112.935 174.08 112.991C174.205 113.046 174.34 113.075 174.477 113.075H177.844C178.06 113.075 178.269 113.004 178.44 112.873C178.611 112.741 178.734 112.557 178.789 112.349L184.348 91.2322C184.514 90.6002 184.528 89.9376 184.387 89.2994C184.246 88.6611 183.954 88.0655 183.537 87.5619C183.119 87.0583 182.587 86.6611 181.985 86.4033C181.383 86.1454 180.728 86.0343 180.075 86.0791L168.528 86.8684L169.334 83.6506L159.028 82.9673L158.998 82.9889C158.75 83.1684 158.51 83.3565 158.28 83.5533C157.705 84.038 157.196 84.5948 156.765 85.2098C155.993 86.3132 155.501 87.5869 155.33 88.9216C155.16 90.2564 155.317 91.6124 155.787 92.8736Z" fill="#2F2E41"/>
<path d="M155.787 92.8735C156.353 94.5479 157.427 96.0053 158.861 97.044C160.294 98.0827 162.015 98.6513 163.787 98.6712C165.481 97.816 167.115 96.8487 168.68 95.7756L168.485 97.6375L166.785 113.947C166.771 114.083 166.786 114.22 166.829 114.349C166.871 114.479 166.94 114.598 167.032 114.699C167.123 114.8 167.235 114.881 167.36 114.937C167.485 114.992 167.62 115.021 167.756 115.022H171.123C171.339 115.022 171.549 114.951 171.72 114.819C171.891 114.688 172.013 114.503 172.068 114.295L174.052 106.759L177.627 93.1785C177.794 92.5464 177.807 91.8838 177.666 91.2456C177.525 90.6073 177.234 90.0117 176.816 89.5081C176.399 89.0045 175.867 88.6073 175.265 88.3495C174.663 88.0916 174.008 87.9805 173.354 88.0253L161.807 88.8146L162.614 85.5968L156.765 85.2097C155.993 86.3132 155.501 87.5869 155.33 88.9216C155.16 90.2564 155.317 91.6124 155.787 92.8735Z" fill="#2F2E41"/>
<path d="M158.265 84.2993L158.188 84.29L156.389 75.4703C156.374 75.3938 154.904 67.7864 159.411 63.8094L159.489 63.265C159.509 63.1257 159.56 62.9924 159.636 62.8743C159.713 62.7562 159.814 62.6561 159.934 62.581C160.053 62.5058 160.187 62.4573 160.327 62.4388C160.467 62.4204 160.609 62.4324 160.744 62.4741L164.99 63.7877C165.23 63.8616 165.433 64.0253 165.555 64.2447C165.677 64.4641 165.709 64.722 165.644 64.9645L165.232 66.5305C165.804 67.2009 172.541 75.2912 170.194 81.5241L169.143 85.6223L158.265 84.2993Z" fill="#464EB5"/>
<path d="M175.895 77.4157C175.794 77.4794 175.697 77.551 175.607 77.6298L165.223 74.8493L164.544 72.3335L160.604 72.8592L161.372 77.4294C161.434 77.7986 161.614 78.1378 161.886 78.396C162.158 78.6543 162.506 78.8176 162.879 78.8615L175.026 80.2929C175.219 80.7117 175.536 81.062 175.933 81.2973C176.331 81.5325 176.79 81.6414 177.251 81.6096C177.712 81.5778 178.153 81.4067 178.514 81.1191C178.875 80.8316 179.14 80.4411 179.273 79.9997C179.407 79.5584 179.402 79.087 179.26 78.6483C179.118 78.2096 178.846 77.8243 178.479 77.5438C178.113 77.2633 177.669 77.1008 177.207 77.0779C176.746 77.055 176.288 77.1728 175.895 77.4157H175.895Z" fill="#FFB8B8"/>
<path d="M164.823 74.8091L159.936 75.437C159.797 75.4548 159.656 75.4426 159.522 75.4011C159.388 75.3596 159.265 75.2898 159.16 75.1964C159.056 75.1031 158.973 74.9884 158.917 74.8602C158.861 74.732 158.833 74.5932 158.836 74.4534L158.929 69.5544C158.842 68.8443 159.04 68.1285 159.481 67.5639C159.921 66.9994 160.568 66.6322 161.28 66.5429C161.992 66.4536 162.71 66.6494 163.277 67.0874C163.844 67.5255 164.214 68.17 164.306 68.8796L165.637 73.5796C165.675 73.7142 165.684 73.8554 165.662 73.9935C165.641 74.1317 165.59 74.2636 165.512 74.3803C165.435 74.497 165.334 74.5957 165.215 74.6697C165.096 74.7437 164.962 74.7912 164.823 74.8091Z" fill="#464EB5"/>
<path d="M163.448 61.2771C166.388 61.2771 168.772 58.8992 168.772 55.9658C168.772 53.0325 166.388 50.6545 163.448 50.6545C160.507 50.6545 158.123 53.0325 158.123 55.9658C158.123 58.8992 160.507 61.2771 163.448 61.2771Z" fill="#FFB8B8"/>
<path d="M163.167 56.4092L162.501 55.1983C161.238 60.3303 163.468 64.5776 163.468 64.5776L154.811 60.5552L154.894 59.128L154.037 60.0977L152.806 59.4211L152.644 58.4954L151.714 58.725L155.106 52.5863C158.397 46.7447 163.183 48.975 163.183 48.975C170.796 48.614 169.866 56.1058 169.866 56.1058L163.167 56.4092Z" fill="#2F2E41"/>
<path d="M102.553 95.9892C103.781 95.2042 102.288 90.6962 99.2188 85.9203C96.1494 81.1445 92.6659 77.9093 91.4383 78.6943C90.2106 79.4793 91.7036 83.9873 94.773 88.7632C97.8423 93.5391 101.326 96.7743 102.553 95.9892Z" fill="#1D2025"/>
</g>
<defs>
<clipPath id="clip0">
<rect width="213" height="165" fill="white"/>
</clipPath>
</defs>
</svg>
