<svg width="109" height="40" viewBox="0 0 109 40" fill="none" xmlns="http://www.w3.org/2000/svg">
<path d="M39.5827 0H4.15583C1.99086 0 0.219513 1.70105 0.219513 3.78011V26.4608C0.219513 28.5399 1.99086 30.2409 4.15583 30.2409H13.9966V34.021H29.7419V30.2409H39.5827C41.7477 30.2409 43.4993 28.5399 43.4993 26.4608L43.519 3.78011C43.519 1.70105 41.7477 0 39.5827 0ZM39.5827 26.4608H4.15583V3.78011H39.5827V26.4608ZM6.12399 20.7906V24.5707H10.0603C10.0603 22.4728 8.30864 20.7906 6.12399 20.7906ZM6.12399 15.1205V17.8232C10.0013 17.8232 13.1503 20.8473 13.1503 24.5707H15.9648C15.9648 19.3542 11.5561 15.1205 6.12399 15.1205ZM6.12399 9.45028V12.1909C13.229 12.1909 19.0154 17.7287 19.0154 24.5707H21.8693C21.8693 16.2167 14.8036 9.45028 6.12399 9.45028Z" fill="white"/>
<rect x="45.9223" y="15.4641" width="8.60723" height="23.3625" rx="3.25" transform="rotate(30.0011 45.9223 15.4641)" fill="white"/>
<circle cx="46.5973" cy="17.9834" r="0.614802" transform="rotate(30.0011 46.5973 17.9834)" fill="#292626"/>
<circle cx="50.8568" cy="20.4429" r="0.614802" transform="rotate(30.0011 50.8568 20.4429)" fill="#42476F"/>
<circle cx="41.3491" cy="31.9912" r="3.07401" transform="rotate(30.0011 41.3491 31.9912)" fill="#42476F"/>
<path d="M71.2289 7.5384H67.8779V11H66.1325V2.52925H71.6478V3.94299H67.8779V6.13049H71.2289V7.5384ZM74.516 11H72.7707V2.52925H74.516V11ZM83.0275 11H81.2821L77.8845 5.42653V11H76.1392V2.52925H77.8845L81.288 8.11436V2.52925H83.0275V11ZM84.5518 11V2.52925H87.1581C87.9028 2.52925 88.568 2.69797 89.1536 3.03541C89.7432 3.36896 90.2028 3.84602 90.5325 4.46659C90.8621 5.08328 91.027 5.78529 91.027 6.57264V6.96243C91.027 7.74978 90.8641 8.44986 90.5383 9.06267C90.2164 9.67548 89.7606 10.1506 89.1711 10.488C88.5816 10.8255 87.9164 10.9961 87.1756 11H84.5518ZM86.2971 3.94299V9.59791H87.1407C87.8233 9.59791 88.345 9.37489 88.7057 8.92886C89.0664 8.48282 89.2506 7.8448 89.2584 7.01479V6.56682C89.2584 5.70578 89.08 5.05419 88.7231 4.61203C88.3663 4.166 87.8446 3.94299 87.1581 3.94299H86.2971Z" fill="white"/>
<path d="M66.3486 36.1274V25.2365H70.1635C71.4849 25.2365 72.4873 25.4908 73.1704 25.9994C73.8536 26.5031 74.1952 27.2436 74.1952 28.221C74.1952 28.7546 74.0581 29.2258 73.7838 29.6348C73.5095 30.0387 73.128 30.3354 72.6394 30.5249C73.1979 30.6645 73.6367 30.9463 73.9558 31.3701C74.28 31.794 74.442 32.3126 74.442 32.926C74.442 33.9732 74.1079 34.7661 73.4397 35.3046C72.7715 35.8432 71.819 36.1175 70.5823 36.1274H66.3486ZM68.5926 31.3851V34.3247H70.515C71.0436 34.3247 71.455 34.2001 71.7492 33.9507C72.0484 33.6964 72.198 33.3474 72.198 32.9035C72.198 31.9062 71.6819 31.4 70.6497 31.3851H68.5926ZM68.5926 29.7993H70.2532C71.3852 29.7794 71.9512 29.3281 71.9512 28.4454C71.9512 27.9517 71.8066 27.5977 71.5173 27.3833C71.2331 27.1638 70.7818 27.0541 70.1635 27.0541H68.5926V29.7993ZM90.0909 36.1274H87.8469L83.4785 28.9616V36.1274H81.2345V25.2365H83.4785L87.8544 32.4173V25.2365H90.0909V36.1274ZM99.8252 34.7511C99.4212 35.2348 98.8503 35.6113 98.1122 35.8806C97.3742 36.1449 96.5564 36.277 95.6588 36.277C94.7163 36.277 93.8885 36.0726 93.1754 35.6637C92.4673 35.2498 91.9187 34.6514 91.5298 33.8685C91.1458 33.0856 90.9488 32.1655 90.9389 31.1083V30.3678C90.9389 29.2807 91.1209 28.3407 91.4849 27.5478C91.8539 26.7499 92.3825 26.1416 93.0707 25.7227C93.7638 25.2988 94.5742 25.0869 95.5017 25.0869C96.7932 25.0869 97.803 25.3961 98.5311 26.0144C99.2592 26.6278 99.6905 27.5229 99.8252 28.6997H97.641C97.5412 28.0764 97.3193 27.6201 96.9753 27.3309C96.6362 27.0417 96.1674 26.8971 95.569 26.8971C94.806 26.8971 94.2251 27.1838 93.8262 27.7573C93.4272 28.3307 93.2253 29.1835 93.2203 30.3154V31.0111C93.2203 32.153 93.4372 33.0157 93.871 33.5992C94.3049 34.1826 94.9407 34.4743 95.7784 34.4743C96.6212 34.4743 97.2221 34.2948 97.5811 33.9358V32.0583H95.5391V30.4052H99.8252V34.7511ZM107.36 31.4075H103.052V34.3247H108.108V36.1274H100.808V25.2365H108.093V27.0541H103.052V29.6497H107.36V31.4075Z" fill="white"/>
<rect x="75.589" y="25.5317" width="4.07615" height="11.0638" rx="0.851064" fill="white"/>
<circle cx="76.4624" cy="26.4054" r="0.291153" fill="#464EB5"/>
<circle cx="78.7918" cy="26.4054" r="0.291153" fill="black"/>
<circle cx="77.627" cy="33.393" r="1.45577" fill="black"/>
<path d="M69.5783 17.8935L71.593 13.5318H73.7738L70.5956 19.702V23.2126H68.5677V19.702L65.3895 13.5318H67.577L69.5783 17.8935ZM94.1874 13.5318V19.9081C94.1874 20.9675 93.8549 21.8053 93.1901 22.4214C92.5296 23.0376 91.6253 23.3456 90.4773 23.3456C89.347 23.3456 88.4494 23.0464 87.7845 22.448C87.1196 21.8496 86.7805 21.0274 86.7672 19.9813V13.5318H88.7619V19.9214C88.7619 20.5553 88.9126 21.0185 89.214 21.3111C89.5198 21.5992 89.9409 21.7432 90.4773 21.7432C91.5987 21.7432 92.1683 21.1537 92.1861 19.9746V13.5318H94.1874ZM99.1345 19.6688H97.5454V23.2126H95.5507V13.5318H99.1478C100.291 13.5318 101.173 13.7867 101.794 14.2964C102.415 14.8062 102.725 15.5265 102.725 16.4573C102.725 17.1178 102.581 17.6696 102.293 18.1129C102.009 18.5517 101.577 18.9019 100.996 19.1634L103.091 23.1196V23.2126H100.95L99.1345 19.6688ZM97.5454 18.0531H99.1544C99.6553 18.0531 100.043 17.9267 100.318 17.6741C100.593 17.417 100.73 17.0646 100.73 16.6169C100.73 16.1603 100.599 15.8013 100.338 15.5398C100.081 15.2782 99.6841 15.1475 99.1478 15.1475H97.5454V18.0531Z" fill="white"/>
<path d="M84.7186 13.6169H74.9701C74.3743 13.6169 73.8869 14.085 73.8869 14.6571V20.8983C73.8869 21.4704 74.3743 21.9385 74.9701 21.9385H77.678V22.9786H82.0107V21.9385H84.7186C85.3144 21.9385 85.7964 21.4704 85.7964 20.8983L85.8018 14.6571C85.8018 14.085 85.3144 13.6169 84.7186 13.6169ZM84.7186 20.8983H74.9701V14.6571H84.7186V20.8983ZM75.5116 19.338V20.3782H76.5948C76.5948 19.8009 76.1128 19.338 75.5116 19.338ZM75.5116 17.7777V18.5214C76.5786 18.5214 77.4451 19.3536 77.4451 20.3782H78.2196C78.2196 18.9427 77.0064 17.7777 75.5116 17.7777ZM75.5116 16.2174V16.9716C77.4668 16.9716 79.059 18.4954 79.059 20.3782H79.8443C79.8443 18.0794 77.9 16.2174 75.5116 16.2174Z" fill="white"/>
</svg>
