<svg width="20" height="20" viewBox="0 0 20 20" fill="none" xmlns="http://www.w3.org/2000/svg">
<path d="M10 1.66675C5.48252 1.66675 1.66669 5.48258 1.66669 10.0001C1.66669 12.6576 2.99335 15.0651 5.00002 16.6034V16.6667H5.08502C6.47502 17.7042 8.17752 18.3334 10 18.3334C11.8225 18.3334 13.525 17.7042 14.915 16.6667H15V16.6034C17.0067 15.0651 18.3334 12.6584 18.3334 10.0001C18.3334 5.48258 14.5175 1.66675 10 1.66675ZM6.72835 15.7726C6.85116 15.2171 7.15964 14.72 7.60291 14.3634C8.04618 14.0068 8.59777 13.8119 9.16669 13.8109H10.8334C11.4022 13.8121 11.9537 14.007 12.397 14.3636C12.8402 14.7202 13.1487 15.2171 13.2717 15.7726C12.2984 16.3367 11.18 16.6667 10 16.6667C8.82002 16.6667 7.70169 16.3367 6.72835 15.7726ZM14.675 14.7009C14.3572 13.9441 13.8231 13.2979 13.1398 12.8432C12.4565 12.3884 11.6542 12.1453 10.8334 12.1442H9.16669C8.34586 12.1453 7.54358 12.3884 6.86024 12.8432C6.17691 13.2979 5.64289 13.9441 5.32502 14.7009C4.10252 13.4851 3.33335 11.8134 3.33335 10.0001C3.33335 6.38591 6.38585 3.33341 10 3.33341C13.6142 3.33341 16.6667 6.38591 16.6667 10.0001C16.6667 11.8134 15.8975 13.4851 14.675 14.7009Z" fill="#ADB1B0"/>
<path d="M10 5C8.10002 5 6.66669 6.43333 6.66669 8.33333C6.66669 10.2333 8.10002 11.6667 10 11.6667C11.9 11.6667 13.3334 10.2333 13.3334 8.33333C13.3334 6.43333 11.9 5 10 5ZM10 10C9.01835 10 8.33335 9.315 8.33335 8.33333C8.33335 7.35167 9.01835 6.66667 10 6.66667C10.9817 6.66667 11.6667 7.35167 11.6667 8.33333C11.6667 9.315 10.9817 10 10 10Z" fill="#ADB1B0"/>
</svg>
