<svg width="405" height="338" viewBox="0 0 405 338" fill="none" xmlns="http://www.w3.org/2000/svg">
<g>
<path d="M382.599 108.125C382.599 122.193 379.269 133.773 373.492 143.693C371.585 146.96 369.421 150.07 367.019 152.993C345.783 178.981 306.299 193.205 270.614 216.245C165.277 284.254 153.867 175.277 158.625 108.125C160.544 81.0285 171.09 56.2084 187.845 37.2042C191.364 33.2074 195.165 29.4684 199.219 26.0162C218.241 9.80806 242.816 0 270.614 0C318.305 0 359.032 28.7802 375.179 69.3364C380.088 81.6781 382.607 94.8415 382.599 108.125Z" fill="#6C63FF"/>
<path d="M294.474 24.3682L187.845 37.2043C191.364 33.2074 195.165 29.4684 199.219 26.0162L294.474 24.3682Z" fill="#1D2025"/>
<path d="M373.492 143.693C371.585 146.96 369.421 150.07 367.019 152.993L275.683 142.001L373.492 143.693Z" fill="#1D2025"/>
<path d="M378.905 80.4885L224.11 60.4004L375.179 69.3364C376.63 72.9807 377.874 76.7039 378.905 80.4885Z" fill="#1D2025"/>
<path d="M169.125 28.801C169.125 29.077 169.117 29.349 169.093 29.617C168.972 31.2781 168.482 32.8913 167.659 34.3391C166.836 35.7868 165.701 37.0327 164.336 37.9859C162.97 38.9391 161.41 39.5757 159.768 39.8493C158.126 40.1228 156.444 40.0265 154.844 39.5673C153.243 39.1081 151.766 38.2976 150.518 37.1948C149.271 36.092 148.285 34.7247 147.632 33.1925C146.98 31.6602 146.677 30.0017 146.746 28.3376C146.815 26.6735 147.255 25.0458 148.032 23.573C148.273 23.1114 148.548 22.6688 148.855 22.249C150.194 20.3913 152.07 18.989 154.23 18.2314C156.39 17.4737 158.731 17.3971 160.936 18.0118C163.141 18.6266 165.104 19.9032 166.561 21.6693C168.019 23.4355 168.899 25.6063 169.085 27.889C169.113 28.189 169.125 28.493 169.125 28.801Z" fill="#6C63FF"/>
<path d="M169.125 28.801C169.125 29.077 169.117 29.349 169.093 29.617L152.334 27.601L169.085 27.889C169.113 28.1889 169.125 28.493 169.125 28.801Z" fill="#D0CDE1"/>
<path d="M165.127 34.4452L149.623 36.3132C149.183 35.8223 148.787 35.2936 148.44 34.7332L165.127 34.4452Z" fill="#D0CDE1"/>
<path d="M160.729 22.045L148.032 23.573C148.273 23.1115 148.548 22.6689 148.855 22.249L160.729 22.045Z" fill="#D0CDE1"/>
<path d="M322.538 230.453C322.408 230.696 322.274 230.933 322.127 231.158C321.242 232.569 320.053 233.764 318.648 234.657C317.243 235.55 315.656 236.118 314.004 236.319C312.352 236.521 310.675 236.352 309.096 235.823C307.518 235.295 306.077 234.42 304.879 233.264C303.68 232.108 302.755 230.699 302.17 229.14C301.584 227.581 301.354 225.911 301.496 224.251C301.637 222.592 302.147 220.985 302.987 219.547C303.828 218.11 304.979 216.878 306.355 215.941C306.784 215.647 307.235 215.385 307.703 215.158C309.756 214.145 312.07 213.786 314.333 214.13C316.596 214.474 318.699 215.504 320.359 217.081C322.019 218.659 323.155 220.707 323.615 222.951C324.074 225.194 323.835 227.525 322.93 229.628C322.814 229.906 322.682 230.18 322.538 230.453Z" fill="#6C63FF"/>
<path d="M322.538 230.453C322.409 230.696 322.274 230.933 322.127 231.158L308.268 221.517L322.93 229.628C322.814 229.906 322.682 230.18 322.538 230.453Z" fill="#D0CDE1"/>
<path d="M316.362 233.563L301.792 227.941C301.633 227.301 301.531 226.649 301.487 225.991L316.362 233.563Z" fill="#D0CDE1"/>
<path d="M318.287 220.547L306.355 215.942C306.784 215.647 307.235 215.385 307.703 215.158L318.287 220.547Z" fill="#D0CDE1"/>
<path d="M401.821 37.3812C402.014 37.5788 402.198 37.7791 402.368 37.9877C403.44 39.2615 404.215 40.7586 404.636 42.3699C405.058 43.9813 405.114 45.6663 404.802 47.3024C404.49 48.9384 403.817 50.4841 402.833 51.8271C401.848 53.17 400.576 54.2763 399.11 55.0653C397.644 55.8544 396.021 56.3064 394.358 56.3883C392.696 56.4703 391.036 56.1801 389.499 55.539C387.963 54.898 386.589 53.9221 385.477 52.6825C384.365 51.4428 383.544 49.9707 383.072 48.3733C382.923 47.8748 382.811 47.3656 382.738 46.8501C382.4 44.585 382.765 42.2707 383.782 40.2193C384.8 38.1679 386.422 36.4781 388.43 35.3779C390.437 34.2777 392.734 33.8199 395.009 34.0664C397.285 34.3128 399.43 35.2516 401.156 36.7562C401.386 36.9514 401.606 37.1607 401.821 37.3812Z" fill="#6C63FF"/>
<path d="M401.821 37.3813C402.014 37.5789 402.198 37.7792 402.368 37.9879L388.963 48.2521L401.156 36.7563C401.386 36.9516 401.606 37.1608 401.821 37.3813Z" fill="#D0CDE1"/>
<path d="M402.898 44.2147L393.102 56.3826C392.444 56.3386 391.792 56.2367 391.152 56.0781L402.898 44.2147Z" fill="#D0CDE1"/>
<path d="M391.096 38.4095L383.073 48.3734C382.923 47.8749 382.811 47.3657 382.738 46.8503L391.096 38.4095Z" fill="#D0CDE1"/>
<path d="M191.812 243.783C191.812 243.783 216.377 244.807 216.377 250.952C216.377 257.096 188.741 250.952 188.741 250.952L191.812 243.783Z" fill="#A0616A"/>
<path d="M154.964 338L108.904 334.928L106.856 310.349L96.6209 331.855L51.5844 325.711C52.6079 286.795 68.9849 248.903 70.0084 243.783C71.032 238.662 73.4783 217.504 73.4783 217.504C77.9512 208.011 101.391 207.12 119.764 207.98C127.379 208.329 134.134 208.984 138.3 209.455C141.053 209.762 142.681 209.988 142.681 209.988C150.02 217.556 154.749 227.868 157.656 239.389C168.137 280.896 154.964 338 154.964 338Z" fill="#2F2E41"/>
<path d="M103.786 100.409C117.918 100.409 129.375 88.9463 129.375 74.8065C129.375 60.6666 117.918 49.204 103.786 49.204C89.6534 49.204 78.1969 60.6666 78.1969 74.8065C78.1969 88.9463 89.6534 100.409 103.786 100.409Z" fill="#A0616A"/>
<path d="M86.3854 80.9512C86.3854 80.9512 79.2205 112.698 67.9614 121.915C56.7023 131.132 111.974 121.915 111.974 121.915C111.974 121.915 99.6917 101.433 108.904 92.2163C118.116 82.9994 86.3854 80.9512 86.3854 80.9512Z" fill="#A0616A"/>
<path d="M138.587 212.036L121.606 213.92L74.1027 219.204C74.1027 219.204 73.8776 218.6 73.4784 217.504C70.029 208.093 53.4167 162.295 51.5845 148.542C49.5373 133.18 71.0321 114.746 71.0321 114.746C71.0321 114.746 91.5032 110.65 97.6445 110.65C103.786 110.65 128.351 119.867 128.351 119.867L137.512 202.317L138.3 209.455L138.587 212.036Z" fill="#D0CDE1"/>
<path opacity="0.15" d="M157.656 239.389L123.233 219.204C123.233 219.204 122.629 217.238 121.606 213.92C121.094 212.261 120.47 210.254 119.764 207.98C115.792 195.22 109.129 174.164 103.786 158.783C95.5974 135.228 135.516 200.771 135.516 200.771L137.512 202.317L138.3 209.455C141.053 209.762 142.681 209.988 142.681 209.988C150.02 217.556 154.749 227.868 157.656 239.389Z" fill="black"/>
<path d="M111.974 121.915C111.974 121.915 101.739 135.228 109.927 158.783C118.116 182.337 129.375 219.204 129.375 219.204L188.741 254.024L196.93 243.783L141.658 200.771C141.658 200.771 139.61 122.939 129.375 119.867C119.139 116.795 111.974 121.915 111.974 121.915Z" fill="#D0CDE1"/>
<path d="M61.3082 211.524C61.3082 211.524 75.638 241.223 81.7794 238.15C87.9207 235.078 66.426 204.355 66.426 204.355L61.3082 211.524Z" fill="#A0616A"/>
<path d="M59.7729 130.108L5.52434 175.168C5.52434 175.168 -14.9468 189.506 22.9248 199.747C60.7965 209.988 63.8671 216.132 63.8671 216.132C63.8671 216.132 67.9613 202.819 73.0791 204.867L29.0662 183.361L64.8907 161.855L59.7729 130.108Z" fill="#D0CDE1"/>
<path d="M37.9699 95.8201C40.8171 94.4094 47.1043 91.5622 52.4596 88.132C52.0841 76.9729 53.4575 66.8428 57.4779 61.4732C59.7346 56.3465 64.4734 51.2139 68.1849 47.1718C77.2993 37.2456 97.4534 31.7048 101.028 36.6643C128.064 37.1984 130.91 58.4017 130.91 58.4017C130.77 67.2705 121.557 67.5511 113.487 67.228C114.209 73.2826 112.283 79.5737 106.706 82.3637C96.0415 87.699 92.842 94.6348 98.1745 99.4365C103.507 104.238 113.105 117.043 100.307 120.244C87.5096 123.445 85.9099 129.847 89.6426 132.515C93.3754 135.183 81.1107 127.713 81.1107 127.713C81.1107 127.713 78.9778 140.518 67.7797 137.317C66.7761 137.03 65.7731 136.295 64.7871 135.195C61.7627 138.52 59.0647 140.486 57.0312 140.497C45.3852 140.559 46.7818 127.653 46.7818 127.653C46.7818 127.653 32.9586 131.537 37.2719 129.975C41.5853 128.413 41.77 121.817 30.3088 115.282C18.8476 108.747 31.541 99.0055 37.9699 95.8201Z" fill="#2F2E41"/>
<path d="M180.859 129.273L180.673 129.249L181.126 130.971C181.554 133.374 182.176 135.739 182.985 138.042L196.269 188.565C196.693 190.178 197.578 191.632 198.816 192.748C200.054 193.864 201.591 194.595 203.237 194.85L230.327 199.043C232.079 199.314 233.871 199.034 235.457 198.242C237.043 197.45 238.344 196.185 239.181 194.622L264.925 146.511C265.729 145.178 266.465 143.804 267.127 142.396L268.001 140.762L267.865 140.744C270.594 134.285 271.795 127.283 271.375 120.283C270.955 113.283 268.925 106.474 265.443 100.388C261.961 94.3026 257.121 89.1034 251.301 85.1964C245.48 81.2894 238.837 78.78 231.888 77.8638C224.939 76.9477 217.873 77.6495 211.24 79.9147C204.607 82.1799 198.586 85.9471 193.647 90.9228C188.708 95.8985 184.985 101.948 182.766 108.6C180.548 115.252 179.895 122.327 180.859 129.273H180.859Z" fill="#3F3D56"/>
<path d="M231.99 202.344C231.513 202.344 231.036 202.307 230.565 202.234L202.248 197.851C200.45 197.573 198.772 196.775 197.42 195.556C196.068 194.337 195.101 192.749 194.639 190.988L180.754 138.178C179.905 135.76 179.253 133.278 178.804 130.755L178.452 128.445C177.508 121.064 178.291 113.564 180.739 106.538C183.188 99.512 187.236 93.1514 192.562 87.9586C197.889 82.7658 204.35 78.883 211.434 76.6166C218.517 74.3502 226.031 73.7622 233.381 74.8992L233.258 75.6898C225.988 74.5689 218.557 75.1634 211.558 77.4259C204.558 79.6884 198.184 83.5562 192.944 88.7208C187.704 93.8854 183.742 100.204 181.376 107.172C179.009 114.14 178.303 121.565 179.314 128.855L179.584 130.583C180.03 133.085 180.677 135.546 181.518 137.943L195.412 190.785C195.835 192.395 196.719 193.847 197.955 194.962C199.191 196.076 200.726 196.806 202.371 197.06L230.687 201.443C232.436 201.712 234.225 201.432 235.808 200.641C237.392 199.851 238.691 198.589 239.528 197.029L240.233 197.406C239.433 198.897 238.244 200.144 236.792 201.013C235.341 201.883 233.681 202.342 231.99 202.344Z" fill="#D0CDE1"/>
<path d="M239.173 140.757L221.943 187.825L222.914 188.181L240.144 141.113L239.173 140.757Z" fill="#D0CDE1"/>
<path d="M211.041 136.402L210.008 136.447L212.207 186.525L213.24 186.48L211.041 136.402Z" fill="#D0CDE1"/>
<path d="M229.596 226.286L193.312 220.67C193.042 220.626 192.8 220.478 192.64 220.257C192.479 220.036 192.412 219.76 192.454 219.49C192.496 219.22 192.643 218.977 192.863 218.815C193.083 218.653 193.358 218.584 193.628 218.624L229.912 224.241C230.047 224.261 230.176 224.307 230.293 224.377C230.41 224.448 230.512 224.541 230.593 224.65C230.674 224.76 230.732 224.885 230.764 225.017C230.797 225.15 230.803 225.287 230.782 225.422C230.761 225.557 230.714 225.686 230.643 225.803C230.572 225.919 230.479 226.021 230.368 226.101C230.258 226.181 230.133 226.239 230.001 226.27C229.868 226.302 229.73 226.307 229.596 226.286Z" fill="#3F3D56"/>
<path d="M230.526 218.577L194.242 212.96C194.107 212.94 193.978 212.894 193.861 212.823C193.744 212.753 193.643 212.66 193.562 212.55C193.481 212.441 193.422 212.316 193.39 212.183C193.358 212.051 193.352 211.913 193.372 211.779C193.393 211.644 193.44 211.514 193.511 211.398C193.582 211.282 193.676 211.18 193.786 211.1C193.896 211.02 194.021 210.962 194.154 210.93C194.286 210.899 194.424 210.893 194.559 210.915L230.842 216.531C230.977 216.551 231.107 216.598 231.224 216.668C231.34 216.739 231.442 216.831 231.523 216.941C231.604 217.051 231.662 217.176 231.695 217.308C231.727 217.441 231.733 217.578 231.712 217.713C231.692 217.848 231.644 217.977 231.573 218.094C231.502 218.21 231.409 218.311 231.299 218.392C231.189 218.472 231.064 218.529 230.931 218.561C230.798 218.593 230.661 218.598 230.526 218.577Z" fill="#3F3D56"/>
<path d="M231.457 210.867L195.173 205.251C194.903 205.208 194.661 205.059 194.5 204.838C194.34 204.617 194.273 204.341 194.315 204.071C194.356 203.801 194.503 203.558 194.723 203.396C194.943 203.234 195.219 203.166 195.489 203.206L231.773 208.822C232.043 208.865 232.284 209.014 232.445 209.235C232.606 209.456 232.673 209.732 232.631 210.002C232.589 210.272 232.442 210.515 232.222 210.677C232.002 210.839 231.727 210.908 231.457 210.867H231.457Z" fill="#3F3D56"/>
<path d="M210.326 230.772C217.523 231.886 223.978 228.776 224.744 223.825L198.681 219.791C197.915 224.741 203.129 229.658 210.326 230.772Z" fill="#3F3D56"/>
<path d="M223.369 130.841C221.82 130.601 220.54 129.377 219.837 128.556C219.607 128.287 219.383 128.008 219.158 127.729C218.34 126.71 217.568 125.748 216.493 125.247C214.12 124.139 211.323 125.686 208.902 127.347L208.317 126.493C210.979 124.667 214.083 122.98 216.93 124.309C218.224 124.912 219.109 126.014 219.964 127.08C220.182 127.352 220.4 127.622 220.623 127.883C221.353 128.736 222.809 130.119 224.37 129.8C225.027 129.608 225.639 129.284 226.167 128.848C226.569 128.548 226.994 128.279 227.439 128.045C228.34 127.613 229.348 127.457 230.337 127.597C231.327 127.737 232.253 128.166 232.999 128.831C233.264 129.083 233.516 129.35 233.753 129.63C234.218 130.16 234.657 130.661 235.229 130.843C236.075 131.114 236.968 130.63 237.915 130.119C238.891 129.592 239.9 129.047 241.045 129.182C241.082 129.186 241.12 129.191 241.156 129.197C243.194 129.512 244.133 131.766 244.664 133.449L243.678 133.76C242.956 131.473 242.076 130.336 240.924 130.209C240.104 130.113 239.279 130.558 238.406 131.03C237.311 131.621 236.178 132.232 234.915 131.829C234.07 131.56 233.513 130.926 232.975 130.312C232.764 130.061 232.538 129.822 232.3 129.595C231.706 129.075 230.974 128.738 230.192 128.628C229.41 128.517 228.613 128.637 227.898 128.972C227.502 129.183 227.123 129.424 226.764 129.693C226.122 130.217 225.377 130.599 224.577 130.814C224.179 130.895 223.77 130.904 223.369 130.841Z" fill="#D0CDE1"/>
</g>
<defs>
<clipPath id="clip0">
<rect width="405" height="338" fill="white"/>
</clipPath>
</defs>
</svg>
